<?xml version="1.0" encoding="UTF-8"?>
<svg width="8px" height="7px" viewBox="0 0 8 7" version="1.1" xmlns="http://www.w3.org/2000/svg" xmlns:xlink="http://www.w3.org/1999/xlink">
    <g id="Twitter" stroke="none" stroke-width="1" fill="none" fill-rule="evenodd">
        <g id="pulse-mobile-twitter" transform="translate(-46.000000, -8913.000000)" fill="#9B9B9B" fill-rule="nonzero">
            <g id="Group-9-Copy-26" transform="translate(46.000000, 8909.000000)">
                <g id="promoted" transform="translate(0.000000, 4.000000)">
                    <path d="M1,0 L7,0 C7.55228475,-1.01453063e-16 8,0.44771525 8,1 L8,6 C8,6.55228475 7.55228475,7 7,7 L1,7 C0.44771525,7 6.76353751e-17,6.55228475 0,6 L0,1 C-6.76353751e-17,0.44771525 0.44771525,1.01453063e-16 1,0 Z M3.47903717,1.66622474 L5.23384023,1.78739492 L2.39900671,4.62222844 C2.19079859,4.83043656 2.55156268,5.19120064 2.75977079,4.98299253 L5.59460432,2.148159 L5.69773629,3.88492386 C5.69992005,4.20742778 6.17667903,4.23573852 6.17449527,3.91323459 L6.03698597,1.59754812 C6.02889719,1.46133127 5.90262976,1.33506384 5.76641291,1.32697506 L3.45072644,1.18946576 C3.12822251,1.187282 3.15653325,1.66404098 3.47903717,1.66622474 Z" id="Combined-Shape"></path>
                </g>
            </g>
        </g>
    </g>
</svg>