<?xml version="1.0" encoding="UTF-8"?>
<svg width="47px" height="72px" viewBox="0 0 47 72" version="1.1" xmlns="http://www.w3.org/2000/svg" xmlns:xlink="http://www.w3.org/1999/xlink">
    <!-- Generator: Sketch 57.1 (83088) - https://sketch.com -->
    <title>MujerBaby Copy</title>
    <desc>Created with Sketch.</desc>
    <g id="Facebook" stroke="none" stroke-width="1" fill="none" fill-rule="evenodd">
        <g id="generaciones-copy" transform="translate(-811.000000, -439.000000)">
            <g id="MujerBaby-Copy" transform="translate(811.000000, 439.000000)">
                <path d="M43.5869227,28.6297043 L43.5869227,48.6576 L34.2815493,48.6576 C36.8208027,45.6993391 38.2972293,41.7117913 38.2972293,37.5295304 L38.2972293,30.2662957 C39.5223627,30.347687 40.796376,30.3965217 42.1186427,30.3965217 L42.1186427,28.6297043 L43.5869227,28.6297043 Z" id="Fill-1" fill="#FFCE54"></path>
                <path d="M43.5869227,22.5259826 L43.5869227,28.6297043 L42.1186427,28.6297043 C37.3641227,28.6297043 22.8831093,28.6297043 18.2019093,16.3014261 C18.0721893,15.9683478 17.7632427,15.7417043 17.4066693,15.7335652 C17.057616,15.7091478 16.7254827,15.9201391 16.5788427,16.2444522 C14.404936,20.9945739 11.5329227,22.2423652 9.001816,22.8421565 C8.60450933,22.9392 8.32814933,23.2879304 8.32814933,23.7011478 L8.32814933,27.5190261 L7.435776,27.5190261 C5.97564267,27.5190261 4.79124267,28.7023304 4.79124267,30.161113 L3.02278933,30.161113 L3.02278933,22.5259826 C3.02278933,11.3484522 12.1251227,2.26267826 23.304856,2.26267826 C34.4921093,2.26267826 43.5869227,11.3484522 43.5869227,22.5259826" id="Fill-3" fill="#FFCE54"></path>
                <path d="M30.6551547,58.6433739 L30.6551547,61.286087 C30.6551547,65.3306087 27.3613947,68.6294609 23.3049813,68.6294609 C19.2567147,68.6294609 15.962328,65.3306087 15.962328,61.286087 L15.962328,58.6433739 L18.8995147,58.6433739 L18.8995147,61.286087 C18.8995147,63.7171826 20.8791547,65.6874783 23.3049813,65.6874783 C25.738328,65.6874783 27.717968,63.7171826 27.717968,61.286087 L27.717968,58.6433739 L30.6551547,58.6433739 Z" id="Fill-5" fill="#CCD0D9"></path>
                <path d="M12.336184,48.6577878 L3.022664,48.6577878 L3.022664,30.1613009 L4.79111733,30.1613009 C4.79111733,31.6200835 5.97551733,32.8040139 7.43627733,32.8040139 L8.328024,32.8040139 L8.328024,37.5453704 C8.328024,41.7282574 9.80507733,45.7076661 12.336184,48.6577878" id="Fill-7" fill="#FFCE54"></path>
                <path d="M13.91012,31.629287 L18.6076133,31.629287 L18.6076133,29.8699826 L13.91012,29.8699826 L13.91012,31.629287 Z M22.1282267,46.8989217 L24.4807333,46.8989217 L24.4807333,45.1321043 L22.1282267,45.1321043 L22.1282267,46.8989217 Z M26.54184,35.4465391 L24.7733867,35.4465391 L24.7733867,36.9134609 L20.9519733,36.9134609 L20.9519733,38.6721391 L26.54184,38.6721391 L26.54184,35.4465391 Z M25.02468,44.5485913 C26.4766667,44.5485913 27.7832667,43.7459478 28.4400133,42.4486957 L28.7972133,41.7362087 L27.2230267,40.9417043 L26.8583067,41.6548174 C26.5092533,42.3516522 25.8036267,42.789287 25.02468,42.789287 L21.5930533,42.789287 C20.80596,42.789287 20.10848,42.3516522 19.75128,41.6548174 L19.3859333,40.9254261 L17.8123733,41.7117913 L18.17772,42.4486957 C18.8344667,43.7459478 20.14044,44.5485913 21.5930533,44.5485913 L25.02468,44.5485913 Z M28.0182667,31.629287 L32.71576,31.629287 L32.71576,29.8699826 L28.0182667,29.8699826 L28.0182667,31.629287 Z M30.65528,61.2857739 C30.65528,65.3302957 27.3608933,68.6297739 23.30448,68.6297739 C19.2562133,68.6297739 15.9624533,65.3302957 15.9624533,61.2857739 L15.9624533,58.643687 L18.89964,58.643687 L18.89964,61.2857739 C18.89964,63.7174957 20.87928,65.6871652 23.30448,65.6871652 C25.7384533,65.6871652 27.7180933,63.7174957 27.7180933,61.2857739 L27.7180933,58.643687 L30.65528,58.643687 L30.65528,61.2857739 Z M25.94964,54.5584696 L25.94964,61.2857739 C25.94964,62.7445565 24.76524,63.928487 23.30448,63.928487 C21.8524933,63.928487 20.6599467,62.7445565 20.6599467,61.2857739 L20.6599467,54.5584696 C21.5115867,54.8665043 22.40396,55.0123826 23.29696,55.0123826 C24.1887067,55.0123826 25.0892267,54.8589913 25.94964,54.5584696 L25.94964,54.5584696 Z M16.37668,49.9141565 C15.7356,49.4928 15.1434,49.0226087 14.5919333,48.4879304 C11.7681733,45.8051478 10.0887067,41.7925565 10.0887067,37.5451826 L10.0887067,27.5190261 L10.0887067,24.3823304 C12.4092533,23.7343304 15.11896,22.3963826 17.30916,18.6680348 C20.5302267,25.2413217 26.97988,29.0754783 36.5371733,30.1122783 L36.5371733,37.5295304 C36.5371733,41.7925565 34.8414133,45.8051478 32.0095067,48.4879304 C31.4586667,49.0226087 30.86584,49.5009391 30.2329067,49.9141565 L26.6797067,52.2406957 C26.5499867,52.3214609 26.4202667,52.4028522 26.28992,52.4754783 C24.2864667,53.5855304 21.8280533,53.5129043 19.90544,52.2406957 L16.37668,49.9141565 Z M8.32025333,29.2777043 L8.32025333,31.0370087 L7.43602667,31.0370087 C6.94910667,31.0370087 6.5518,30.6482087 6.5518,30.161113 C6.5518,29.6752696 6.94910667,29.2777043 7.43602667,29.2777043 L8.32025333,29.2777043 Z M3.02241333,48.6576 L3.02241333,30.161113 L3.02241333,22.5259826 C3.02241333,11.3484522 12.1247467,2.26267826 23.30448,2.26267826 C34.49236,2.26267826 43.5871733,11.3484522 43.5871733,22.5259826 L43.5871733,28.6297043 L43.5871733,48.6576 L34.2811733,48.6576 C36.8210533,45.6993391 38.29748,41.7117913 38.29748,37.5295304 L38.29748,30.2662957 C39.5226133,30.347687 40.796,30.3965217 42.1182667,30.3965217 L42.1182667,28.6297043 C37.3643733,28.6297043 22.8827333,28.6297043 18.2015333,16.3014261 C18.0718133,15.9683478 17.7634933,15.7417043 17.40692,15.7335652 C17.0578667,15.7091478 16.7251067,15.9201391 16.5790933,16.2444522 C14.4051867,20.9945739 11.5331733,22.2423652 9.00206667,22.8421565 C8.60413333,22.9392 8.3284,23.2879304 8.3284,23.7011478 L8.3284,27.5190261 L7.43602667,27.5190261 C5.97526667,27.5190261 4.79086667,28.7023304 4.79086667,30.161113 C4.79086667,31.6198957 5.97526667,32.8038261 7.43602667,32.8038261 L8.3284,32.8038261 L8.3284,37.5451826 C8.3284,41.7280696 9.80482667,45.7074783 12.3359333,48.6576 L3.02241333,48.6576 Z M31.53888,56.8850087 L27.7180933,56.8850087 L27.7180933,53.6669217 L31.1986,51.3898435 C31.6447867,51.098087 32.07468,50.7731478 32.4889067,50.4250435 L45.3556267,50.4250435 L45.3556267,22.5259826 C45.3556267,10.3842783 35.4662,0.503373913 23.30448,0.503373913 C11.1515333,0.503373913 1.26210667,10.3842783 1.26210667,22.5259826 L1.26210667,50.4250435 L14.1213067,50.4250435 C14.5349067,50.7731478 14.9648,51.098087 15.4109867,51.3898435 L18.89964,53.6832 L18.89964,56.8850087 L15.0782267,56.8850087 C6.81124,56.8850087 0.0858533333,63.5960348 0.0858533333,71.8553739 L1.85430667,71.8553739 C1.85430667,64.8688696 7.31445333,59.1301565 14.194,58.6756174 L14.194,61.2857739 C14.194,66.3032348 18.283,70.3884522 23.30448,70.3884522 C28.3347333,70.3884522 32.4155867,66.3032348 32.4155867,61.2857739 L32.4155867,58.6756174 C39.30328,59.1220174 44.7634267,64.8607304 44.7634267,71.8553739 L46.5237333,71.8553739 C46.5237333,63.5960348 39.8064933,56.8850087 31.53888,56.8850087 L31.53888,56.8850087 Z" id="Fill-9" fill="#000000"></path>
            </g>
        </g>
    </g>
</svg>