<?xml version="1.0" encoding="UTF-8"?>
<svg width="61px" height="68px" viewBox="0 0 61 68" version="1.1" xmlns="http://www.w3.org/2000/svg" xmlns:xlink="http://www.w3.org/1999/xlink">
    <!-- Generator: Sketch 57.1 (83088) - https://sketch.com -->
    <title>HombreBaby</title>
    <desc>Created with Sketch.</desc>
    <g id="Facebook" stroke="none" stroke-width="1" fill="none" fill-rule="evenodd">
        <g id="generaciones-copy" transform="translate(-805.000000, -178.000000)">
            <g id="HombreBaby" transform="translate(806.000000, 179.000000)">
                <path d="M0.414356989,66.5799858 L0.414356989,56.481316 C0.414356989,52.0194953 4.44691613,48.4021274 9.42181935,48.4021274 L48.9497548,48.4021274 C53.9240344,48.4021274 57.9553462,52.0194953 57.9553462,56.481316 L57.9553462,66.5799858" id="Stroke-11" stroke="#000000" stroke-width="2.09726991"></path>
                <path d="M28.1846946,63.8850057 L27.2909957,62.8977038 C24.3972323,59.7025623 22.0129957,55.3406094 20.3971032,50.2859019 L19.8825871,48.6772698 L36.4868022,48.6772698 L35.972286,50.2859019 C34.3563935,55.3406094 31.972157,59.7025623 29.0790172,62.8977038 L28.1846946,63.8850057 Z" id="Stroke-12" stroke="#000000" stroke-width="2.09726991"></path>
                <path d="M33.5320452,29.8591189 C33.5320452,31.4993547 32.2198731,32.8286094 30.6021097,32.8286094 C28.9843462,32.8286094 27.6721742,31.4993547 27.6721742,29.8591189 L27.6721742,18.7168925" id="Stroke-13" stroke="#000000" stroke-width="2.09726991"></path>
                <path d="M41.1886065,4.04458774 C41.2671871,4.74239906 41.3201978,5.45158774 41.3201978,6.1791066 L41.3201978,34.2893991 C41.3201978,37.9699745 40.2699613,41.3092292 38.5642624,43.8147764 C36.9402624,40.6556632 32.9064559,38.4149557 28.1747785,38.4149557 C23.4443484,38.4149557 19.4105419,40.6562953 17.7859183,43.8154085 C16.080843,41.3092292 15.0299828,37.9699745 15.0299828,34.2893991 L15.0299828,6.1791066 C15.0299828,5.45158774 15.0836172,4.74176698 15.1621978,4.04395566 C12.3463914,6.61587075 10.5658538,10.3299462 10.5658538,14.4744651 L10.5658538,42.5847575 C10.5658538,50.3466443 16.7743484,56.6395877 24.4334667,56.6395877 L31.9173376,56.6395877 C39.5758323,56.6395877 45.7849505,50.3466443 45.7849505,42.5847575 L45.7849505,14.4744651 C45.7849505,10.3299462 44.0044129,6.61650283 41.1886065,4.04458774" id="Fill-14" fill="#FFCE54"></path>
                <path d="M24.3687935,22.0390179 C22.9799118,23.44665 20.7229011,23.44665 19.3340194,22.0390179 L17.9544925,23.4283198 C19.0290516,24.5180179 20.4447505,25.062867 21.8510946,25.062867 C23.2667935,25.062867 24.6737613,24.5180179 25.7483204,23.4283198 L24.3687935,22.0390179 Z" id="Fill-15" fill="#000000"></path>
                <path d="M37.0166602,22.0390179 C35.6277785,23.44665 33.3701441,23.44665 31.981886,22.0390179 L30.6023591,23.4283198 C31.6769183,24.5180179 33.0926172,25.062867 34.4989613,25.062867 C35.9146602,25.062867 37.3210043,24.5180179 38.3961871,23.4283198 L37.0166602,22.0390179 Z" id="Fill-16" fill="#000000"></path>
                <path d="M45.7850129,42.5845679 C45.7850129,50.3464547 39.5758946,56.6393981 31.9174,56.6393981 L24.433529,56.6393981 C16.7737871,56.6393981 10.5659161,50.3464547 10.5659161,42.5845679 L10.5659161,14.4742755 C10.5659161,6.71238868 16.7737871,0.420077358 24.433529,0.420077358 L31.9174,0.420077358 C39.5758946,0.420077358 45.7850129,6.71238868 45.7850129,14.4742755 L45.7850129,42.5845679 Z" id="Stroke-17" stroke="#000000" stroke-width="2.09726991"></path>
                <path d="M22.8187591,44.4573443 L22.8187591,44.8599764 C22.8187591,47.0798255 24.5961785,48.8812406 26.7877054,48.8812406 L29.5648452,48.8812406 C31.756372,48.8812406 33.5319204,47.0798255 33.5319204,44.8599764 L33.5319204,44.4573443 L22.8187591,44.4573443 Z" id="Fill-18" fill="#000000"></path>
                <path d="M10.5657914,32.7182491 L9.19000645,32.7182491 C7.94893118,32.7182491 6.93923226,31.0697962 6.93923226,29.0439943 L6.93923226,23.3281358 C6.93923226,21.3017019 7.94893118,19.6532491 9.19000645,19.6532491 L10.5657914,19.6532491 L10.5657914,32.7182491 Z" id="Stroke-19" stroke="#000000" stroke-width="2.09726991"></path>
                <path d="M45.6854774,20.2329255 L47.0612624,20.2101708 C48.301714,20.1899443 49.3376065,21.8213311 49.3706602,23.847133 L49.4623376,29.5623594 C49.4941441,31.5881613 48.5112624,33.2530481 47.2701871,33.2732745 L45.8950258,33.2960292 L45.6854774,20.2329255 Z" id="Stroke-20" stroke="#000000" stroke-width="2.09726991"></path>
                <path d="M14.9076839,7.81852075 C14.8584151,8.76979434 14.8683935,9.79186038 14.8683935,10.3904358 L15.0897914,35.7828038 C15.0897914,38.1910113 16.8690817,41.8090113 17.7858559,43.8152189 C20.1208237,41.2559453 23.000243,37.9230113 28.1846946,38.046266 C33.5319204,38.1739453 36.2292323,41.2559453 38.5642,43.8145868 C39.4815978,41.8090113 41.2902,37.7239075 41.2902,35.3157 L41.5901785,9.96694528 C41.5901785,9.36900189 41.5515118,8.7451434 41.4679419,8.00308679 L41.0226516,4.04376604 L42.9584796,5.79840755 C45.1175763,8.82288868 45.7848882,11.8751811 45.7848882,16.2611528 L45.6857269,43.8253321 C45.6857269,49.1549925 40.3846516,56.6393981 31.9172753,56.6393981 L24.4334043,56.6393981 C18.7020065,56.6393981 10.5657914,51.2926717 10.6075763,43.6281245 L10.5657914,15.2732189 C10.5657914,10.8866151 12.1417699,7.21488868 15.1621355,4.04376604 L14.9076839,7.81852075 Z" id="Stroke-21" stroke="#000000" stroke-width="2.09726991"></path>
            </g>
        </g>
    </g>
</svg>