<?xml version="1.0" encoding="UTF-8"?>
<svg width="52px" height="82px" viewBox="0 0 52 82" version="1.1" xmlns="http://www.w3.org/2000/svg" xmlns:xlink="http://www.w3.org/1999/xlink">
    <!-- Generator: Sketch 57.1 (83088) - https://sketch.com -->
    <title>MujerSilent Copy</title>
    <desc>Created with Sketch.</desc>
    <g id="Facebook" stroke="none" stroke-width="1" fill="none" fill-rule="evenodd">
        <g id="generaciones-copy" transform="translate(-1027.000000, -429.000000)">
            <g id="MujerSilent-Copy" transform="translate(1027.000000, 429.000000)">
                <path d="M28.6155307,61.6546085 L28.6155307,69.1859932 C28.6155307,70.8189846 27.3051307,72.1436 25.6889707,72.1436 C24.0825173,72.1436 22.763104,70.8189846 22.763104,69.1859932 L22.763104,61.6546085 C23.705344,61.9994291 24.6926507,62.1634291 25.6806507,62.1634291 C26.667264,62.1634291 27.663584,61.9903179 28.6155307,61.6546085 M20.8155307,60.6755145 L20.8155307,63.9029504 L16.587584,64.2589846 C7.07713067,64.9542325 0.000277333333,71.772147 0.000277333333,81.0171214 L1.956864,81.0171214 C1.956864,73.1962838 7.85713067,65.8303009 20.880704,66.0741983 L21.030464,70.2982496 C20.986784,72.9706085 24.626784,74.1431385 25.6889707,74.1123009 C31.2522773,73.9511043 30.642144,74.7360615 30.642144,69.119412 L30.642144,66.1618051 C43.2171307,65.4364205 49.430784,73.1871726 49.430784,81.0171214 L51.3783573,81.0171214 C51.3783573,71.772147 43.9465173,64.2589846 34.7993707,64.2589846 L30.5721173,64.2589846 L30.5721173,60.6565915" id="Fill-1" fill="#000000"></path>
                <path d="M31.403424,44.0360325 C29.9113707,44.0339299 28.5968107,43.0443231 28.1683307,41.5991607 L34.637824,41.5991607 C34.209344,43.0443231 32.8954773,44.0339299 31.403424,44.0360325 L31.403424,44.0360325 Z M19.591104,44.0360325 C18.099744,44.0339299 16.785184,43.0443231 16.356704,41.5991607 L22.825504,41.5991607 C22.3977173,43.0443231 21.0831573,44.0339299 19.591104,44.0360325 L19.591104,44.0360325 Z M35.742304,39.6493829 L32.6604373,39.6493829 C32.7831573,39.4342205 32.8476373,39.1896222 32.8497173,38.9401179 C32.8497173,38.1327333 32.202144,37.4788359 31.403424,37.4788359 C30.604704,37.4788359 29.9571307,38.1327333 29.9571307,38.9401179 C29.9585173,39.1896222 30.0236907,39.4342205 30.1457173,39.6493829 L20.8488107,39.6493829 C20.9715307,39.4342205 21.0360107,39.1896222 21.0373973,38.9401179 C21.0373973,38.1327333 20.3905173,37.4788359 19.591104,37.4788359 C18.7930773,37.4788359 18.1448107,38.1327333 18.1448107,38.9401179 C18.1461973,39.1896222 18.212064,39.4342205 18.3340907,39.6493829 L15.252224,39.6493829 C14.7204373,39.6493829 14.2884907,40.0853145 14.2877972,40.6235709 L14.2877972,40.6249726 C14.287104,43.5839812 16.6596907,45.9837077 19.5876373,45.9844085 C22.1446507,45.9858103 24.3383573,44.1411607 24.8021973,41.5991607 L26.1923307,41.5991607 C26.723424,44.5098103 29.4884373,46.4336564 32.3678507,45.8954 C34.8825707,45.4265282 36.707424,43.2090239 36.7067309,40.6249726 C36.7067309,40.0867162 36.2754773,39.6500838 35.7436907,39.6493829 L35.742304,39.6493829 Z" id="Fill-15" fill="#000000"></path>
                <path d="M42.91144,44.8532991 C43.45016,43.0051453 43.8710133,41.125453 44.17192,39.2233333 C44.25304,38.7131111 43.92648,38.2281197 43.4279733,38.1173846 C38.6405067,37.0604957 34.9727733,33.161641 34.1692,28.2759829 C34.0804533,27.744735 33.58264,27.3872991 33.0577867,27.4770085 C32.8594933,27.5113504 32.6771467,27.6066667 32.5357067,27.7503419 C28.9497867,31.3877778 23.1049867,33.5597265 16.8996533,33.5597265 C13.90168,33.5737436 10.9252,33.0523077 8.10749333,32.0192479 C7.6076,31.8342222 7.05362667,32.0935385 6.87058667,32.5995556 C6.8276,32.7172991 6.80749333,32.8413504 6.81165333,32.9668034 C6.93437333,37.1901538 7.61730667,41.3777607 8.84242667,45.4167863 C5.04157333,42.7710598 2.76813333,38.4082393 2.75773333,33.7426496 C2.75704,21.0480684 12.9379467,10.7574188 25.4969867,10.7567179 C38.0553333,10.7567179 48.2369333,21.0473675 48.2369333,33.7419487 L48.2369333,33.7426496 C48.23624,38.0746325 46.2741067,42.1683248 42.91144,44.8532991 M25.7881867,60.5860855 C17.0168267,60.5860855 9.70978667,49.156547 8.80498667,34.3124444 C11.4292533,35.1149231 14.15752,35.5186154 16.89896,35.5088034 C22.9358133,35.5088034 28.6884,33.5751453 32.6508,30.2748205 C33.9910133,34.8738291 37.5623733,38.462906 42.1196533,39.7903248 C39.9280267,52.0812137 33.2865867,60.5860855 25.7881867,60.5860855 M25.4969867,2.10459526 C31.10952,2.08504274 35.9378933,6.11215385 36.9848267,11.6860513 C29.7963467,7.84747009 21.1969333,7.84747009 14.0091467,11.6860513 C15.05608,6.11215385 19.8851467,2.08504274 25.4969867,2.10459526 M50.1650934,33.7426496 C50.1616267,25.3695385 46.00024,17.557812 39.08632,12.946188 C38.5503733,5.3594359 32.0323467,-0.351128205 24.5277067,0.189931624 C17.7677067,0.677726496 12.3909067,6.11355556 11.9083467,12.946188 C4.99442667,17.557812 0.83304,25.3695385 0.829573333,33.7426496 C0.84136,39.9199829 4.33506667,45.5492479 9.83112,48.2489402 C13.2270667,56.8701538 19.1238667,62.5351624 25.7881867,62.5351624 C32.46776,62.5351624 38.49768,56.8077778 41.90056,47.8704786 C46.99864,45.0383248 50.1657867,39.6235214 50.1650934,33.7426496" id="Fill-16" fill="#000000"></path>
                <path d="M32.2199627,49.9323932 C31.9322293,49.479641 31.3359627,49.3478803 30.8880693,49.638735 C30.4394827,49.9288889 30.309136,50.5316239 30.5968693,50.9850769 C30.6072693,51.0018974 30.6183627,51.0187179 30.6308427,51.0348376 L30.953936,51.5121197 L30.8901493,51.5156239 C29.9735627,51.3866667 29.127696,52.0328547 28.9994293,52.9593846 C28.982096,53.087641 28.9793227,53.2172991 28.990416,53.3462564 C28.5404427,53.1850598 28.0474827,53.1927692 27.6023627,53.3686838 C27.2002293,53.5971624 26.8903093,53.9602051 26.7259893,54.3961368 C26.086736,53.7156068 25.023856,53.6882735 24.3513227,54.3344615 C24.3305227,54.3554872 24.3097227,54.375812 24.289616,54.3968376 C24.0226827,53.5081538 23.0929227,53.0063419 22.2130827,53.2761709 C22.149296,53.2957949 22.086896,53.3189231 22.0258827,53.3462564 C22.109776,52.4148205 21.4303093,51.5906154 20.5088693,51.5065128 C20.3819893,51.4945983 20.2537227,51.4974017 20.1268427,51.5156239 L20.0769227,51.5128205 L20.3868427,51.0565641 C20.701616,50.622735 20.608016,50.0122906 20.1788427,49.6948034 C19.748976,49.3766154 19.145776,49.4705299 18.8310027,49.9050598 C18.819216,49.9204786 18.8081227,49.938 18.7970293,49.9541197 L16.895216,52.7568376 C16.5783627,53.189265 16.6678027,53.8004103 17.0955893,54.1214017 C17.523376,54.4416923 18.1272693,54.3512821 18.444816,53.9181538 C18.4586827,53.8992308 18.4725493,53.878906 18.4850293,53.8592821 L18.921136,53.2165983 C19.2657227,53.3735897 19.638736,53.4569915 20.017296,53.4618974 C20.0436427,53.4625983 20.0720693,53.4647009 20.1018827,53.4668034 C20.104656,53.5067521 20.1074293,53.5452991 20.110896,53.579641 C20.0769227,54.163453 20.3091893,54.7304444 20.741136,55.1187179 C21.2562827,55.4235897 21.8816693,55.4719487 22.4377227,55.2511795 L22.544496,55.2238462 C22.5646027,55.2651966 22.5833227,55.306547 22.5999627,55.3415897 C22.781616,55.9155897 23.2198027,56.3704444 23.7827893,56.5687863 C24.379056,56.652188 24.9787893,56.4412308 25.394096,56.001094 C25.4280693,55.9730598 25.4682827,55.9408205 25.508496,55.9085812 C25.5494027,55.9408205 25.589616,55.9730598 25.6242827,56.001094 C25.9792693,56.3466154 26.4396427,56.5596752 26.9298293,56.6052308 C27.0324427,56.6052308 27.135056,56.5933162 27.234896,56.5694872 C27.7971893,56.3711453 28.2339893,55.9169915 28.416336,55.3443932 C28.4322827,55.3079487 28.4523893,55.2665983 28.4718027,55.2252479 C28.5106293,55.234359 28.547376,55.2448718 28.5799627,55.2525812 C29.136016,55.4740513 29.7627893,55.4242906 30.2772427,55.1173162 C30.708496,54.7297436 30.9407627,54.163453 30.9067893,53.5803419 C30.910256,53.546 30.9130293,53.507453 30.9158027,53.4675043 C30.9463093,53.4654017 30.9740427,53.4632991 31.0003893,53.4625983 C31.3831093,53.4583932 31.7602827,53.3728889 32.1076427,53.2116923 L32.5479093,53.8599829 C32.863376,54.2931111 33.466576,54.3856239 33.8957493,54.066735 C34.304816,53.763265 34.410896,53.1899658 34.1370293,52.7568376 L32.2199627,49.9323932 Z" id="Fill-17" fill="#000000"></path>
                <g id="Group-21" transform="translate(11.786667, 64.974838)">
                    <path d="M19.190496,0.252517949 L17.212416,0.27354359 L17.212416,4.62234701 C17.212416,6.43405641 15.7266027,7.90304786 13.8941227,7.90304786 C12.0713493,7.90304786 10.575136,6.43405641 10.575136,4.62234701 L10.575136,0.21537265 L8.07012267,0.193646154 L2.305056,0.951270085 C1.165216,1.10055214 0.365109333,2.13571453 0.516256,3.26128718 C0.667402667,4.38685983 1.71364267,5.17882564 2.85278933,5.02884274 L6.53716267,4.54525299 L2.798016,5.97499658 C1.72612267,6.38499658 1.19294933,7.57644957 1.608256,8.63614188 C2.022176,9.69583419 3.22718933,10.2228769 4.29908267,9.81287692 L8.38004267,8.2520735 L6.07332267,11.7381248 C5.443776,12.6884838 5.714176,13.9633385 6.675136,14.5856974 C7.63678933,15.2080564 8.92638933,14.9410308 9.555936,13.9906718 L12.0886827,10.1633043 L12.0886827,14.370535 C12.0886827,15.5066205 13.0198293,16.4275436 14.169376,16.4275436 C15.3189227,16.4275436 16.2500693,15.5066205 16.2500693,14.370535 L16.2500693,11.264347 L18.4888427,13.9829624 C19.2147627,14.8646376 20.5251627,14.9963983 21.416096,14.2794239 C22.3077227,13.5617487 22.441536,12.2665692 21.7163093,11.3855949 L19.429696,8.60880855 L23.4454827,9.57668889 C24.5624427,9.84581709 25.6877227,9.16879145 25.9602027,8.06424444 C26.2319893,6.96039829 25.546976,5.84744103 24.4314027,5.57901368 L19.8110293,4.46605641 L24.4868693,5.00361197 C25.628096,5.13537265 26.6604693,4.32658632 26.7935893,3.19821026 C26.9267093,2.06983419 26.1092693,1.04868889 24.9680427,0.916928205 L19.190496,0.252517949" id="Fill-19" fill="#FFCE54"></path>
                    <path d="M19.190496,0.252517949 L17.212416,0.27354359 L17.212416,4.62234701 C17.212416,6.43405641 15.7266027,7.90304786 13.8941227,7.90304786 C12.0713493,7.90304786 10.575136,6.43405641 10.575136,4.62234701 L10.575136,0.21537265 L8.07012267,0.193646154 L2.305056,0.951270085 C1.165216,1.10055214 0.365109333,2.13571453 0.516256,3.26128718 C0.667402667,4.38685983 1.71364267,5.17882564 2.85278933,5.02884274 L6.53716267,4.54525299 L2.798016,5.97499658 C1.72612267,6.38499658 1.19294933,7.57644957 1.608256,8.63614188 C2.022176,9.69583419 3.22718933,10.2228769 4.29908267,9.81287692 L8.38004267,8.2520735 L6.07332267,11.7381248 C5.443776,12.6884838 5.714176,13.9633385 6.675136,14.5856974 C7.63678933,15.2080564 8.92638933,14.9410308 9.555936,13.9906718 L12.0886827,10.1633043 L12.0886827,14.370535 C12.0886827,15.5066205 13.0198293,16.4275436 14.169376,16.4275436 C15.3189227,16.4275436 16.2500693,15.5066205 16.2500693,14.370535 L16.2500693,11.264347 L18.4888427,13.9829624 C19.2147627,14.8646376 20.5251627,14.9963983 21.416096,14.2794239 C22.3077227,13.5617487 22.441536,12.2665692 21.7163093,11.3855949 L19.429696,8.60880855 L23.4454827,9.57668889 C24.5624427,9.84581709 25.6877227,9.16879145 25.9602027,8.06424444 C26.2319893,6.96039829 25.546976,5.84744103 24.4314027,5.57901368 L19.8110293,4.46605641 L24.4868693,5.00361197 C25.628096,5.13537265 26.6604693,4.32658632 26.7935893,3.19821026 C26.9267093,2.06983419 26.1092693,1.04868889 24.9680427,0.916928205 L19.190496,0.252517949" id="Stroke-20" stroke="#020000" stroke-width="0.785399987"></path>
                </g>
                <path d="M37.1766027,11.685841 C36.1303627,6.11194359 31.301296,2.08483248 25.689456,2.104385 C20.0769227,2.08483248 15.247856,6.11194359 14.201616,11.685841 C21.3887093,7.84725983 29.988816,7.84725983 37.1766027,11.685841" id="Fill-22" fill="#CCD0D9"></path>
                <path d="M25.688832,10.7564376 C13.129792,10.7571385 2.94957867,21.0484889 2.94957867,33.7430701 C2.95997867,38.407959 5.234112,42.7714803 9.034272,45.416506 C7.809152,41.3774803 7.12621867,37.1905744 7.00349867,32.9665231 C6.99933867,32.8417709 7.01944533,32.7170188 7.06173867,32.5992752 C7.245472,32.0932581 7.79944533,31.8339419 8.29933867,32.0196684 C11.1170453,33.0520274 14.0935253,33.5741641 17.0914987,33.5594462 C23.296832,33.5594462 29.141632,31.3874974 32.7268587,27.7500615 C32.868992,27.6063863 33.0513387,27.5110701 33.249632,27.4767282 C33.7744853,27.3870188 34.2722987,27.7451556 34.3610453,28.2757026 C35.1646187,33.1620615 38.832352,37.0602154 43.6198187,38.1171043 C44.1190187,38.2285402 44.4448853,38.7135316 44.3637653,39.223053 C44.0628587,41.1251726 43.6420053,43.0055658 43.1032853,44.8530188 C46.465952,42.1680444 48.4280853,38.075053 48.4287787,33.7430701 L48.4287787,33.7423692 C48.4280853,21.047788 38.2471787,10.7564376 25.688832,10.7564376" id="Fill-23" fill="#CCD0D9"></path>
            </g>
        </g>
    </g>
</svg>