<?xml version="1.0" encoding="UTF-8"?>
<svg width="52px" height="80px" viewBox="0 0 52 80" version="1.1" xmlns="http://www.w3.org/2000/svg" xmlns:xlink="http://www.w3.org/1999/xlink">
    <!-- Generator: Sketch 57.1 (83088) - https://sketch.com -->
    <title>HombreSilent</title>
    <desc>Created with Sketch.</desc>
    <g id="Facebook" stroke="none" stroke-width="1" fill="none" fill-rule="evenodd">
        <g id="generaciones-copy" transform="translate(-1027.000000, -166.000000)">
            <g id="HombreSilent" transform="translate(1027.000000, 166.000000)">
                <path d="M24.7929067,76.0042105 L26.74048,76.0042105 L26.74048,73.3789474 L24.7929067,73.3789474 L24.7929067,76.0042105 Z M49.4859733,76.0322807 L49.4859733,79.9838596 L2.01205333,79.9838596 L2.01205333,76.0322807 C2.01205333,70.0449123 6.82309333,65.1663158 12.7476267,65.1663158 L17.1274133,65.1663158 L18.28528,74.9691228 C18.3303467,75.3235088 18.5549867,75.6231579 18.8690667,75.7592982 C18.99456,75.8140351 19.1290667,75.8414035 19.25456,75.8414035 C19.4611733,75.8414035 19.6677867,75.7775439 19.8383467,75.6505263 L25.7621867,71.1894737 L31.6777067,75.6505263 C31.8482667,75.7775439 32.05488,75.8414035 32.2608,75.8414035 C32.3869867,75.8414035 32.5214933,75.8140351 32.6469867,75.7592982 C32.97008,75.6231579 33.1857067,75.3235088 33.2307733,74.9691228 L34.38864,65.1663158 L38.7594133,65.1663158 C44.6749333,65.1663158 49.4859733,70.0449123 49.4859733,76.0322807 L49.4859733,76.0322807 Z" id="Fill-3" fill="#CCD0D9"></path>
                <path d="M40.38424,18.7787368 L40.38424,21.449614 C39.6389067,20.2138246 38.6425867,18.9331228 37.3412,17.8973333 C37.9873867,15.9261053 38.2570933,12.6734737 38.36456,10.2566316 C39.64792,12.7548772 40.38424,15.6713684 40.38424,18.7787368" id="Fill-5" fill="#CCD0D9"></path>
                <path d="M32.4853707,64.6394386 L31.4890507,73.0429474 L27.1626507,69.7720702 L28.8682507,67.6282105 C29.846544,66.3931228 30.4386507,64.9025965 30.5918773,63.3678596 L32.4853707,64.6394386 Z" id="Fill-6" fill="#FFCE54"></path>
                <path d="M22.6656907,67.6280702 L24.3712907,69.7726316 L20.026864,73.042807 L19.030544,64.6308772 L20.9157173,63.3585965 C21.0765707,64.9024561 21.678384,66.3929825 22.6656907,67.6280702" id="Fill-7" fill="#FFCE54"></path>
                <path d="M13.1421333,10.2843509 C13.2502933,12.6920702 13.5102933,15.9348772 14.15648,17.8976842 C12.8641067,18.9243509 11.8768,20.1861053 11.1314667,21.4127719 L11.1314667,18.7790877 C11.1314667,15.6801404 11.8677867,12.7734737 13.1421333,10.2843509" id="Fill-8" fill="#CCD0D9"></path>
                <path d="M24.7929067,76.0049123 L26.74048,76.0049123 L26.74048,73.3796491 L24.7929067,73.3796491 L24.7929067,76.0049123 Z M29.32592,36.8575439 L28.0245333,36.8575439 L28.0245333,27.3185965 L26.0762667,27.3185965 L26.0762667,38.8385965 L27.3783467,38.8385965 L27.3783467,40.8091228 L21.8490133,40.8091228 L21.8490133,42.7901754 L29.32592,42.7901754 L29.32592,36.8575439 Z M31.48912,73.042807 L27.16272,69.7726316 L28.86832,67.6280702 C29.8466133,66.3929825 30.43872,64.9024561 30.5912533,63.3677193 L32.48544,64.6392982 L31.48912,73.042807 Z M24.1827733,66.3929825 C23.3119467,65.2933333 22.83632,63.9396491 22.83632,62.5859649 L22.83632,59.7515789 L28.6887467,59.7515789 L28.6887467,62.5859649 C28.6887467,63.9487719 28.21312,65.2933333 27.3422933,66.3838596 L25.76288,68.3733333 L24.1827733,66.3929825 Z M20.0269333,73.042807 L19.0306133,64.6308772 L20.9150933,63.3585965 C21.07664,64.9024561 21.6784533,66.3929825 22.66576,67.6280702 L24.37136,69.7726316 L20.0269333,73.042807 Z M14.5918933,55.125614 C12.7074133,54.1712281 11.1314667,50.4126316 11.1314667,48.277193 L11.1314667,27.6638596 L11.1314667,26.2189474 C11.39216,25.3375439 12.7205867,21.1950877 15.88912,19.0694737 C16.29264,18.7964912 16.43616,18.2519298 16.2212267,17.8063158 C15.26096,15.8617544 15.0273067,9.79368421 15.0182933,7.38596491 C17.6931733,4.06105263 21.5169067,1.97122807 25.7531733,1.97122807 C29.9901333,1.97122807 33.8048533,4.05122807 36.4797333,7.3677193 C36.47072,9.75719298 36.24608,15.8617544 35.2858133,17.8063158 C35.0618667,18.2519298 35.2053867,18.7964912 35.61792,19.0694737 C38.8675733,21.2680702 40.196,25.5922807 40.3845867,26.2919298 L40.3845867,27.6638596 L40.3845867,37.5754386 L40.3845867,48.2589474 C40.3845867,50.3936842 39.22672,54.6807018 37.3415467,55.634386 L28.4280533,57.7712281 L23.0699733,57.7712281 L14.5918933,55.125614 Z M11.1314667,18.7789474 C11.1314667,15.6807018 11.8677867,12.7733333 13.1421333,10.2835088 C13.2502933,12.6919298 13.5102933,15.9347368 14.15648,17.8975439 C12.8641067,18.9242105 11.8768,20.1866667 11.1314667,21.4133333 L11.1314667,18.7789474 Z M38.3649067,10.2568421 C39.6482667,12.7550877 40.3845867,15.6715789 40.3845867,18.7789474 L40.3845867,21.4491228 C39.6392533,20.2140351 38.6429333,18.9326316 37.3415467,17.8975439 C37.9877333,15.925614 38.2567467,12.6729825 38.3649067,10.2568421 L38.3649067,10.2568421 Z M9.16586667,35.6035088 L8.18757333,35.6035088 C7.65232,35.6035088 7.21829333,35.1642105 7.21829333,34.6224561 L7.21829333,30.6252632 C7.21829333,30.0778947 7.65578667,29.634386 8.19658667,29.634386 L9.16586667,29.634386 L9.16586667,35.6035088 Z M42.3411733,29.634386 L43.3104533,29.634386 C43.8512533,29.634386 44.2887467,30.0778947 44.2887467,30.6252632 L44.2887467,34.6133333 C44.2887467,35.16 43.8512533,35.6035088 43.3104533,35.6035088 L42.3411733,35.6035088 L42.3411733,29.634386 Z M38.7594133,63.1950877 L33.84992,63.1950877 L30.63632,61.0238596 L30.63632,58.8708772 L38.2123733,57.4063158 C40.7610667,56.1164912 42.3411733,51.1487719 42.3411733,48.2589474 L42.3411733,37.5754386 L43.3104533,37.5754386 C44.9266133,37.5754386 46.23632,36.2491228 46.23632,34.6133333 L46.23632,30.6252632 C46.23632,28.9894737 44.9266133,27.6638596 43.3104533,27.6638596 L42.3411733,27.6638596 L42.3411733,25.9101754 L42.3411733,18.7789474 C42.3411733,14.3445614 40.9766933,10.2568421 38.6789867,7.04070175 C35.6539733,2.7522807 30.97744,-5.40012479e-13 25.7531733,-5.40012479e-13 C20.5296,-5.40012479e-13 15.86208,2.7522807 12.8280533,7.04070175 C10.53936,10.2568421 9.17488,14.3445614 9.17488,18.7789474 L9.17488,25.9101754 L9.17488,27.6638596 L8.18757333,27.6638596 C6.58112,27.6638596 5.26101333,28.9894737 5.26101333,30.6252632 L5.26101333,34.6133333 C5.26101333,36.2484211 6.58112,37.5754386 8.18757333,37.5754386 L9.17488,37.5754386 L9.17488,48.277193 C9.17488,51.1663158 11.17168,55.6070175 13.7210667,56.8877193 L20.8797333,58.8792982 L20.8797333,61.0140351 L17.6481067,63.1950877 L12.7476267,63.1950877 C5.74288,63.1950877 0.06448,68.9424561 0.06448,76.0322807 L0.06448,79.9838596 L0.0734933333,79.9838596 L2.01205333,79.9838596 L2.01205333,76.0322807 C2.01205333,70.0449123 6.82309333,65.1663158 12.7476267,65.1663158 L17.1274133,65.1663158 L18.28528,74.9691228 C18.3303467,75.3235088 18.5549867,75.6231579 18.8690667,75.7592982 C18.99456,75.8140351 19.1290667,75.8414035 19.25456,75.8414035 C19.4611733,75.8414035 19.6677867,75.7775439 19.8383467,75.6505263 L25.76288,71.1894737 L31.6777067,75.6505263 C31.8482667,75.7775439 32.05488,75.8414035 32.2614933,75.8414035 C32.3869867,75.8414035 32.5214933,75.8140351 32.6469867,75.7592982 C32.97008,75.6231579 33.1857067,75.3235088 33.2307733,74.9691228 L34.38864,65.1663158 L38.7594133,65.1663158 C44.6839467,65.1663158 49.4859733,70.0266667 49.4859733,76.0231579 L49.4859733,79.9838596 L51.44256,79.9838596 L51.44256,76.0322807 C51.44256,68.9424561 45.76416,63.1950877 38.7594133,63.1950877 L38.7594133,63.1950877 Z" id="Fill-9" fill="#000000"></path>
                <path d="M29.8241493,43.2016842 C29.8241493,43.2016842 32.4851627,54.9392281 39.5190293,53.9034386" id="Stroke-10" stroke="#000000" stroke-width="2.09999996"></path>
                <path d="M21.6168853,42.8884912 C21.6168853,42.8884912 19.7303253,54.7783158 12.6444587,54.217614" id="Stroke-11" stroke="#000000" stroke-width="2.09999996"></path>
                <path d="M18.8973547,15.1123509 C18.8973547,15.1123509 21.5410347,16.7790175 25.7488747,15.1123509 C29.9567147,13.4456842 32.8167147,15.8534035 32.8167147,15.8534035" id="Stroke-12" stroke="#000000" stroke-width="2.09999996"></path>
                <path d="M18.8973547,11.5761404 C18.8973547,11.5761404 21.5410347,13.242807 25.7488747,11.5761404 C29.9567147,9.90947368 32.8167147,12.317193 32.8167147,12.317193" id="Stroke-13" stroke="#000000" stroke-width="2.09999996"></path>
                <path d="M30.5827947,46.3444912 C30.3761813,46.0181754 29.947008,45.9234386 29.6253013,46.1325614 C29.3029013,46.3416842 29.2093013,46.7760702 29.4152213,47.102386 C29.4235413,47.1150175 29.431168,47.1262456 29.4401813,47.1381754 L29.6731413,47.4813333 L29.626688,47.4841404 C28.9680213,47.3915088 28.3592747,47.8567719 28.2677547,48.5234386 C28.2552747,48.6160702 28.2525013,48.7094035 28.2608213,48.8020351 C27.9370347,48.6862456 27.5827413,48.6918596 27.2631147,48.8181754 C26.9733013,48.982386 26.7507413,49.2441404 26.6328747,49.5578246 C26.1731947,49.0687018 25.408448,49.0490526 24.9251947,49.5143158 C24.9099413,49.5283509 24.8953813,49.5437895 24.8808213,49.5585263 C24.688768,48.9185263 24.0203947,48.5571228 23.3873813,48.7522105 C23.3416213,48.7655439 23.297248,48.7830877 23.2528747,48.8020351 C23.3131947,48.1318596 22.825088,47.5381754 22.1622613,47.4778246 C22.0707413,47.4694035 21.978528,47.4715088 21.887008,47.4841404 L21.851648,47.4820351 L22.074208,47.153614 C22.3002347,46.8413333 22.2336747,46.4020351 21.924448,46.1732632 C21.6159147,45.9444912 21.181888,46.0118596 20.9558613,46.3248421 C20.9475413,46.3360702 20.9392213,46.348 20.9315947,46.3599298 L19.563648,48.3781754 C19.3355413,48.6897544 19.4007147,49.1290526 19.7078613,49.3599298 C20.015008,49.590807 20.449728,49.5255439 20.6778347,49.2146667 C20.6882347,49.1999298 20.6979413,49.1858947 20.7069547,49.1711579 L21.0203413,48.7087018 C21.2685547,48.8216842 21.5368747,48.8820351 21.8086613,48.8855439 C21.8273813,48.8862456 21.847488,48.8876491 21.8696747,48.8890526 C21.8717547,48.9178246 21.8731413,48.9458947 21.8752213,48.9704561 C21.851648,49.390807 22.018048,49.7992281 22.3293547,50.0785263 C22.6995947,50.2981754 23.149568,50.3332632 23.5482347,50.1739649 L23.625888,50.1543158 C23.6397547,50.1844912 23.6536213,50.2139649 23.665408,50.2392281 C23.7957547,50.6525614 24.1112213,50.9795789 24.516128,51.1227368 C24.944608,51.1830877 25.3758613,51.030807 25.674688,50.7143158 C25.6989547,50.6939649 25.7280747,50.670807 25.7571947,50.6476491 C25.7863147,50.670807 25.8154347,50.6939649 25.8403947,50.7143158 C26.094848,50.9627368 26.4262613,51.1164211 26.779168,51.1487394 C26.8526613,51.1494035 26.926848,51.1402807 26.9982613,51.1227368 C27.4024747,50.9795789 27.717248,50.6532632 27.848288,50.2406316 C27.8593813,50.2146667 27.8739413,50.185193 27.887808,50.1550175 C27.9155413,50.1620351 27.941888,50.1690526 27.9661547,50.1746667 C28.3655147,50.3346667 28.8161813,50.2988772 29.185728,50.0771228 C29.4963413,49.7985263 29.6634347,49.390807 29.639168,48.9704561 C29.641248,48.9458947 29.643328,48.9178246 29.6447147,48.8890526 C29.6669013,48.8876491 29.687008,48.8862456 29.705728,48.8855439 C29.9809813,48.8827368 30.2520747,48.8216842 30.502368,48.705193 L30.818528,49.1718596 C31.045248,49.4841404 31.4792747,49.550807 31.787808,49.3213333 C32.0824747,49.102386 32.158048,48.6897544 31.9611413,48.3781754 L30.5827947,46.3444912 Z" id="Fill-14" fill="#000000"></path>
                <path d="M32.4959093,31.5233684 C30.9733493,31.5212632 29.6324427,30.5100351 29.1956427,29.0335439 L35.7968693,29.0335439 C35.359376,30.5100351 34.0184693,31.5212632 32.4959093,31.5233684 L32.4959093,31.5233684 Z M20.4430027,31.5233684 C18.9204427,31.5212632 17.5788427,30.5100351 17.1420427,29.0335439 L23.7432693,29.0335439 C23.3064693,30.5100351 21.9655627,31.5212632 20.4430027,31.5233684 L20.4430027,31.5233684 Z M36.923536,27.0419649 L33.7792693,27.0419649 C33.9040693,26.821614 33.969936,26.5710877 33.972016,26.3170526 C33.972016,25.4917895 33.3112693,24.8230175 32.4959093,24.8230175 C31.6805493,24.8230175 31.020496,25.4917895 31.020496,26.3170526 C31.0218827,26.5710877 31.0877493,26.821614 31.2125493,27.0419649 L21.7256693,27.0419649 C21.8504693,26.821614 21.9170293,26.5710877 21.9191093,26.3170526 C21.9191093,25.4917895 21.2583627,24.8230175 20.4430027,24.8230175 C19.6276427,24.8230175 18.966896,25.4917895 18.966896,26.3170526 C18.9682827,26.5710877 19.0348427,26.821614 19.1596427,27.0419649 L16.0146827,27.0419649 C15.4718027,27.0412632 15.0315354,27.4868772 15.0315354,28.0363509 L15.0315354,28.0377544 C15.0301493,31.061614 17.4512693,33.5135439 20.4388427,33.5149474 C23.0485493,33.5156084 25.2866293,31.6307368 25.760176,29.0335439 L27.178736,29.0335439 C27.7209227,32.0068772 30.5427893,33.9724912 33.4804427,33.4237193 C36.0464693,32.9437193 37.9087627,30.6791579 37.9073768,28.0377544 C37.9080693,27.4882807 37.4678027,27.0419649 36.9249227,27.0419649 L36.923536,27.0419649 Z" id="Fill-18" fill="#000000"></path>
            </g>
        </g>
    </g>
</svg>