<?xml version="1.0" encoding="UTF-8"?>
<svg width="52px" height="80px" viewBox="0 0 52 80" version="1.1" xmlns="http://www.w3.org/2000/svg" xmlns:xlink="http://www.w3.org/1999/xlink">
    <!-- Generator: Sketch 57.1 (83088) - https://sketch.com -->
    <title>MujerX Copy</title>
    <desc>Created with Sketch.</desc>
    <defs>
        <polygon id="path-1" points="0.470981333 0.016 51.85856 0.016 51.85856 79.3043478 0.470981333 79.3043478"></polygon>
    </defs>
    <g id="Facebook" stroke="none" stroke-width="1" fill="none" fill-rule="evenodd">
        <g id="generaciones-copy" transform="translate(-590.000000, -431.000000)">
            <g id="MujerX-Copy" transform="translate(590.000000, 431.000000)">
                <path d="M44.7047467,27.4994783 L44.7047467,31.4173913 C44.7047467,32.965913 43.7534933,35.3346087 42.74816,36.3975652 L42.74816,24.888 L40.8005867,24.888 L40.8005867,26.8330435 C37.5058667,26.8601739 34.0863467,26.8775652 30.5766933,23.5641739 C31.8870933,22.3565217 32.8924267,20.9617391 33.5656533,19.4027826 L31.7706133,18.6285217 C31.1244267,20.1234783 30.1544533,21.3666087 28.97856,22.3836522 C23.7820267,26.9325217 14.54544,27.2747826 11.52944,27.256 L11.52944,24.888 L9.58186667,24.888 L9.58186667,36.3975652 C8.57653333,35.3346087 7.62528,32.965913 7.62528,31.4173913 L7.62528,27.4994783 C7.62528,19.1683478 13.11856,12.0991304 20.6578667,9.74017391 C22.39952,9.19895652 24.24864,8.9026087 26.1691733,8.9026087 C30.73824,8.9026087 34.9301333,10.5770435 38.17008,13.3513043 C42.1643733,16.7558261 44.7047467,21.834087 44.7047467,27.4994783" id="Fill-1" fill="#FFCE54"></path>
                <path d="M41.7695893,6.0829913 C41.4284693,7.49725217 40.566656,9.58629565 38.3230293,10.9553391 C36.895456,9.89307826 35.325056,9.01933913 33.646496,8.36125217 L33.646496,7.92090435 C33.646496,7.40681739 33.592416,6.90316522 33.4932693,6.42525217 C36.976576,7.24473043 40.0015893,6.6416 41.7695893,6.0829913" id="Fill-3" fill="#FFCE54"></path>
                <path d="M35.7557547,65.0185043 L35.7557547,67.8644174 C35.7557547,69.0345043 35.5491413,70.1607652 35.1539413,71.1965913 L30.980768,68.6748522 C31.0251413,68.4404174 31.043168,68.1969391 31.043168,67.9548522 L31.043168,65.0185043 L35.7557547,65.0185043 Z" id="Fill-5" fill="#CCD0D9"></path>
                <path d="M30.6931733,74.8438957 L31.99456,73.5472 L30.6127467,72.1600696 L29.3106667,73.4665043 L30.6931733,74.8438957 Z M30.2986667,70.5392 L34.2922667,72.9524174 C32.6053867,75.6543304 29.6164267,77.4463304 26.21424,77.4463304 C20.9449067,77.4463304 16.6635733,73.1506783 16.6635733,67.8644174 L16.6635733,65.0185043 L21.28672,65.0185043 L21.28672,67.9548522 C21.28672,70.6560696 23.4762667,72.8536348 26.1691733,72.8536348 C27.9108267,72.8536348 29.4458667,71.9263304 30.2986667,70.5392 L30.2986667,70.5392 Z" id="Fill-7" fill="#CCD0D9"></path>
                <path d="M31.402384,6.17335652 C31.5639307,6.65961739 31.662384,7.1730087 31.6804107,7.70448696 C29.9304373,7.20013913 28.0813173,6.93926957 26.169104,6.93926957 C24.257584,6.93926957 22.3994507,7.20013913 20.6494773,7.70448696 C20.756944,4.75005217 23.1891573,2.3730087 26.169104,2.3730087 C28.6020107,2.3730087 30.6750773,3.96674783 31.402384,6.17335652" id="Fill-9" fill="#FFCE54"></path>
                <g id="Group-13" transform="translate(0.000000, 0.402783)">
                    <mask id="mask-2" fill="white">
                        <use xlink:href="#path-1"></use>
                    </mask>
                    <g id="Clip-12"></g>
                    <path d="M20.9631413,33.949913 L16.5022347,33.949913 L15.7575947,33.949913 L15.7575947,35.9046957 L20.9631413,35.9046957 L20.9631413,33.949913 Z M21.5559413,32.1488696 L22.9287413,30.7714783 C20.783568,28.6093913 17.2739147,28.6093913 15.119728,30.7714783 L16.5022347,32.1488696 C17.8937547,30.7526957 20.155408,30.7526957 21.5559413,32.1488696 L21.5559413,32.1488696 Z M28.440048,34.9224348 L26.4924747,34.9224348 L26.4924747,43.0824348 L23.566608,43.0824348 L23.566608,45.0372174 L28.440048,45.0372174 L28.440048,34.9224348 Z M30.6933813,74.4410435 L31.994768,73.1443478 L30.6122613,71.7572174 L29.3108747,73.0636522 L30.6933813,74.4410435 Z M34.2113547,47.1617391 L32.8295413,45.7746087 C29.1583413,49.4678261 23.171408,49.4678261 19.500208,45.7746087 L18.1177013,47.1617391 C20.3349813,49.3864348 23.2518347,50.5029565 26.1693813,50.5029565 C29.0779147,50.5029565 31.994768,49.3864348 34.2113547,47.1617391 L34.2113547,47.1617391 Z M31.366608,33.949913 L31.366608,35.9046957 L36.572848,35.9046957 L36.572848,33.949913 L35.8275147,33.949913 L31.366608,33.949913 Z M35.8275147,32.1488696 L37.2100213,30.7714783 C35.0558347,28.6093913 31.5461813,28.6093913 29.401008,30.7714783 L30.773808,32.1488696 C32.1743413,30.7526957 34.4359947,30.7526957 35.8275147,32.1488696 L35.8275147,32.1488696 Z M35.755408,67.4615652 C35.755408,68.6316522 35.549488,69.757913 35.154288,70.7937391 L30.9804213,68.272 C31.025488,68.0375652 31.0435147,67.794087 31.0435147,67.552 L31.0435147,64.6156522 L35.755408,64.6156522 L35.755408,67.4615652 Z M26.214448,77.0434783 C20.9451147,77.0434783 16.6637813,72.7478261 16.6637813,67.4615652 L16.6637813,64.6156522 L21.2862347,64.6156522 L21.2862347,67.552 C21.2862347,70.253913 23.4764747,72.4507826 26.1693813,72.4507826 C27.9110347,72.4507826 29.4453813,71.5234783 30.2981813,70.1363478 L34.2924747,72.5495652 C32.6055947,75.2514783 29.6159413,77.0434783 26.214448,77.0434783 L26.214448,77.0434783 Z M29.095248,59.3648696 L29.095248,67.552 C29.095248,69.1728696 27.7758347,70.4869565 26.1693813,70.4869565 C24.5539147,70.4869565 23.233808,69.1728696 23.233808,67.552 L23.233808,59.3648696 C24.2037813,59.5547826 25.191088,59.6445217 26.1693813,59.6445217 C27.1476747,59.6445217 28.125968,59.5547826 29.095248,59.3648696 L29.095248,59.3648696 Z M19.1410613,55.7808696 L16.1881547,54.0605217 C13.3156747,52.3763478 11.529648,49.2605217 11.529648,45.9193043 L11.529648,28.8076522 C11.6371147,28.8166957 11.754288,28.8166957 11.8797813,28.8166957 C13.6207413,28.8166957 16.7268747,28.690087 20.1193547,27.9972174 C23.7364747,27.2591304 26.7434613,26.0431304 29.0508747,24.3951304 C32.874608,28.1231304 36.7427147,28.3937391 40.0103947,28.3937391 L40.8001013,28.3937391 L40.8001013,45.9193043 C40.8001013,49.2605217 39.0140747,52.3763478 36.1415947,54.0605217 L33.188688,55.7808696 C31.8692747,56.5551304 30.459728,57.0866087 29.005808,57.3926957 C27.129648,57.7801739 25.2001013,57.7801739 23.3239413,57.3926957 C21.8700213,57.0866087 20.4514613,56.5551304 19.1410613,55.7808696 L19.1410613,55.7808696 Z M9.58138133,35.9944348 C8.57674133,34.9314783 7.62479467,32.5634783 7.62479467,31.0142609 L7.62479467,27.0963478 C7.62479467,18.765913 13.1180747,11.6966957 20.6580747,9.33704348 C22.399728,8.79652174 24.248848,8.49947826 26.1693813,8.49947826 C30.738448,8.49947826 34.9303413,10.173913 38.170288,12.9488696 C42.1645813,16.3526957 44.7049547,21.4316522 44.7049547,27.0963478 L44.7049547,31.0142609 C44.7049547,32.5634783 43.7537013,34.9314783 42.7476747,35.9944348 L42.7476747,24.4855652 L40.8001013,24.4855652 L40.8001013,26.429913 C37.5060747,26.4570435 34.0858613,26.4751304 30.5769013,23.1610435 C31.8873013,21.954087 32.8926347,20.557913 33.5658613,19.0003478 L31.770128,18.2253913 C31.1239413,19.7210435 30.1546613,20.9634783 28.978768,21.9812174 C23.7815413,26.5293913 14.545648,26.8709565 11.529648,26.8535652 L11.529648,24.4855652 L9.58138133,24.4855652 L9.58138133,35.9944348 Z M9.58138133,40.4702609 L8.603088,40.4702609 C8.064368,40.4702609 7.62479467,40.0292174 7.62479467,39.4984348 C7.62479467,38.9572174 8.064368,38.5161739 8.603088,38.5161739 L9.58138133,38.5161739 L9.58138133,40.4702609 Z M26.1693813,1.97008696 C28.6015947,1.97008696 30.6753547,3.56382609 31.4026613,5.77043478 C31.564208,6.25669565 31.6626613,6.77008696 31.680688,7.30156522 C29.9307147,6.79721739 28.0815947,6.53634783 26.1693813,6.53634783 C24.257168,6.53634783 22.399728,6.79721739 20.6490613,7.30156522 C20.756528,4.34713043 23.1894347,1.97008696 26.1693813,1.97008696 L26.1693813,1.97008696 Z M41.7693813,5.68 C41.4282613,7.09495652 40.566448,9.18330435 38.3228213,10.5523478 C36.895248,9.49008696 35.324848,8.61634783 33.646288,7.95895652 L33.646288,7.51791304 C33.646288,7.00452174 33.592208,6.50017391 33.4937547,6.02226087 C36.976368,6.84173913 40.0013813,6.2386087 41.7693813,5.68 L41.7693813,5.68 Z M44.7049547,39.4984348 C44.7049547,40.0292174 44.264688,40.4702609 43.7266613,40.4702609 L42.7476747,40.4702609 L42.7476747,38.5161739 L43.7266613,38.5161739 C44.264688,38.5161739 44.7049547,38.9572174 44.7049547,39.4984348 L44.7049547,39.4984348 Z M39.1756213,62.6608696 L37.712688,62.6608696 L31.0435147,62.6608696 L31.0435147,58.8695652 C32.1202613,58.5273043 33.1706613,58.0591304 34.1669813,57.4733913 L37.119888,55.7446957 C40.593488,53.7182609 42.7476747,49.954087 42.7476747,45.9193043 L42.7476747,42.4333913 L43.7266613,42.4333913 C45.342128,42.4333913 46.652528,41.1102609 46.652528,39.4984348 C46.652528,38.210087 45.826768,37.101913 44.6689013,36.7151304 C45.943248,34.9947826 46.652528,32.4368696 46.652528,31.0142609 L46.652528,27.0963478 C46.652528,21.0629565 44.0490613,15.6229565 39.9119413,11.8490435 C43.8785013,9.03095652 43.9325813,4.38330435 43.9325813,4.16695652 C43.9325813,3.82469565 43.7537013,3.50956522 43.465968,3.33913043 C43.178928,3.15826087 42.810768,3.14086957 42.5140213,3.29391304 C42.469648,3.32104348 37.8922613,5.58191304 32.622928,3.7266087 C31.3215413,1.51026087 28.916368,0.016 26.1693813,0.016 C22.0405813,0.016 18.6834613,3.38434783 18.6834613,7.51791304 L18.6834613,7.96730435 C11.0713547,10.957913 5.67722133,18.4055652 5.67722133,27.0963478 L5.67722133,31.0142609 C5.67722133,32.4368696 6.38650133,34.9947826 7.660848,36.7151304 C6.50298133,37.101913 5.67722133,38.210087 5.67722133,39.4984348 C5.67722133,41.1102609 6.98762133,42.4333913 8.603088,42.4333913 L9.58138133,42.4333913 L9.58138133,45.9193043 C9.58138133,49.954087 11.735568,53.7182609 15.2098613,55.7446957 L18.162768,57.4733913 C19.159088,58.0591304 20.209488,58.5273043 21.2862347,58.8695652 L21.2862347,62.6608696 L16.6637813,62.6608696 L13.154128,62.6608696 C6.16186133,62.6608696 0.470981333,68.3707826 0.470981333,75.3864348 L0.470981333,79.3043478 L2.42826133,79.3043478 L2.42826133,75.3864348 C2.42826133,69.4518261 7.23930133,64.6156522 13.154128,64.6156522 L14.7071947,64.6156522 L14.7071947,67.4615652 C14.7071947,73.8288696 19.868368,78.9982609 26.214448,78.9982609 C32.5515147,78.9982609 37.712688,73.8288696 37.712688,67.4615652 L37.712688,64.6156522 L39.1756213,64.6156522 C45.090448,64.6156522 49.901488,69.4518261 49.901488,75.3864348 L49.901488,79.3043478 L51.858768,79.3043478 L51.858768,75.3864348 C51.858768,68.3707826 46.167888,62.6608696 39.1756213,62.6608696 L39.1756213,62.6608696 Z" id="Fill-11" fill="#000000" mask="url(#mask-2)"></path>
                </g>
            </g>
        </g>
    </g>
</svg>