<?xml version="1.0" encoding="UTF-8"?>
<svg width="52px" height="80px" viewBox="0 0 52 80" version="1.1" xmlns="http://www.w3.org/2000/svg" xmlns:xlink="http://www.w3.org/1999/xlink">
    <!-- Generator: Sketch 57.1 (83088) - https://sketch.com -->
    <title>HombreX</title>
    <desc>Created with Sketch.</desc>
    <g id="Facebook" stroke="none" stroke-width="1" fill="none" fill-rule="evenodd">
        <g id="generaciones-copy" transform="translate(-590.000000, -166.000000)">
            <g id="HombreX" transform="translate(590.000000, 166.000000)">
                <path d="M49.421632,79.9838609 L1.947712,79.9838609 C1.947712,73.0948174 6.69565867,67.303513 13.077792,65.7181217 C13.7780587,72.0770783 19.163872,77.0391652 25.6895253,77.0391652 C32.2144853,77.0391652 37.6002987,72.0770783 38.3005653,65.7181217 C44.6826987,67.303513 49.421632,73.1031652 49.421632,79.9838609" id="Fill-14" fill="#FFCE54"></path>
                <path d="M44.2246827,17.1944348 L44.2246827,26.3353043 C44.2246827,28.3255652 43.524416,30.2803478 42.276416,31.8198261 L42.276416,29.0824348 L42.268096,29.0824348 L42.268096,27.7766957 C42.268096,24.354087 39.5030827,21.5714783 36.092576,21.5714783 L24.3877227,21.5714783 C19.899776,21.5714783 16.255616,17.9144348 16.255616,13.4205217 L16.255616,10.5391304 C16.255616,6.18921739 19.783296,2.64973913 24.118016,2.64973913 L29.7284693,2.64973913 C37.717056,2.64973913 44.2246827,9.17913043 44.2246827,17.1944348" id="Fill-16" fill="#FFCE54"></path>
                <path d="M34.790912,65.2949565 C35.3206187,65.2949565 35.841312,65.322087 36.3620053,65.3763478 C35.8316053,70.8163478 31.2542187,75.0848696 25.6895253,75.0848696 C20.1241387,75.0848696 15.5370453,70.8163478 15.008032,65.3763478 C15.519712,65.322087 16.0487253,65.2949565 16.578432,65.2949565 L17.063072,65.2949565 C17.5213653,69.6629565 21.218912,73.0765217 25.6895253,73.0765217 C30.1594453,73.0765217 33.856992,69.6629565 34.3242987,65.2949565 L34.790912,65.2949565 Z" id="Fill-18" fill="#CCD0D9"></path>
                <path d="M33.731568,46.3737739 L30.5630347,46.3737739 L30.5630347,43.4645565 L28.6154613,43.4645565 L28.6154613,46.3737739 L26.6581813,46.3737739 L26.6581813,43.4645565 L24.710608,43.4645565 L24.710608,46.3737739 L22.7630347,46.3737739 L22.7630347,43.4374261 L20.806448,43.4374261 L20.806448,46.3737739 L17.646928,46.3737739 C18.104528,43.779687 20.3661813,41.8082087 23.086128,41.8082087 L28.292368,41.8082087 C31.002608,41.8082087 33.2649547,43.779687 33.731568,46.3737739" id="Fill-20" fill="#FFCE54"></path>
                <path d="M14.864304,7.26984348 C14.5051573,8.28758261 14.3075573,9.39506087 14.3075573,10.538713 L14.3075573,13.4208 L14.3075573,22.5533217 C14.3075573,25.614887 11.821264,28.1004522 8.778224,28.1004522 L8.778224,30.0552348 C8.886384,30.0552348 9.002864,30.0552348 9.11033067,30.0454957 L9.11033067,31.8924522 C7.84499733,30.3334957 7.153744,28.4155826 7.153744,26.3710609 L7.153744,16.0232348 C7.153744,11.5202783 10.5198773,7.80132174 14.864304,7.26984348" id="Fill-22" fill="#FFCE54"></path>
                <path d="M15.6090133,31.693913 L17.5565867,31.693913 L17.5565867,29.0824348 L15.6090133,29.0824348 L15.6090133,31.693913 Z M21.7852267,52.2455652 L29.59424,52.2455652 L29.59424,50.2914783 L21.7852267,50.2914783 L21.7852267,52.2455652 Z M30.5628267,29.0824348 L28.6152533,29.0824348 L28.6152533,35.9353043 L21.7845333,35.9353043 L21.7845333,37.890087 L30.5628267,37.890087 L30.5628267,29.0824348 Z M30.5628267,46.3735652 L30.5628267,43.4650435 L28.6152533,43.4650435 L28.6152533,46.3735652 L26.6586667,46.3735652 L26.6586667,43.4650435 L24.7110933,43.4650435 L24.7110933,46.3735652 L22.7628267,46.3735652 L22.7628267,43.437913 L20.80624,43.437913 L20.80624,46.3735652 L17.64672,46.3735652 C18.10432,43.7801739 20.3659733,41.808 23.08592,41.808 L28.29216,41.808 C31.0030933,41.808 33.2647467,43.7801739 33.73136,46.3735652 L30.5628267,46.3735652 Z M35.7690667,47.3551304 C35.7690667,43.2125217 32.4119467,39.8448696 28.29216,39.8448696 L23.08592,39.8448696 C18.95712,39.8448696 15.6090133,43.2125217 15.6090133,47.3551304 C15.6090133,47.8956522 16.0402667,48.3283478 16.5789867,48.3283478 L34.7907733,48.3283478 C35.3294933,48.3283478 35.7690667,47.8956522 35.7690667,47.3551304 L35.7690667,47.3551304 Z M33.81248,31.693913 L35.7690667,31.693913 L35.7690667,29.0824348 L33.81248,29.0824348 L33.81248,31.693913 Z M25.6893867,75.0852174 C20.124,75.0852174 15.5376,70.816 15.0078933,65.3766957 C15.5195733,65.3224348 16.0485867,65.2953043 16.5789867,65.2953043 L17.0629333,65.2953043 C17.5212267,69.6633043 21.2187733,73.0761739 25.6893867,73.0761739 C30.1593067,73.0761739 33.8575467,69.6633043 34.32416,65.2953043 L34.7907733,65.2953043 C35.32048,65.2953043 35.8411733,65.3224348 36.3618667,65.3766957 C35.83216,70.816 31.25408,75.0852174 25.6893867,75.0852174 L25.6893867,75.0852174 Z M21.7845333,65.2953043 C22.3232533,65.2953043 22.7628267,64.8626087 22.7628267,64.3227826 L22.7628267,58.8104348 L28.6152533,58.802087 L28.6152533,64.3227826 C28.6152533,64.8626087 29.0465067,65.2953043 29.59424,65.2953043 L32.3405333,65.2953043 C31.8919467,68.5822609 29.0818667,71.122087 25.6893867,71.122087 C22.2872,71.122087 19.4778133,68.5822609 19.0292267,65.2953043 L21.7845333,65.2953043 Z M20.7792,56.848 L14.11904,53.5151304 C12.2338667,52.5704348 11.0586667,50.6692174 11.0586667,48.5530435 L11.0586667,33.6125217 L11.0586667,29.7036522 C14.0656533,28.7311304 16.2552,25.8942609 16.2552,22.5530435 L16.2552,19.3829565 C18.0862933,21.8956522 21.0482133,23.5346087 24.388,23.5346087 L36.0928533,23.5346087 C38.42592,23.5346087 40.3201067,25.4351304 40.3201067,27.776 L40.3201067,29.0824348 L40.3201067,32.9996522 L40.3201067,48.5349565 C40.3201067,50.6518261 39.1532267,52.5516522 37.2680533,53.4977391 L30.5898667,56.848 L22.7628267,56.848 L20.7792,56.848 Z M9.1104,31.8921739 C7.84506667,30.333913 7.15381333,28.416 7.15381333,26.3707826 L7.15381333,16.0229565 C7.15381333,11.5206957 10.5199467,7.80104348 14.86368,7.26956522 C14.5052267,8.28730435 14.3076267,9.39478261 14.3076267,10.5391304 L14.3076267,13.4205217 L14.3076267,22.5530435 C14.3076267,25.6146087 11.8213333,28.1008696 8.77829333,28.1008696 L8.77829333,30.0549565 C8.88645333,30.0549565 9.00293333,30.0549565 9.1104,30.045913 L9.1104,31.8921739 Z M16.2552,10.5391304 C16.2552,6.18921739 19.78288,2.64973913 24.1182933,2.64973913 L29.7280533,2.64973913 C37.71664,2.64973913 44.22496,9.17913043 44.22496,17.1944348 L44.22496,26.3353043 C44.22496,28.3255652 43.5246933,30.2803478 42.2766933,31.8198261 L42.2766933,29.0824348 L42.26768,29.0824348 L42.26768,27.776 C42.26768,24.354087 39.50336,21.5714783 36.0928533,21.5714783 L24.388,21.5714783 C19.9000533,21.5714783 16.2552,17.9144348 16.2552,13.4205217 L16.2552,10.5391304 Z M38.4980267,63.7641739 C37.3041067,63.4852174 36.0658133,63.3412174 34.7907733,63.3412174 L30.5628267,63.3412174 L30.5628267,58.802087 L31.0474667,58.802087 L38.13888,55.2535652 C40.6882667,53.9749565 42.2766933,51.3989565 42.2766933,48.5349565 L42.2766933,34.6573913 L43.0130133,33.9276522 C45.0229867,31.9366957 46.1725333,29.1721739 46.1725333,26.3353043 L46.1725333,17.1944348 C46.1725333,8.09808696 38.79408,0.694956522 29.7280533,0.694956522 L24.1182933,0.694956522 C20.6446933,0.694956522 17.5836267,2.51408696 15.8426667,5.25217391 C9.97221333,5.2973913 5.19722667,10.1071304 5.19722667,16.0229565 L5.19722667,26.3707826 C5.19722667,29.2264348 6.30101333,31.9012174 8.31168,33.9088696 L9.1104,34.7109565 L9.1104,48.5530435 C9.1104,51.4170435 10.69952,53.9923478 13.2482133,55.2716522 L20.3216,58.8104348 L20.80624,58.8104348 L20.80624,63.3412174 L16.5789867,63.3412174 C15.3039467,63.3412174 14.0739733,63.4852174 12.8807467,63.7641739 C5.51130667,65.4483478 2.84217094e-14,72.0855652 2.84217094e-14,79.984 L1.94826667,79.984 C1.94826667,73.0942609 6.69621333,67.3036522 13.0776533,65.7182609 C13.77792,72.0772174 19.1637333,77.0386087 25.6893867,77.0386087 C32.2143467,77.0386087 37.60016,72.0772174 38.3004267,65.7182609 C44.68256,67.3036522 49.4214933,73.1033043 49.4214933,79.984 L51.37808,79.984 C51.37808,72.0855652 45.8674667,65.4573913 38.4980267,63.7641739 L38.4980267,63.7641739 Z" id="Fill-24" fill="#000000"></path>
            </g>
        </g>
    </g>
</svg>