<?xml version="1.0" encoding="UTF-8"?>
<svg width="52px" height="76px" viewBox="0 0 52 76" version="1.1" xmlns="http://www.w3.org/2000/svg" xmlns:xlink="http://www.w3.org/1999/xlink">
    <!-- Generator: Sketch 57.1 (83088) - https://sketch.com -->
    <title>MujerMillenial Copy</title>
    <desc>Created with Sketch.</desc>
    <defs>
        <polygon id="path-1" points="0.000197468354 0.0151999991 51.5208101 0.0151999991 51.5208101 75.3389322 0.000197468354 75.3389322"></polygon>
    </defs>
    <g id="Facebook" stroke="none" stroke-width="1" fill="none" fill-rule="evenodd">
        <g id="generaciones-copy" transform="translate(-373.000000, -435.000000)">
            <g id="MujerMillenial-Copy" transform="translate(373.000000, 435.000000)">
                <path d="M46.927762,71.0738122 L46.927762,75.9847339 L24.3887241,75.9847339 L24.3887241,74.5731165 C33.037838,74.5731165 41.6955089,72.6308209 46.6295848,68.7382991 C46.8257367,69.4824383 46.927762,70.2616035 46.927762,71.0738122" id="Fill-1" fill="#CCD0D9"></path>
                <path d="M45.6922684,52.9269948 L45.6922684,58.7023339 C37.5710532,57.5557252 30.7537873,52.2172209 27.4560658,44.9192383 C26.084319,41.890473 25.3174835,38.5193774 25.3174835,34.9685252 L25.3174835,11.7660557 C25.3260405,11.6801426 25.3260405,11.5948904 25.3260405,11.5089774 L25.3174835,11.5089774 L25.3174835,7.78696 L23.4599646,7.78696 L23.4599646,11.9286296 C23.2638127,16.1800035 20.1701418,19.0898122 17.5629013,20.8008035 C14.3928759,22.8792383 10.2855342,24.2148557 7.09839494,24.2148557 L7.09839494,26.0798296 C7.59272405,26.0798296 8.11272405,26.0540557 8.64917975,25.9853252 L8.64917975,29.1766643 L7.72042025,29.1766643 C6.18674937,29.1766643 4.93414177,30.4257078 4.93414177,31.9655339 L3.08517975,31.9655339 L3.08517975,23.9062296 C3.08517975,12.1163165 12.6373823,2.51718609 24.3887241,2.51718609 C36.1308506,2.51718609 45.6922684,12.1163165 45.6922684,23.9062296 L45.6922684,42.8996209 C42.3175342,41.1463339 40.1361671,37.5954817 40.1361671,33.6857774 L40.1361671,32.2391339 L38.2865468,32.2391339 L38.2865468,33.6857774 C38.2865468,38.6138817 41.2354076,43.071447 45.6922684,44.9536035 L45.6922684,51.0190643 C38.125281,49.1884557 32.7396608,42.3438296 32.7396608,34.3446643 L32.7396608,26.3877948 L30.8906987,26.3877948 L30.8906987,34.3446643 C30.8906987,43.3615687 37.0681671,51.0534296 45.6922684,52.9269948" id="Fill-3" fill="#FFCE54"></path>
                <path d="M24.3885266,74.5730504 L24.3885266,75.9846678 L1.84883038,75.9846678 L1.84883038,71.0737461 C1.84883038,70.2615374 1.95151392,69.4823722 2.14700759,68.738233 C7.07252658,72.6314157 15.7308557,74.5730504 24.3885266,74.5730504" id="Fill-5" fill="#CCD0D9"></path>
                <path d="M8.64924557,39.7599617 C8.64924557,44.054953 10.1236759,48.1615965 12.663119,51.2505009 C7.20904304,50.1382574 3.08458734,45.2702922 3.08458734,39.4691791 L3.08458734,31.9656661 L4.93354937,31.9656661 C4.93354937,33.5054922 6.18681519,34.7551965 7.72048608,34.7551965 L8.64924557,34.7551965 L8.64924557,39.7599617 Z" id="Fill-7" fill="#FFCE54"></path>
                <g id="Group-11" transform="translate(0.000000, 0.645670)">
                    <mask id="mask-2" fill="white">
                        <use xlink:href="#path-1"></use>
                    </mask>
                    <g id="Clip-10"></g>
                    <path d="M15.5857165,65.0379583 C15.9095646,65.79928 16.3360962,66.5183061 16.846881,67.1765322 L18.3041975,66.0305843 C17.8947797,65.4999061 17.545919,64.9269322 17.2898684,64.3103409 L15.5857165,65.0379583 Z M18.6109316,68.9225496 C19.2671848,69.4274539 19.9912354,69.8464452 20.7580709,70.1544104 L21.4656658,68.4348278 C20.8436405,68.1870017 20.2637418,67.8440104 19.7272861,67.4422017 L18.6109316,68.9225496 Z M20.7073873,30.0620974 C19.3863241,31.3884626 17.2391848,31.3884626 15.9181215,30.0620974 L14.6056152,31.3719409 C15.6285013,32.3982713 16.9745772,32.911767 18.3127544,32.911767 C19.6588304,32.911767 20.9970076,32.3982713 22.0192354,31.3719409 L20.7073873,30.0620974 Z M15.5343747,27.7523583 L22.0705772,26.6572974 L21.763843,24.8260278 L14.3587797,26.0671409 L14.6655139,27.8977496 L15.5343747,27.7523583 Z M24.3967544,69.0170539 C24.0564506,69.0249843 23.7240456,68.9906191 23.3916405,68.9483235 L23.153362,70.7961148 C23.5529063,70.8476626 23.970881,70.8727757 24.3888557,70.8727757 L24.3967544,70.8727757 C24.8061722,70.8727757 25.2234886,70.8476626 25.6329063,70.7961148 L25.3939696,68.9483235 C25.0615646,68.9906191 24.7291595,69.0170539 24.3967544,69.0170539 L24.3967544,69.0170539 Z M30.1746785,68.9225496 L29.0497671,67.4422017 C28.5212101,67.8440104 27.9334127,68.1777496 27.3199443,68.4348278 L28.026881,70.1544104 C28.7851595,69.8378539 29.5098684,69.4274539 30.1746785,68.9225496 L30.1746785,68.9225496 Z M33.1913367,65.029367 L31.4871848,64.3024104 C31.2311342,64.9183409 30.8901722,65.4999061 30.4728557,66.0305843 L31.9387291,67.1765322 C32.4501722,66.5183061 32.8674886,65.79928 33.1913367,65.029367 L33.1913367,65.029367 Z M8.64075443,30.3872452 L8.64075443,32.25288 L7.7205519,32.25288 C7.20910886,32.25288 6.79179241,31.8338887 6.79179241,31.3197322 C6.79179241,30.8068974 7.20910886,30.3872452 7.7205519,30.3872452 L8.64075443,30.3872452 Z M45.6924,42.2538191 C42.3176658,40.5005322 40.1362987,36.94968 40.1362987,33.0399757 L40.1362987,31.593993 L38.2873367,31.593993 L38.2873367,33.0399757 C38.2873367,37.96808 41.2355392,42.4256452 45.6924,44.3078017 L45.6924,50.3739235 C38.1254127,48.5426539 32.7397924,41.6986887 32.7397924,33.6988626 L32.7397924,25.741993 L30.8901722,25.741993 L30.8901722,33.6988626 C30.8901722,42.7164278 37.0682987,50.4076278 45.6924,52.281193 L45.6924,58.057193 C37.5711848,56.9099235 30.753919,51.5714191 27.4561975,44.2734365 C26.0844506,41.2446713 25.3176152,37.8735757 25.3176152,34.3227235 L25.3176152,11.1202539 C25.3255139,11.0343409 25.3255139,10.9490887 25.3255139,10.8631757 L25.3176152,10.8631757 L25.3176152,7.14181913 L23.459438,7.14181913 L23.459438,11.2828278 C23.2639443,15.5348626 20.1702734,18.4440104 17.5623747,20.1550017 C14.3930076,22.2334365 10.2856658,23.5690539 7.09852658,23.5690539 L7.09852658,25.4340278 C7.5928557,25.4340278 8.11219747,25.4082539 8.64931139,25.3401843 L8.64931139,28.5308626 L7.7205519,28.5308626 C6.18622278,28.5308626 4.93361519,29.7799061 4.93361519,31.3197322 C4.93361519,32.8602191 6.18622278,34.1092626 7.7205519,34.1092626 L8.64931139,34.1092626 L8.64931139,39.1140278 C8.64931139,43.4090191 10.1237418,47.5156626 12.6631848,50.604567 C7.20910886,49.4929843 3.08465316,44.6243583 3.08465316,38.8232452 L3.08465316,31.3197322 L3.08465316,23.2604278 C3.08465316,11.4705148 12.6375139,1.87138435 24.3888557,1.87138435 C36.1309823,1.87138435 45.6924,11.4705148 45.6924,23.2604278 L45.6924,42.2538191 Z M27.9248557,54.6345496 C25.8968557,55.9688452 23.3231848,56.046167 21.2267291,54.8737843 C21.0904759,54.7971235 20.9542228,54.7204626 20.8179696,54.6259583 L17.1108304,52.1787583 C16.4374633,51.733993 15.8160962,51.2290887 15.2361975,50.6732974 C12.270881,47.83288 10.5068304,43.5980278 10.5068304,39.1140278 L10.5068304,28.5308626 L10.5068304,25.0487409 C13.2424253,24.475767 16.1570582,23.2862017 18.5681468,21.7206017 C20.6817165,20.3340974 22.3259696,18.7262017 23.459438,16.9550713 L23.459438,26.6572974 L23.459438,31.3719409 L23.459438,34.3227235 C23.459438,35.7257496 23.5706785,37.1036626 23.791843,38.4472104 L21.9172101,38.4472104 L21.9172101,40.3121843 L24.1584759,40.3121843 C24.5079949,41.8097148 24.9931089,43.2642887 25.5980203,44.6494713 L22.5820203,44.6494713 C21.763843,44.6494713 21.0226785,44.1967757 20.6560456,43.4519757 L20.2637418,42.6820626 L18.6109316,43.5200452 L19.0025772,44.2906191 C19.6845013,45.6599409 21.0569063,46.5065148 22.5820203,46.5065148 L26.1864759,46.5065148 C26.2885013,46.5065148 26.3826278,46.5065148 26.4846532,46.489993 C27.6780203,48.7567757 29.1945772,50.8180278 30.9842987,52.6149322 L27.9248557,54.6345496 Z M32.1092101,61.3853322 C32.1006532,61.7098191 32.0749823,62.0435583 32.0236405,62.3687061 L33.8647038,62.6337148 C33.9153873,62.2233148 33.9496152,61.7957322 33.9496152,61.3853322 L37.9207038,61.3853322 C41.4060203,61.3853322 44.4312354,63.3778539 45.9221215,66.2876626 C42.1050582,69.5814365 35.3384759,71.463593 28.1374633,71.9420626 C25.657919,72.1138887 23.1276911,72.1138887 20.6474886,71.9420626 C13.4464759,71.463593 6.67199494,69.5814365 2.85493165,66.2876626 C4.34581772,63.3778539 7.37103291,61.3853322 10.8563494,61.3853322 L14.827438,61.3853322 C14.827438,61.7957322 14.8616658,62.2233148 14.9130076,62.6337148 L15.2361975,62.5914191 L16.7448557,62.3687061 C16.7020709,62.0521496 16.6764,61.7098191 16.667843,61.3853322 L21.6104759,61.3853322 L21.6104759,57.0810887 C22.5050076,57.3976452 23.4337671,57.56088 24.3717418,57.56088 C25.3426278,57.56088 26.3141722,57.3897148 27.2429316,57.0467235 L27.2429316,61.3853322 L32.1092101,61.3853322 Z M48.9730076,58.2878365 C48.4957924,58.2878365 48.0185772,58.2706539 47.541362,58.2362887 L47.541362,42.8023409 L47.541362,23.2604278 C47.541362,10.4448452 37.1538684,0.0150017382 24.3888557,0.0150017382 C11.6231848,0.0150017382 1.23569114,10.4448452 1.23569114,23.2604278 L1.23569114,38.8232452 C1.23569114,46.3697148 7.25189367,52.5217496 14.7247544,52.7008452 C15.159843,53.07688 15.6113873,53.4106191 16.0886025,53.7278365 L19.752957,56.157193 L19.752957,59.5282887 L10.8563494,59.5282887 C6.10131139,59.5282887 2.06242532,62.6000104 0.587994937,66.8771583 C0.204248101,67.9900626 0.000197468354,69.1875583 0.000197468354,70.4280104 L0.000197468354,75.3389322 L1.84915949,75.3389322 L1.84915949,70.4280104 C1.84915949,69.6158017 1.95118481,68.8366365 2.14733671,68.0924974 C7.0728557,71.98568 15.7305266,73.9273148 24.3888557,73.9273148 C33.0379696,73.9273148 41.6956405,71.98568 46.6297165,68.0924974 C46.8252101,68.8366365 46.9278937,69.6158017 46.9278937,70.4280104 L46.9278937,75.3389322 L48.7768557,75.3389322 L48.7768557,70.4280104 C48.7768557,69.1875583 48.5721468,67.9900626 48.1890582,66.8771583 C47.0042481,63.4465843 44.1666278,60.7859235 40.6306278,59.8706191 C39.7617671,59.6479061 38.8580203,59.5282887 37.9207038,59.5282887 L29.0925519,59.5282887 L29.0925519,56.0798713 L32.3902734,53.9155235 C34.8869316,56.0977148 37.7930076,57.7822713 40.9801468,58.8436278 C43.4932608,59.6908626 46.1781722,60.1442191 48.9730076,60.1442191 L51.5210076,60.1442191 L51.5210076,58.2878365 L48.9730076,58.2878365 Z" id="Fill-9" fill="#000000" mask="url(#mask-2)"></path>
                </g>
            </g>
        </g>
    </g>
</svg>