<?xml version="1.0" encoding="UTF-8"?>
<svg width="50px" height="77px" viewBox="0 0 50 77" version="1.1" xmlns="http://www.w3.org/2000/svg" xmlns:xlink="http://www.w3.org/1999/xlink">
    <!-- Generator: Sketch 57.1 (83088) - https://sketch.com -->
    <title>HombreMillenialls</title>
    <desc>Created with Sketch.</desc>
    <defs>
        <polygon id="path-1" points="0.138066667 0.454826496 13.2394 0.454826496 13.2394 9.21367521 0.138066667 9.21367521"></polygon>
        <polygon id="path-3" points="0.548133333 0.188288034 23.4714667 0.188288034 23.4714667 13.8205128 0.548133333 13.8205128"></polygon>
        <polygon id="path-5" points="0 76.4761368 49.4106667 76.4761368 49.4106667 -1.42108547e-14 0 -1.42108547e-14"></polygon>
    </defs>
    <g id="Facebook" stroke="none" stroke-width="1" fill="none" fill-rule="evenodd">
        <g id="generaciones-copy" transform="translate(-374.000000, -169.000000)">
            <g id="HombreMillenialls" transform="translate(374.000000, 169.000000)">
                <path d="M47.5294667,76.4760051 L37.9061333,76.4760051 L37.9061333,75.4532872 L41.9714667,73.8520821 L41.9714667,68.5950222 L43.8701333,67.1386034 C46.1401333,69.6085265 47.5294667,72.8806974 47.5294667,76.4760051" id="Fill-1" fill="#FFCE54"></path>
                <path d="M37.1381333,63.0572085 C39.7701333,63.7640291 42.0921333,65.2039949 43.8701333,67.1382085 L41.9714667,68.5952855 L33.8494667,68.5952855 L32.8654667,67.7173538 L37.1381333,63.0572085 Z" id="Fill-3" fill="#FFCE54"></path>
                <path d="M38.4845333,2.58989829 C40.7972,3.52706068 45.0265333,6.15164188 45.0265333,12.7032231 C45.0265333,20.2090778 39.9952,25.0488897 32.2185333,25.0488897 C27.5578667,25.0488897 24.7185333,23.3535735 21.9825333,21.7089325 C18.7892,19.8003855 15.7858667,17.9945051 10.7885333,19.7325991 L10.2272,19.9201632 L9.38986667,27.5964709 C8.4492,25.0745564 7.45653333,20.6440949 8.09586667,13.8786248 C12.0398667,9.38893248 18.2452,7.94962479 27.0398667,9.47448803 C33.0472,10.5222145 35.8518667,8.96312906 37.1465333,7.47182991 C38.2512,6.19441966 38.7178667,4.44711197 38.4845333,2.58989829" id="Fill-5" fill="#CCD0D9"></path>
                <path d="M39.7530667,25.2024291 C40.2970667,24.9207538 40.8230667,24.6061726 41.3150667,24.2652667 C41.2550667,25.5005573 40.9877333,27.1879761 40.1417333,28.6786171 L39.7530667,25.2024291 Z" id="Fill-7" fill="#CCD0D9"></path>
                <polygon id="Fill-9" fill="#CCD0D9" points="40.0896667 70.4436803 40.0896667 72.5990222 37.9063333 73.4598427 35.7223333 72.5990222 35.7223333 70.4436803"></polygon>
                <g id="Group-13" transform="translate(24.666667, 67.262462)">
                    <mask id="mask-2" fill="white">
                        <use xlink:href="#path-1"></use>
                    </mask>
                    <g id="Clip-12"></g>
                    <path d="M13.2394,8.19102308 L13.2394,9.21374103 L0.138066667,9.21374103 L0.138066667,7.69677521 C1.05273333,7.69677521 1.91606667,7.32230513 2.52873333,6.64904872 L8.19873333,0.454826496 L9.1834,1.33275812 L9.1834,6.58915983 L13.2394,8.19102308 Z" id="Fill-11" fill="#FFCE54" mask="url(#mask-2)"></path>
                </g>
                <g id="Group-16" transform="translate(1.333333, 62.655624)">
                    <mask id="mask-4" fill="white">
                        <use xlink:href="#path-3"></use>
                    </mask>
                    <g id="Clip-15"></g>
                    <path d="M23.4714667,12.3036128 L23.4714667,13.8205786 L0.548133333,13.8205786 C0.548133333,7.08933077 5.4248,1.4492453 11.8801333,0.188288034 L20.9768,11.1453222 C21.5728,11.8606983 22.4528,12.2871598 23.3934667,12.3036128 L23.4714667,12.3036128 Z" id="Fill-14" fill="#FFCE54" mask="url(#mask-4)"></path>
                </g>
                <mask id="mask-6" fill="white">
                    <use xlink:href="#path-5"></use>
                </mask>
                <g id="Clip-18"></g>
                <path d="M14.698,32.9474444 L17.2006667,32.9474444 L17.2006667,31.0981282 L14.698,31.0981282 L14.698,32.9474444 Z M17.7186667,27.8522821 L16.6833333,26.3182051 L12.9286667,28.7808889 L13.9646667,30.3228632 L17.7186667,27.8522821 Z M30.6473333,30.7914444 L28.766,30.7914444 L28.766,42.2078462 L19.704,42.2078462 L19.704,44.0657179 L30.6473333,44.0657179 L30.6473333,30.7914444 Z M32.2186667,32.9474444 L34.7213333,32.9474444 L34.7213333,31.0981282 L32.2186667,31.0981282 L32.2186667,32.9474444 Z M36.81,47.2608889 L35.1353333,46.425735 L34.1346667,48.3856154 L15.2846667,48.3856154 L14.3013333,46.425735 L12.618,47.2523333 L14.12,50.2342735 L35.2906667,50.2342735 L36.81,47.2608889 Z M35.7226667,70.443812 L40.0893333,70.443812 L40.0893333,72.5991538 L37.906,73.4599744 L35.7226667,72.5991538 L35.7226667,70.443812 Z M33.85,73.8522137 L37.906,75.4534188 L41.9713333,73.8522137 L41.9713333,68.5951538 L33.85,68.5951538 L33.85,73.8522137 Z M25.806,72.6761538 C25.538,72.9657265 25.1846667,73.1019573 24.77,73.1111709 C24.3733333,73.1019573 24.0193333,72.9315043 23.7606667,72.6248205 L15.432,62.5884957 C15.604,62.5799402 15.7773333,62.5799402 15.95,62.5799402 L21.8873333,62.5799402 L21.8873333,57.7657949 C22.828,57.8000171 23.7693333,57.8092308 24.71,57.8092308 C25.642,57.8092308 26.5826667,57.8000171 27.5146667,57.7657949 L27.5146667,62.5799402 L33.4613333,62.5799402 C33.9786667,62.5799402 34.4793333,62.6056068 34.98,62.6569402 L25.806,72.6761538 Z M9.72733333,54.9036325 C8.89,54.7838547 8.30266667,54.042812 8.39733333,53.2076581 L11.66,24.1628632 L11.9706667,21.3000427 C15.7853333,20.1667607 18.1073333,21.5560513 21.0073333,23.2934872 C23.8293333,24.9888034 27.0313333,26.9065641 32.2186667,26.9065641 L32.3393333,26.9065641 L31.7006667,27.8522821 L35.4373333,30.3228632 L36.482,28.7894444 L33.556,26.8552308 C35.1353333,26.7525641 36.6026667,26.455094 37.9493333,25.9772991 L38.424,30.2122991 L41.0133333,53.2076581 C41.108,54.042812 40.5213333,54.7838547 39.684,54.9036325 C35.636,55.4742222 31.5713333,55.8144701 27.4886667,55.9177949 C25.6333333,55.9684701 23.7693333,55.9684701 21.9133333,55.9177949 C17.8393333,55.8144701 13.7746667,55.4742222 9.72733333,54.9036325 L9.72733333,54.9036325 Z M6.57666667,36.0392906 C6.05866667,36.0392906 5.636,35.6227009 5.636,35.1106838 C5.636,34.5999829 6.05866667,34.1820769 6.57666667,34.1820769 L8.648,34.1820769 L8.44066667,36.0392906 L6.57666667,36.0392906 Z M8.09533333,13.8790855 C12.04,9.38873504 18.2453333,7.94942735 27.04,9.4742906 C33.0473333,10.5220171 35.852,8.96293162 37.1466667,7.47163248 C38.2513333,6.19422222 38.7173333,4.44757265 38.4846667,2.58970085 C40.7973333,3.52686325 45.0266667,6.15144444 45.0266667,12.7030256 C45.0266667,20.2095385 39.9946667,25.0486923 32.2186667,25.0486923 C27.558,25.0486923 24.718,23.3533761 21.9826667,21.708735 C18.7893333,19.8008462 15.7853333,17.9943077 10.7886667,19.7324017 L10.2273333,19.9199658 L9.39,27.5962735 C8.45,25.074359 7.45666667,20.6438974 8.09533333,13.8790855 L8.09533333,13.8790855 Z M40.1413333,28.6788803 L39.7533333,25.2026923 C40.2973333,24.9210171 40.8233333,24.6057778 41.3153333,24.2655299 C41.2553333,25.5008205 40.9873333,27.1875812 40.1413333,28.6788803 L40.1413333,28.6788803 Z M42.8426667,34.1820769 C43.3606667,34.1820769 43.7753333,34.5999829 43.7753333,35.1106838 C43.7753333,35.6227009 43.3606667,36.0392906 42.8426667,36.0392906 L40.97,36.0392906 L40.7626667,34.1820769 L42.8426667,34.1820769 Z M36.568,61.0379658 L36.5166667,60.9866325 L36.482,61.0201966 C35.5066667,60.824735 34.4966667,60.7312821 33.4613333,60.7312821 L29.396,60.7312821 L29.396,57.6980085 C32.926,57.5532222 36.448,57.2294274 39.9513333,56.7351795 C41.7986667,56.4791709 43.0846667,54.835188 42.8773333,53.003641 L41.1773333,37.8886068 L42.8426667,37.8886068 C44.3966667,37.8886068 45.6566667,36.6447607 45.6566667,35.1106838 C45.6566667,33.577265 44.3966667,32.3340769 42.8426667,32.3340769 L40.556,32.3340769 L40.4433333,31.3712479 C43.3346667,28.4228718 43.2833333,24.0437436 43.1793333,22.6551111 C45.5533333,20.1924274 46.8993333,16.7675726 46.8993333,12.7030256 C46.8993333,4.31923932 40.6766667,0.920051282 37.38,0.298128205 L35.8,-1.42108547e-14 L36.318,1.50841026 C36.5513333,2.1895641 37.2073333,4.55813675 35.7226667,6.2705641 C34.316,7.88098291 31.4333333,8.35811966 27.368,7.65129915 C17.8486667,5.99810256 10.814,7.76976068 6.47333333,12.9077009 L6.292,13.1294872 L6.25733333,13.4105043 C5.15266667,24.3839915 8.11266667,29.7180513 9.002,31.0388974 L8.85533333,32.3340769 L6.57666667,32.3340769 C5.02266667,32.3340769 3.76333333,33.577265 3.76333333,35.1106838 C3.76333333,36.6447607 5.02266667,37.8886068 6.57666667,37.8886068 L8.234,37.8886068 L6.53333333,53.003641 C6.326,54.835188 7.61266667,56.4791709 9.48533333,56.7430769 C12.9806667,57.2294274 16.4933333,57.5532222 20.0146667,57.6980085 L20.0146667,60.7312821 L15.95,60.7312821 C15.3373333,60.7312821 14.7413333,60.7655043 14.1453333,60.8332906 C6.19666667,61.7191197 0,68.3990342 0,76.4761368 L1.88133333,76.4761368 C1.88133333,69.7448889 6.758,64.1048034 13.214,62.8438462 L22.3106667,73.8008803 C22.906,74.5162564 23.786,74.9427179 24.7273333,74.9591709 L24.8046667,74.9591709 C25.7193333,74.9591709 26.5826667,74.5847009 27.1953333,73.9114444 L32.866,67.7172222 L37.138,63.0570769 C39.77,63.7638974 42.092,65.2038632 43.87,67.1380769 C46.14,69.6086581 47.5293333,72.8808291 47.5293333,76.4761368 L49.1346667,76.4761368 L49.4106667,76.4761368 C49.4106667,68.8419487 43.8786667,62.4608205 36.568,61.0379658 L36.568,61.0379658 Z" id="Fill-17" fill="#000000" mask="url(#mask-6)"></path>
            </g>
        </g>
    </g>
</svg>