<?xml version="1.0" encoding="UTF-8"?>
<svg width="50px" height="79px" viewBox="0 0 50 79" version="1.1" xmlns="http://www.w3.org/2000/svg" xmlns:xlink="http://www.w3.org/1999/xlink">
    <!-- Generator: Sketch 57.1 (83088) - https://sketch.com -->
    <title>mujerZ Copy</title>
    <desc>Created with Sketch.</desc>
    <g id="Facebook" stroke="none" stroke-width="1" fill="none" fill-rule="evenodd">
        <g id="generaciones-copy" transform="translate(-155.000000, -432.000000)">
            <g id="mujerZ-Copy" transform="translate(155.000000, 432.000000)">
                <polygon id="Fill-1" fill="#FFCE54" points="42.8482713 3 47 8.86205522 40.8027431 10 40 8.86205522"></polygon>
                <path d="M40,22.321301 L40,23.6392163 C37.2425126,22.5052119 34.7337693,19.6854704 32.8214624,15.5654582 C32.660672,15.2227459 32.313667,15.0028671 31.9405507,15.0028671 L31.9316179,15.0028671 C31.5488816,15.0116894 31.2018766,15.2397118 31.0507061,15.5824241 C27.5634774,23.5245265 14.6645105,24.0172178 11,23.9995732 L11,22.321301 C11,19.6067484 11.7647853,17.0672844 13.0992086,14.9058219 C15.6436831,10.768165 20.2516349,8 25.5,8 C33.4976069,8 40,14.4314538 40,22.321301" id="Fill-2" fill="#FFCE54"></path>
                <path d="M11.8999599,10.0537835 L13,10.80985 C12.3049688,11.4807175 11.6763745,12.2129521 11.1391308,13 L10.1221366,12.298151 C10.030786,12.2361882 10.0058722,12.1593303 10.0058722,12.1128582 C9.99756764,12.0747271 9.98926304,11.9972735 10.0473952,11.9204157 L10.0556998,11.9120745 L11.4866463,10.1157464 C11.5773581,9.99182057 11.7677251,9.96143492 11.8999599,10.0537835" id="Fill-4" fill="#FFCE54"></path>
                <polygon id="Fill-6" fill="#FFCE54" points="10 8.86205522 9.18966993 10 3 8.86205522 7.14686579 3"></polygon>
                <path d="M42,65 L42,79 L44,79 L44,66.0462191 C43.3759654,65.6173729 42.7117702,65.2589651 42,65" id="Fill-8" fill="#CCD0D9"></path>
                <polygon id="Fill-10" fill="#CCD0D9" points="34 78 36 78 36 64 34 64"></polygon>
                <polygon id="Fill-12" fill="#CCD0D9" points="27 68.8099706 27 78 29 78 29 64 28.9202719 64"></polygon>
                <polygon id="Fill-13" fill="#CCD0D9" points="20 64 20 78 22 78 22 68.8185954 20.0723115 64"></polygon>
                <polygon id="Fill-14" fill="#CCD0D9" points="14 78 16 78 16 64 14 64"></polygon>
                <path d="M7,79 L9,79 L9,65 C8.2960445,65.2586334 7.62360939,65.6158924 7,66.0448791 L7,79 Z" id="Fill-15" fill="#CCD0D9"></path>
                <path d="M16.1423964,31.448575 L18.6753573,31.448575 L18.6753573,29.5254149 L16.1423964,29.5254149 L16.1423964,31.448575 Z M14.875916,27.594042 L19.9425124,27.594042 L19.9425124,25.6715663 L14.875916,25.6715663 L14.875916,27.594042 Z M27.218871,31.7668203 L25.3147646,31.7668203 L25.3147646,39.8030289 L22.4667018,39.8030289 L22.4667018,41.726189 L27.218871,41.726189 L27.218871,31.7668203 Z M28.5723925,46.2178971 L21.4276075,46.2178971 L19.103815,45.0215683 L18.2475743,46.7407776 L20.9735098,48.1499544 L29.0271649,48.1499544 L31.7524257,46.758572 L30.9049566,45.0400471 L28.5723925,46.2178971 Z M31.3334143,31.4478906 L33.8663752,31.4478906 L33.8663752,29.5247305 L31.3334143,29.5247305 L31.3334143,31.4478906 Z M30.0662591,27.594042 L35.1328556,27.594042 L35.1328556,25.6715663 L30.0662591,25.6715663 L30.0662591,27.594042 Z M27.7255982,56.1861629 C26.8261744,56.354525 25.9173043,56.4428124 25.0003374,56.4428124 C24.0914673,56.4428124 23.1745004,56.3634222 22.2838482,56.1861629 C20.6152248,55.8761304 18.9992308,55.2820724 17.4965926,54.3875634 C13.3476377,51.9333099 10.770819,47.36974 10.770819,42.4968218 L10.770819,29.5254149 L10.770819,25.0330224 L11.1021146,25.0330224 C12.7882812,25.0330224 15.8191976,24.9180434 19.1213581,24.235698 C24.8950785,23.0393692 29.0622512,20.5851158 31.298328,17.0857856 C33.4473638,21.0990991 36.2070362,23.7928921 39.2473989,24.80238 L39.2473989,29.5254149 L39.2473989,35.3113208 L39.2473989,42.4879246 C39.2473989,47.36974 36.6618086,51.9237284 32.4777674,54.3964606 C30.9839008,55.2820724 29.3760037,55.8761304 27.7255982,56.1861629 L27.7255982,56.1861629 Z M27.8477255,62.3970804 L27.6122424,62.9644468 L27.3329015,63.6201007 L25.0091089,69.1397755 L22.6853164,63.655005 L22.3972039,62.9644468 L22.1522745,62.3970804 L22.1522745,58.1175358 C23.0955562,58.2858979 24.0482841,58.3652881 24.9915658,58.3652881 C25.943619,58.3652881 26.9044438,58.2858979 27.8477255,58.1086386 L27.8477255,62.3970804 Z M10.3949908,11.7248913 C10.2985034,11.6537138 10.2728634,11.5654264 10.2728634,11.5120433 C10.2640919,11.4682418 10.2546456,11.37927 10.3160466,11.2909826 L10.3248182,11.281401 L11.836228,9.21793916 C11.9320405,9.07626865 12.133112,9.04067992 12.2727825,9.1467617 L13.4346788,10.0152635 C12.7012402,10.7858964 12.0372994,11.6270223 11.4691713,12.5317973 L10.3949908,11.7248913 Z M9.14537873,9.65184788 L2.87437756,8.53559374 L7.07596184,2.78459218 L9.96720781,8.53559374 L9.14537873,9.65184788 Z M25.0091089,6.96695211 C32.8616925,6.96695211 39.2473989,13.4523134 39.2473989,21.4091317 L39.2473989,22.7382338 C36.5396813,21.5952881 34.0762182,18.7516119 32.1977518,14.5959435 C32.0405382,14.2503222 31.700471,14.028577 31.3334143,14.028577 L31.3246427,14.028577 C30.9488145,14.0374742 30.6080725,14.2681165 30.4596305,14.6137378 C27.0353427,22.6232548 14.3691888,23.1194438 10.770819,23.1016495 L10.770819,21.4091317 C10.770819,18.6715372 11.5218007,16.1105176 12.832139,13.9313924 C15.3300136,9.75792967 19.8554714,6.96695211 25.0091089,6.96695211 L25.0091089,6.96695211 Z M37.7272175,9.1467617 C37.866888,9.04067992 38.0591879,9.07626865 38.163772,9.20835758 L39.6751818,11.281401 L39.6839534,11.2909826 C39.7804407,11.4326531 39.7453544,11.6188095 39.6144556,11.7248913 L38.5483719,12.5222157 C37.9721469,11.6188095 37.3082061,10.7769992 36.5653212,10.0152635 L37.7272175,9.1467617 Z M42.9247129,2.78459218 L47.1262972,8.53559374 L40.8546213,9.65184788 L40.0422385,8.53559374 L42.9247129,2.78459218 Z M8.86603781,33.3799479 L7.91398459,33.3799479 C7.38971432,33.3799479 6.96193137,32.9453548 6.96193137,32.4224742 C6.96193137,31.8913809 7.38971432,31.4567878 7.91398459,31.4567878 L8.86603781,31.4567878 L8.86603781,33.3799479 Z M41.1427338,31.4567878 L42.094787,31.4567878 C42.6190573,31.4567878 43.0380686,31.8913809 43.0380686,32.4224742 C43.0380686,32.9453548 42.6190573,33.3799479 42.094787,33.3799479 L41.1427338,33.3799479 L41.1427338,31.4567878 Z M43.1871854,62.9644468 C41.518562,62.1041578 39.6400955,61.6264475 37.6570449,61.6264475 L29.7518319,61.6264475 L29.7518319,57.6747299 C31.0277587,57.2846227 32.276696,56.7439478 33.4561354,56.0527052 C38.1988583,53.2446177 41.1427338,48.0520854 41.1427338,42.4879246 L41.1427338,35.3113208 L42.094787,35.3113208 C43.6581515,35.3113208 44.9428498,34.0082258 44.9428498,32.4224742 C44.9428498,30.8278254 43.6581515,29.5254149 42.094787,29.5254149 L41.1427338,29.5254149 L41.1427338,21.4091317 C41.1427338,18.8310021 40.5489656,16.3767487 39.4916535,14.2058363 L40.7412655,13.2757385 C41.2129064,12.9123229 41.5273336,12.3901267 41.6143746,11.7953843 C41.6319177,11.6804054 41.6406893,11.5832208 41.6406893,11.4682418 L48.9696773,10.1658312 C49.2928761,10.103551 49.5634455,9.88249022 49.6855728,9.57177324 C49.8083748,9.26174067 49.764517,8.90790659 49.5634455,8.64167553 L43.5447958,0.383721833 C43.344399,0.11817517 43.0299718,-0.023495343 42.6980014,0.00319620297 C42.3748026,0.0292033504 42.0860154,0.224256956 41.9288018,0.526076745 L38.5571434,7.25987472 C37.9107459,7.05592393 37.1860788,7.16200572 36.6004075,7.59659884 L35.1416272,8.69505862 C32.3725085,6.40848284 28.8436366,5.0444764 25.0091089,5.0444764 C21.1739066,5.0444764 17.6450346,6.40848284 14.8671444,8.69505862 L13.408364,7.59659884 C12.8233675,7.16200572 12.0980257,7.05592393 11.4516281,7.25987472 L8.0711982,0.526076745 C7.92275616,0.224256956 7.63464367,0.0292033504 7.30267331,0.00319620297 C6.97947452,-0.023495343 6.65627572,0.11817517 6.46397582,0.383721833 L0.436554525,8.64167553 C0.244929355,8.90790659 0.192299907,9.26174067 0.314427216,9.57177324 C0.436554525,9.88249022 0.707798605,10.103551 1.03976897,10.1658312 L8.368757,11.4682418 C8.368757,11.5743236 8.37685384,11.6893026 8.39439699,11.7953843 C8.48211273,12.3901267 8.78776838,12.9123229 9.2594092,13.2757385 L10.5171181,14.2154178 C9.46857752,16.3849615 8.87480939,18.8310021 8.87480939,21.4091317 L8.87480939,29.5254149 L7.91398459,29.5254149 C6.34184851,29.5254149 5.06659649,30.8278254 5.06659649,32.4224742 C5.06659649,34.0082258 6.34184851,35.3113208 7.91398459,35.3113208 L8.87480939,35.3113208 L8.87480939,42.4968218 C8.87480939,45.2789022 9.60824798,47.963798 10.9368042,50.302388 C12.2552393,52.6505597 14.1687921,54.65311 16.5357678,56.0527052 C17.7239788,56.752845 18.9729161,57.2935199 20.2569397,57.6829427 L20.2569397,61.6264475 L12.3429551,61.6264475 C10.368676,61.6264475 8.49088431,62.1041578 6.83103248,62.9548652 C2.78666181,65.0019015 0,69.2547545 0,74.145467 L0,78 L1.89533487,78 L1.89533487,74.145467 C1.89533487,70.3538987 3.87838549,67.0222462 6.83980406,65.1442564 C7.5206132,64.7185605 8.25472653,64.364042 9.02325142,64.1073925 C10.071792,63.7521896 11.1810588,63.5578204 12.3429551,63.5578204 L13.6701618,63.5578204 L15.8542839,63.5578204 L20.501869,63.5578204 L20.5801385,63.5578204 L22.6853164,68.5286076 L24.1353252,71.9574446 C24.2837672,72.3112787 24.6245091,72.541921 25.0091089,72.541921 C25.3842624,72.541921 25.733776,72.3112787 25.882218,71.9574446 L27.3329015,68.5197104 L29.4286331,63.5578204 L29.5163489,63.5578204 L34.1720308,63.5578204 L36.3561529,63.5578204 L37.6570449,63.5578204 C38.8277128,63.5578204 39.9551975,63.7521896 41.0030633,64.1245025 C41.7803598,64.381152 42.5057015,64.7363548 43.1871854,65.1613664 C46.1391577,67.0393562 48.1046651,70.3627959 48.1046651,74.145467 L48.1046651,78 L50,78 L50,74.145467 C50,69.2547545 47.2227845,65.0196959 43.1871854,62.9644468 L43.1871854,62.9644468 Z" id="Fill-16" fill="#000000"></path>
            </g>
        </g>
    </g>
</svg>