<?xml version="1.0" encoding="UTF-8"?>
<svg width="50px" height="78px" viewBox="0 0 50 78" version="1.1" xmlns="http://www.w3.org/2000/svg" xmlns:xlink="http://www.w3.org/1999/xlink">
    <!-- Generator: Sketch 57.1 (83088) - https://sketch.com -->
    <title>hombreZ</title>
    <desc>Created with Sketch.</desc>
    <g id="Facebook" stroke="none" stroke-width="1" fill="none" fill-rule="evenodd">
        <g id="generaciones-copy" transform="translate(-155.000000, -168.000000)">
            <g id="hombreZ" transform="translate(155.000000, 168.000000)">
                <polygon id="Fill-17" fill="#CCD0D9" points="2 78 49 78 49 74 2 74"></polygon>
                <path d="M48,71 L2,71 C2.44432169,69.513058 3.17364107,68.1505834 4.11585029,67 L23.5595599,67 C24.0128092,67.1541026 24.5017691,67.2400445 24.9996566,67.2400445 C25.4975442,67.2400445 25.9782631,67.1541026 26.4315125,67 L45.883463,67 C46.8263589,68.1505834 47.5556783,69.513058 48,71" id="Fill-18" fill="#CCD0D9"></path>
                <path d="M43.4053884,10.5765726 C44.05263,11.8123913 44.1749168,13.2215876 43.7553583,14.5528312 C43.3351241,15.8753387 42.4169599,16.9626442 41.1839578,17.6064258 C40.667786,17.8759001 40.1083747,18.0150053 39.5570708,18.0412135 C38.0349044,18.1279023 36.5390871,17.3369514 35.7871248,15.910283 L34.0994322,16.7885946 C34.4311604,17.4323763 34.877068,17.980733 35.3939154,18.432321 C33.4258414,19.4504098 30.9415957,19.0942467 29.3674068,17.3886959 L27.9675272,18.6762591 C28.1161631,18.8415725 28.2742576,18.9981499 28.4397839,19.1372551 C27.3554177,20.277649 25.6238099,20.6949646 24.0752945,20.0686552 C23.3408982,19.7729726 22.7720282,19.2071437 22.4659735,18.4766733 C22.3963848,18.2932157 22.3349037,18.1111022 22.2997715,17.9195805 C22.1862678,17.3537516 22.2382903,16.7711225 22.4659735,16.2227657 C22.6848735,15.6918811 23.104432,15.2665014 23.6381699,15.0480995 C24.1800152,14.8223055 24.7752343,14.8223055 25.3089721,15.0480995 L26.0345854,13.3002123 C25.0285908,12.8822247 23.9178756,12.8822247 22.911881,13.3002123 C21.9065621,13.7175279 21.1194677,14.5004147 20.7080166,15.5010314 C20.5066825,15.9882357 20.3843958,16.5009761 20.3580467,17.0143886 C19.308137,18.4155208 17.7339481,19.3375128 15.8976196,19.6157233 C14.0342664,19.8939337 12.1188906,19.4504098 10.6406394,18.3980487 L9.1448221,17.3369514 L9.1448221,22 C7.01054625,20.6949646 5.68160651,17.5452732 6.0660329,14.2134682 C6.38965371,11.4642923 8.27935602,9.70699702 10.1683827,9.19358455 C10.1859488,9.35016192 10.2122978,9.51547536 10.2386469,9.67205272 C10.6494224,12.0643935 11.9790378,14.1442516 13.9734608,15.5447118 L15.075393,13.9957383 C12.1276736,11.9340244 11.2007263,8.07066278 12.7397831,4.94785161 L15.1625477,5.51368053 C14.2443834,7.36707266 14.7950117,9.66331664 16.5529686,10.8903993 C18.8716881,12.5173255 22.0815471,11.9602326 23.7165416,9.65458057 C24.8542815,8.04512656 25.1076381,6.07950945 24.5826833,4.33027823 L24.8103664,4.47811952 C25.641376,3.24297277 26.9007271,2.4076695 28.3614122,2.11198693 C29.8133144,1.81630436 31.3091316,2.11198693 32.5509167,2.92981805 C33.477864,3.53865534 34.1251056,4.46938344 34.3527887,5.55668891 C34.3615718,5.58289713 34.3615718,5.60104129 34.3703548,5.62657751 C34.5973623,6.7400912 34.3703548,7.87174905 33.7406792,8.8199493 C32.7610338,10.2983622 30.7490447,10.6988777 29.2707935,9.7157331 L28.2127764,11.2902428 C29.0870255,11.8735439 30.075454,12.1430182 31.0463164,12.1430182 C32.7083356,12.1430182 34.3440057,11.3426593 35.3236512,9.86290238 C35.9013042,9.00206289 36.2418154,8.03639048 36.3384287,7.03577378 C39.1631857,6.59224992 42.058207,8.01085426 43.4053884,10.5765726" id="Fill-19" fill="#FFCE54"></path>
                <path d="M42.992002,19 C43.0258854,19.7171407 42.9513419,20.4427364 42.7829674,21.1391238 C42.607295,21.8462721 42.3372703,22.4734819 42,23 L42,19.7763259 C42.1553424,19.6963874 42.3101635,19.5872406 42.4655059,19.4673328 C42.6479551,19.3289777 42.8231062,19.179093 42.992002,19" id="Fill-20" fill="#FFCE54"></path>
                <path d="M31.2285355,33.4563934 L33.7721421,33.4563934 L33.7721421,31.5524151 L31.2285355,31.5524151 L31.2285355,33.4563934 Z M32.5003388,29 C34.4300649,29 36,30.5699351 36,32.5003388 C36,34.4293873 34.4300649,36 32.5003388,36 C30.5706127,36 29,34.4293873 29,32.5003388 C29,30.5699351 30.5706127,29 32.5003388,29 L32.5003388,29 Z" id="Fill-21" fill="#CCD0D9"></path>
                <path d="M21.2123469,2.98139105 C23.11545,4.27609154 23.5697049,6.84096677 22.2327651,8.68814164 C21.2209552,10.0835267 19.2403771,10.4172057 17.8087456,9.44004895 C16.7459479,8.70492241 16.4890224,7.27597581 17.2346362,6.24008634 L15.7169214,5.19580649 C15.5884586,5.37071368 15.4686042,5.56304705 15.3745747,5.75538043 L13,5.21194184 C13.1622339,4.88600777 13.350955,4.57749988 13.5655011,4.27609154 C14.4137527,3.10660137 15.6745419,2.32952291 17.1147818,2.07910228 C18.5636299,1.83707203 20.0204242,2.1539703 21.2123469,2.98139105" id="Fill-22" fill="#FFCE54"></path>
                <path d="M17.2225237,33.4534354 L19.7693351,33.4534354 L19.7693351,31.5472429 L17.2225237,31.5472429 L17.2225237,33.4534354 Z M18.4959294,29 C20.4280868,29 22,30.5724392 22,32.5044093 C22,34.4275608 20.4280868,36 18.4959294,36 C16.5725916,36 15,34.4275608 15,32.5044093 C15,30.5724392 16.5725916,29 18.4959294,29 L18.4959294,29 Z" id="Fill-23" fill="#CCD0D9"></path>
                <path d="M13.3732777,25.3107292 L13.8368217,27.163097 L18.9027435,25.8836756 L18.4398742,24.0313078 L13.3732777,25.3107292 Z M16.7712508,33.5833671 L19.3042117,33.5833671 L19.3042117,31.6696852 L16.7712508,31.6696852 L16.7712508,33.5833671 Z M30.3806863,46.6896018 C30.3806863,47.2189471 29.9529034,47.6420145 29.4286331,47.6420145 L20.5625953,47.6420145 C20.038325,47.6420145 19.6105421,47.2189471 19.6105421,46.6896018 L19.6105421,44.7670634 L17.7152072,44.7670634 L17.7152072,46.6896018 C17.7152072,48.2680999 18.9897845,49.5652342 20.5625953,49.5652342 L29.4286331,49.5652342 C31.0007692,49.5652342 32.276696,48.2680999 32.276696,46.6896018 L32.276696,44.7670634 L30.3806863,44.7670634 L30.3806863,46.6896018 Z M30.6951136,33.5833671 L33.2280744,33.5833671 L33.2280744,31.6696852 L30.6951136,31.6696852 L30.6951136,33.5833671 Z M31.0972565,25.8836756 L36.163853,27.163097 L36.6179507,25.3107292 L31.5601258,24.0313078 L31.0972565,25.8836756 Z M29.2801911,56.4705672 C28.834865,56.7355804 28.3719957,56.9474548 27.8915833,57.123222 L27.8477255,57.123222 L27.8477255,57.1409349 C26.0131169,57.8024462 23.9956547,57.8113027 22.1522745,57.1586479 L22.1522745,57.123222 L22.056462,57.123222 C21.5760496,56.9474548 21.1131803,56.7355804 20.6671795,56.4705672 L14.9980433,53.1187284 C12.3861382,51.5763375 10.7613727,48.7265933 10.7613727,45.6663372 L10.7613727,33.5833671 L10.7613727,32.9484253 L12.6742507,32.9484253 C12.832139,35.7886318 15.1815716,38.0552106 18.038406,38.0552106 C21.0079214,38.0552106 23.418755,35.6210398 23.418755,32.6309544 C23.418755,31.5020932 23.078013,30.4434027 22.4930165,29.5795548 C23.9956547,28.5385772 26.0043453,28.5385772 27.5069835,29.5795548 C27.2708257,29.9235952 27.0785258,30.3023802 26.9388554,30.708416 L26.581245,30.708416 L26.581245,32.6220979 L26.581245,39.977749 L23.7331822,39.977749 L23.7331822,41.891431 L28.4765799,41.891431 L28.4765799,36.7587575 C29.41109,37.5701477 30.6343873,38.0552106 31.961594,38.0552106 C34.8272,38.0552106 37.167861,35.7974883 37.3250746,32.9484253 L39.2379526,32.9484253 L39.2379526,33.5833671 L39.2379526,39.3339507 L39.2379526,45.6574807 C39.2379526,48.7177368 37.6050902,51.5763375 34.9931852,53.1187284 L29.2801911,56.4705672 Z M27.8477255,62.6619312 C27.8477255,64.2492857 26.5724734,65.5375636 24.9996626,65.5375636 C23.4275266,65.5375636 22.1522745,64.2492857 22.1522745,62.6619312 L22.1522745,59.1608947 C23.078013,59.4252267 24.0300663,59.558074 24.9827942,59.558074 C25.9523906,59.558074 26.9132154,59.4252267 27.8477255,59.1520382 L27.8477255,62.6619312 Z M8.86603781,17.8665133 L8.86603781,22.5945135 C6.73454516,21.2708097 5.4066637,18.0783876 5.79126351,14.7006606 C6.1144623,11.9135931 8.00170034,10.1320771 9.88826363,9.61158833 C9.90580678,9.76964252 9.93144677,9.93791573 9.95776149,10.0966512 C10.368676,12.5219654 11.6965575,14.6298088 13.687705,16.0495714 L14.7888749,14.4799298 C11.8449995,12.3891182 10.9185863,8.47318943 12.4563108,5.30733681 C12.622296,4.96329645 12.8145959,4.63696905 13.0325358,4.31949814 C13.897548,3.08504044 15.1815716,2.26479371 16.6491235,1.99978044 C18.125447,1.74430492 19.6105421,2.07880753 20.8243931,2.95287444 C22.7635858,4.31949814 23.2271298,7.02685736 21.864162,8.97596524 C20.8331646,10.449548 18.8150277,10.8017636 17.3569221,9.76964252 C16.2732953,8.99435948 16.0114975,7.48603202 16.7712508,6.39191554 L15.2254295,5.28962384 C15.0945306,5.47492875 14.9724033,5.67794663 14.875916,5.88028324 C13.958949,7.75922051 14.5088593,10.0871134 16.2651984,11.3311089 C18.5795447,12.9804588 21.7852179,12.4156876 23.418755,10.0789382 C24.5543365,8.44730124 24.8080375,6.45391093 24.2837672,4.68125147 L24.5104787,4.83113044 C25.3404046,3.57895977 26.5987882,2.73146232 28.0575685,2.43238565 C29.5075773,2.13262771 31.0007692,2.43238565 32.2416097,3.26148886 C33.1673482,3.87871771 33.8137457,4.82227396 34.0404572,5.92456566 C34.0499035,5.95113511 34.0499035,5.96884808 34.0580004,5.99473627 C34.2853866,7.12427869 34.0580004,8.27085282 33.4298207,9.23212203 C32.450778,10.731593 30.4420874,11.1369475 28.9657639,10.1402523 L27.9084517,11.7364634 C28.7822355,12.327804 29.7693751,12.6016738 30.7389714,12.6016738 C32.3988233,12.6016738 34.0323604,11.7896023 35.0107283,10.2901313 C35.5869533,9.41742694 35.9276952,8.43776349 36.0235078,7.42403663 C38.8452559,6.97439972 41.7365019,8.4118753 43.0819265,11.0143192 C43.7283241,12.2664899 43.8504514,13.6944277 43.4307653,15.044701 C43.0117539,16.3847553 42.094787,17.4877282 40.8633928,18.140383 C40.3478941,18.4135715 39.7885376,18.554594 39.2379526,18.5811634 C37.7184459,18.669047 36.2245793,17.8665133 35.4735976,16.4201812 L33.787431,17.3112798 C34.1194014,17.9639346 34.5647275,18.5191681 35.0802262,18.9776614 C33.1147187,20.0097825 30.6343873,19.6480292 29.0615765,17.9189709 L27.6641971,19.2242805 C27.8126392,19.3918724 27.9698528,19.5512891 28.135838,19.6923116 C27.0522111,20.8477422 25.3228614,21.2708097 23.7770401,20.6365491 C23.0436015,20.3361099 22.4754733,19.7624822 22.1698177,19.0219439 C22.1003198,18.836639 22.0389188,18.6520153 22.0038325,18.4571727 C21.8904768,17.8842262 21.9431062,17.2928856 22.1698177,16.7376521 C22.3884323,16.1994504 22.8074437,15.7675264 23.3398108,15.5467956 C23.8816242,15.3178895 24.4760671,15.3178895 25.0091089,15.5467956 L25.733776,13.7741361 C24.7290933,13.3503874 23.6198265,13.3503874 22.6151438,13.7741361 C21.6104611,14.1978848 20.8243931,14.9915621 20.4141533,16.0059702 C20.2130818,16.4992083 20.0909545,17.0196971 20.0646398,17.5401859 C19.0160992,18.9606297 17.4439631,19.8953295 15.6093545,20.1773745 C13.749106,20.4601007 11.836228,20.0097825 10.3599045,18.9422355 L8.86603781,17.8665133 Z M42.1474164,21.3150921 C41.9200302,21.9418587 41.5705167,22.4970922 41.1339622,22.9644421 L41.1339622,20.1065226 C41.3343589,20.036352 41.5354304,19.9389307 41.7365019,19.8333341 C41.9726597,19.7100246 42.1993711,19.5778586 42.4179858,19.4191231 C42.4618437,20.054065 42.3653563,20.6978633 42.1474164,21.3150921 L42.1474164,21.3150921 Z M42.0860154,35.5065868 C42.6102857,35.5065868 43.0380686,35.9296543 43.0380686,36.4583183 C43.0380686,36.9883448 42.6102857,37.4195875 42.0860154,37.4195875 L41.1339622,37.4195875 L41.1339622,35.5065868 L42.0860154,35.5065868 Z M21.5234201,32.6309544 C21.5234201,34.5623493 19.9600556,36.1408474 18.038406,36.1408474 C16.1248532,36.1408474 14.5614887,34.5623493 14.5614887,32.6309544 C14.5614887,30.6900217 16.1248532,29.1115237 18.038406,29.1115237 C19.9600556,29.1115237 21.5234201,30.6900217 21.5234201,32.6309544 L21.5234201,32.6309544 Z M35.4472828,32.6220979 C35.4472828,34.5623493 33.8832436,36.1408474 31.961594,36.1408474 C30.0406191,36.1408474 28.4765799,34.5623493 28.4765799,32.6220979 C28.4765799,30.6818465 30.0406191,29.1026672 31.961594,29.1026672 C33.8832436,29.1026672 35.4472828,30.6818465 35.4472828,32.6220979 L35.4472828,32.6220979 Z M39.2379526,24.0054196 L39.2379526,31.0258869 L37.1071347,31.0258869 C36.4256508,28.812447 34.3818739,27.1889852 31.961594,27.1889852 C30.8003725,27.1889852 29.7255172,27.559595 28.8524081,28.1945369 C26.5900166,26.4395904 23.4012118,26.4395904 21.1388203,28.2033933 C20.2657112,27.5677703 19.190856,27.1978417 18.038406,27.1978417 C15.5830398,27.1978417 13.4960798,28.8737611 12.8665506,31.1580529 L12.8665506,31.0258869 L10.7613727,31.0258869 L10.7613727,23.1586035 L10.7613727,21.3770875 C12.3429551,22.0910564 14.1424774,22.3383567 15.8893702,22.0733435 C17.6538062,21.8008362 19.2347138,21.0507601 20.4924227,19.9035047 C20.9991498,21.0412224 21.8992483,21.9234645 23.052373,22.4085273 C23.7770401,22.7089665 24.5280218,22.849989 25.2709067,22.849989 C26.9739417,22.849989 28.6162504,22.0910564 29.7167456,20.7680339 C30.6775704,21.236065 31.7173394,21.4738276 32.7658799,21.4738276 C34.2064424,21.4738276 35.6571259,21.0146529 36.8797485,20.0983474 C37.5612323,20.3715359 38.2858994,20.5125584 39.0287843,20.5125584 C39.0982821,20.5125584 39.1684547,20.5125584 39.2379526,20.5037019 L39.2379526,24.0054196 Z M8.85726624,37.4195875 L7.90521301,37.4195875 C7.38094274,37.4195875 6.96193137,36.9883448 6.96193137,36.4583183 C6.96193137,35.9296543 7.38094274,35.5065868 7.90521301,35.5065868 L8.85726624,35.5065868 L8.85726624,37.4195875 Z M48.8212353,68.8444387 C48.5587628,68.2803488 48.2618787,67.7510035 47.9211368,67.2400525 C45.7026031,63.9059266 41.9288018,61.700662 37.6570449,61.700662 L29.7430603,61.700662 L29.7430603,58.3937869 C29.9090455,58.3140785 30.0662591,58.2255137 30.2322443,58.1287736 L35.9452384,54.7680783 C39.14214,52.8898223 41.1339622,49.396961 41.1339622,45.6574807 L41.1339622,39.3339507 L42.0860154,39.3339507 C43.6581515,39.3339507 44.9334035,38.0456728 44.9334035,36.4583183 C44.9334035,34.8798202 43.6581515,33.5833671 42.0860154,33.5833671 L41.1339622,33.5833671 L41.1339622,32.9484253 L42.7236414,32.9484253 L42.7236414,31.0258869 L41.1339622,31.0258869 L41.1339622,25.3897563 C43.6844662,23.8466842 44.8814488,20.7326079 44.0778376,17.858338 C44.5933363,17.1961455 44.986033,16.4378942 45.2397339,15.6176474 C45.8159589,13.7829926 45.6412021,11.8338847 44.7674183,10.1320771 C43.0731549,6.84223372 39.4484704,5.00757887 35.8926089,5.5014982 C35.551867,3.91414365 34.6261285,2.56387038 33.2894755,1.66459656 C31.6302984,0.54459189 29.6384762,0.156269103 27.6817403,0.553448375 C26.03066,0.888632254 24.5718797,1.75316141 23.5064707,3.02304505 C23.0955562,2.39695971 22.5631891,1.84104498 21.9248883,1.38255159 C20.2825797,0.218264496 18.3002038,-0.231372416 16.3259247,0.112667948 C14.3604173,0.456708312 12.6398391,1.55900001 11.4867144,3.20834996 C10.5609759,4.54022899 10.0016194,6.06558815 9.86194891,7.64408621 C7.1103734,8.18228797 4.35879789,10.5551446 3.90402548,14.4887863 C3.38042994,19.0573698 5.55578047,23.378653 8.86603781,24.7193886 L8.86603781,31.0258869 L7.27635858,31.0258869 L7.27635858,32.9484253 L8.86603781,32.9484253 L8.86603781,33.5833671 L7.90521301,33.5833671 C6.34184851,33.5833671 5.05782492,34.8798202 5.05782492,36.4583183 C5.05782492,38.0456728 6.34184851,39.3339507 7.90521301,39.3339507 L8.86603781,39.3339507 L8.86603781,45.6663372 C8.86603781,49.4058175 10.8490884,52.8898223 14.0372185,54.7776161 L19.7063547,58.1199171 C19.8811114,58.2255137 20.0646398,58.322935 20.2481681,58.4114998 L20.2481681,61.700662 L12.3429551,61.700662 C8.0711982,61.700662 4.29739687,63.9059266 2.0788632,67.2400525 C1.69426339,67.8307119 1.34474988,68.4479407 1.06540896,69.1005955 C0.375153503,70.6443489 0,72.3638694 0,74.1630984 L0,78 L1.89533487,78 L1.89533487,77.9291481 L1.89533487,74.2605197 L1.89533487,74.1630984 C1.89533487,73.0253807 2.07009163,71.9401207 2.40206199,70.9175374 C2.83861652,69.5509137 3.5551867,68.2980617 4.4809252,67.2400525 C6.38570638,65.0259313 9.20677975,63.6232004 12.3429551,63.6232004 L20.3439807,63.6232004 C20.6934942,65.3434022 21.9512031,66.7284202 23.5847402,67.2400525 C24.0300663,67.3810749 24.5104787,67.460102 24.9996626,67.460102 C25.4895213,67.460102 25.9604874,67.3810749 26.4058135,67.2400525 C28.0400254,66.7284202 29.3065058,65.3434022 29.6472477,63.6232004 L37.6570449,63.6232004 C40.7932202,63.6232004 43.6061968,65.0259313 45.5190748,67.2400525 C46.4448133,68.2980617 47.1613835,69.5509137 47.597938,70.9175374 C47.9299084,71.9401207 48.1046651,73.0253807 48.1046651,74.1630984 L48.1046651,74.2605197 L48.1046651,77.9291481 L48.1046651,78 L50,78 L50,74.1630984 C50,72.2582729 49.5809886,70.459044 48.8212353,68.8444387 L48.8212353,68.8444387 Z" id="Fill-24" fill="#000000"></path>
            </g>
        </g>
    </g>
</svg>