<?xml version="1.0" encoding="UTF-8"?>
<svg width="14px" height="19px" viewBox="0 0 14 19" version="1.1" xmlns="http://www.w3.org/2000/svg" xmlns:xlink="http://www.w3.org/1999/xlink">
    <!-- Generator: Sketch 58 (84663) - https://sketch.com -->
    <title>adults only</title>
    <desc>Created with Sketch.</desc>
    <g id="apps" stroke="none" stroke-width="1" fill="none" fill-rule="evenodd">
        <g id="Bench-apps-1200-Copy" transform="translate(-1185.000000, -1449.000000)" fill-rule="nonzero">
            <g id="Group-17-Copy-5" transform="translate(160.000000, 1014.000000)">
                <g id="adults-only" transform="translate(1025.063584, 435.425790)">
                    <polygon id="Path" fill="#FFFFFF" points="12.869138 0.193357003 0.233174016 0.193357003 0.233174016 18.1477562 12.9617649 18.1477562 12.9617649 0.193357003"></polygon>
                    <rect id="Rectangle" fill="#000000" x="0.565960419" y="0.530753797" width="12.0652535" height="17.2870102"></rect>
                    <rect id="Rectangle" fill="#FFFFFF" x="1.20303263" y="3.37801949" width="10.7827265" height="10.72349"></rect>
                    <path d="M13.0068909,0.0641263471 L0.0959799575,0.0641263471 L0.0959799575,18.2755898 L13.0986796,18.2755898 L13.0986796,0.0641263471 L13.0068909,0.0641263471 Z M12.9135654,18.1001155 L0.281652976,18.1001155 L0.281652976,0.240159457 L12.9135654,0.240159457 L12.9135654,18.1001155 Z" id="Shape" fill="#000000"></path>
                    <path d="M1.75278682,15.1659509 C1.75111032,15.1843925 1.74985294,15.2033929 1.74831614,15.2212756 C1.73881594,15.3963308 1.67846173,15.5310101 1.47085443,15.5310101 C1.16405387,15.5310101 1.14491376,15.34394 1.14491376,15.0878537 L1.14491376,14.9510788 C1.15231832,14.705331 1.17271581,14.5252463 1.47085443,14.5252463 C1.63654909,14.5269228 1.73001428,14.6096304 1.7428675,14.7733692 C1.74580138,14.7962814 1.74845585,14.8225467 1.74663963,14.8460178 L1.56348137,14.8460178 C1.55551797,14.7848253 1.56180487,14.6692861 1.47071472,14.6692861 C1.32360133,14.6692861 1.33589571,14.8374955 1.33589571,14.9126589 L1.33589571,15.1775468 C1.33589571,15.2569014 1.34288115,15.3852938 1.47071472,15.3852938 C1.57214332,15.3852938 1.56124603,15.2277022 1.56459904,15.1659509 L1.75278682,15.1659509 L1.75278682,15.1659509 Z" id="Path" fill="#FFFFFF"></path>
                    <path d="M1.89277506,14.9510788 C1.90059875,14.705331 1.92057711,14.5252463 2.21871573,14.5252463 C2.51685434,14.5252463 2.53641358,14.705331 2.54423727,14.9510788 L2.54423727,15.0878537 C2.54423727,15.34394 2.52439862,15.5310101 2.21871573,15.5310101 C1.91275342,15.5310101 1.89277506,15.34394 1.89277506,15.0878537 L1.89277506,14.9510788 Z M2.08389672,15.1775468 C2.08389672,15.2569014 2.09046303,15.3852938 2.21885544,15.3852938 C2.3514391,15.3852938 2.35269648,15.2543866 2.35269648,15.1617597 L2.35269648,14.9169898 C2.35269648,14.8400103 2.35716716,14.6692861 2.21885544,14.6692861 C2.0725803,14.6692861 2.08389672,14.8374955 2.08389672,14.9126589 L2.08389672,15.1775468 Z" id="Shape" fill="#FFFFFF"></path>
                    <path d="M3.16091199,14.5485777 L3.34812181,14.5485777 L3.34812181,15.5076787 L3.1530883,15.5076787 L3.00695287,15.1659509 C2.95861362,15.052228 2.91851719,14.9365491 2.87450891,14.7846856 L2.87185445,14.7846856 C2.87883989,14.8650182 2.88638416,14.9611378 2.89225193,15.0596325 C2.89770058,15.1550537 2.90147272,15.2500557 2.90147272,15.3270352 L2.90147272,15.5076787 L2.71524086,15.5076787 L2.71524086,14.5485777 L2.90831845,14.5485777 L3.05291707,14.8982689 C3.10027836,15.0087785 3.14121305,15.1226412 3.1864787,15.278696 L3.18871404,15.278696 C3.18214773,15.1924956 3.175302,15.0980525 3.16999306,15.0062638 C3.16510325,14.9146148 3.16091199,14.8226864 3.16091199,14.7369052 L3.16091199,14.5485777 Z" id="Path" fill="#FFFFFF"></path>
                    <polygon id="Path" fill="#FFFFFF" points="3.46086682 14.5485777 4.08229164 14.5485777 4.08229164 14.6896836 3.86574297 14.6896836 3.86574297 15.5076787 3.67853316 15.5076787 3.67853316 14.6896836 3.46086682 14.6896836"></polygon>
                    <polygon id="Path" fill="#FFFFFF" points="4.18847034 15.5076787 4.18847034 14.5485777 4.71377549 14.5485777 4.71377549 14.6896836 4.37540074 14.6896836 4.37540074 14.9311004 4.68764995 14.9311004 4.68764995 15.0720666 4.37540074 15.0720666 4.37540074 15.3671316 4.71377549 15.3671316 4.71377549 15.5076787"></polygon>
                    <path d="M5.30614088,14.5485777 L5.49223302,14.5485777 L5.49223302,15.5076787 L5.29733922,15.5076787 L5.1527406,15.1659509 C5.1037028,15.052228 5.06346666,14.9365491 5.01959809,14.7846856 L5.01708334,14.7846856 C5.02406878,14.8650182 5.03161305,14.9611378 5.03748082,15.0596325 C5.04320889,15.1550537 5.0465619,15.2500557 5.0465619,15.3270352 L5.0465619,15.5076787 L4.85991092,15.5076787 L4.85991092,14.5485777 L5.05284879,14.5485777 L5.19814596,14.8982689 C5.24634551,15.0087785 5.28560368,15.1226412 5.33170759,15.278696 L5.33394293,15.278696 C5.32737662,15.1924956 5.32025147,15.0980525 5.31564108,15.0062638 C5.31033214,14.9146148 5.30614088,14.8226864 5.30614088,14.7369052 L5.30614088,14.5485777 L5.30614088,14.5485777 Z" id="Path" fill="#FFFFFF"></path>
                    <polygon id="Path" fill="#FFFFFF" points="5.60623542 14.5485777 6.22738082 14.5485777 6.22738082 14.6896836 6.0099939 14.6896836 6.0099939 15.5076787 5.82390176 15.5076787 5.82390176 14.6896836 5.60623542 14.6896836"></polygon>
                    <path d="M6.85634992,15.0940009 L6.85634992,15.5076787 L6.6691401,15.5076787 L6.6691401,14.5485777 L7.02218428,14.5485777 C7.18354797,14.5485777 7.30481522,14.601667 7.30481522,14.7781193 C7.30481522,14.8835994 7.27785142,14.9925723 7.15309144,15.0096168 L7.15309144,15.0129698 C7.26360112,15.0270804 7.2965724,15.0938612 7.2965724,15.1873264 C7.2965724,15.2263052 7.29140317,15.4612954 7.33666883,15.489796 L7.33666883,15.5076787 L7.13059832,15.5076787 C7.10866404,15.4464863 7.1128553,15.3280132 7.1111788,15.2651442 C7.11020084,15.2059077 7.1111788,15.1261339 7.04719216,15.107413 C6.99619844,15.0928832 6.94255026,15.0938612 6.88904178,15.0938612 L6.85634992,15.0938612 L6.85634992,15.0940009 Z M6.85634992,14.9541524 L7.00262505,14.9541524 C7.06395722,14.9503802 7.11145822,14.9127986 7.11145822,14.8151421 C7.11145822,14.7079854 7.06451605,14.6901027 6.99466164,14.6898233 L6.85634992,14.6898233 L6.85634992,14.9541524 L6.85634992,14.9541524 Z" id="Shape" fill="#FFFFFF"></path>
                    <path d="M7.40708207,15.5076787 L7.64612386,14.5485777 L7.89662177,14.5485777 L8.12295005,15.5076787 L7.92414441,15.5076787 L7.8749669,15.2651442 L7.65646231,15.2651442 L7.60672597,15.5076787 L7.40708207,15.5076787 Z M7.68510262,15.1244574 L7.8447898,15.1244574 L7.79491375,14.8514664 C7.78597239,14.8066199 7.78233996,14.7640087 7.77619277,14.7188827 C7.77437655,14.6961102 7.77256034,14.6744553 7.76920733,14.6543373 L7.76753082,14.6543373 C7.76347927,14.6744553 7.76264101,14.6961102 7.7608248,14.7188827 C7.75383936,14.7640087 7.74950838,14.8066199 7.74126556,14.8514664 L7.68510262,15.1244574 Z" id="Shape" fill="#FFFFFF"></path>
                    <polygon id="Path" fill="#FFFFFF" points="8.15843609 14.5485777 8.78014033 14.5485777 8.78014033 14.6896836 8.56345195 14.6896836 8.56345195 15.5076787 8.37624214 15.5076787 8.37624214 14.6896836 8.15843609 14.6896836"></polygon>
                    <polygon id="Path" fill="#FFFFFF" points="8.88715728 15.5076787 8.88715728 14.5485777 9.41148447 14.5485777 9.41148447 14.6896836 9.07422739 14.6896836 9.07422739 14.9311004 9.38452067 14.9311004 9.38452067 15.0720666 9.07422739 15.0720666 9.07422739 15.3671316 9.41148447 15.3671316 9.41148447 15.5076787"></polygon>
                    <path d="M9.56376708,15.5076787 L9.56376708,14.5485777 L9.95173847,14.5485777 C9.99714384,14.5485777 10.088234,14.5668795 10.1450955,14.6561535 C10.1872875,14.7232137 10.1987437,14.8299512 10.1987437,14.9876825 C10.1987437,15.1775468 10.1987437,15.3964705 10.046461,15.4835091 C10.0052469,15.5053037 9.95481206,15.5078184 9.90800961,15.5078184 L9.56376708,15.5078184 L9.56376708,15.5076787 Z M9.83061093,15.3671316 C9.99714384,15.3671316 10.0081808,15.2821887 10.0081808,15.0054255 C10.0081808,14.7781193 9.98359208,14.6896836 9.87224415,14.6896836 L9.74930039,14.6896836 L9.74930039,15.3671316 L9.83061093,15.3671316 Z" id="Shape" fill="#FFFFFF"></path>
                    <path d="M10.7005777,15.5076787 L10.7005777,14.5485777 L11.0009517,14.5485777 C11.0812843,14.5485777 11.1609183,14.5523498 11.2127503,14.6185718 C11.2552217,14.6709626 11.2623469,14.7258682 11.2623469,14.7906931 C11.2623469,14.8740992 11.2427877,14.9559686 11.1430356,14.9915943 L11.1430356,14.9942488 C11.2466995,15.0087785 11.2874945,15.0928832 11.2874945,15.2179226 C11.2874945,15.2569014 11.28484,15.2961596 11.273803,15.335278 C11.2338463,15.456685 11.1616168,15.5076787 11.0298714,15.5076787 L10.7005777,15.5076787 L10.7005777,15.5076787 Z M10.9262075,15.3671316 C10.9653259,15.3671316 11.0048635,15.3704847 11.0393716,15.357352 C11.0893874,15.3354177 11.094836,15.2719899 11.094836,15.2239301 C11.094836,15.1212441 11.0741591,15.0763976 10.9593185,15.0763976 L10.887089,15.0763976 L10.887089,15.3671316 L10.9262075,15.3671316 L10.9262075,15.3671316 Z M10.9210382,14.9366888 C10.9665833,14.9366888 11.0244228,14.9387844 11.0545999,14.9017616 C11.0716443,14.8775919 11.0741591,14.8457383 11.0741591,14.7980976 C11.0741591,14.7275447 11.058372,14.6917792 10.9725908,14.6898233 L10.8872287,14.6898233 L10.8872287,14.9368285 L10.9210382,14.9368285 L10.9210382,14.9366888 Z" id="Shape" fill="#FFFFFF"></path>
                    <path d="M11.6793777,14.7997741 C11.6989369,14.847834 11.7151432,14.8965923 11.7228271,14.9473066 L11.725761,14.9473066 C11.7398716,14.8724227 11.7648795,14.8191937 11.7873726,14.7666631 L11.8753892,14.5485777 L12.0797832,14.5485777 L11.8158732,15.0995893 L11.8158732,15.5076787 L11.6300605,15.5076787 L11.6300605,15.0995893 L11.3709006,14.5485777 L11.574177,14.5485777 L11.6793777,14.7997741 Z" id="Path" fill="#FFFFFF"></path>
                    <polygon id="Path" fill="#FFFFFF" points="1.17774533 17.2084939 1.17774533 15.7907288 3.19039055 15.7907288 3.19039055 16.1226769 1.98624025 16.1226769 1.98624025 16.3249753 3.00541608 16.3249753 3.00541608 16.6556661 1.98624025 16.6556661 1.98624025 16.8778031 3.23733271 16.8778031 3.23733271 17.2084939"></polygon>
                    <path d="M5.26115464,16.2030095 C5.24858085,16.1553688 5.20331519,16.1243534 5.14435807,16.1068898 C5.08707745,16.0890071 5.01526712,16.0806246 4.9356331,16.0806246 C4.75806319,16.0806246 4.67801004,16.1112208 4.67801004,16.1626336 C4.67801004,16.3742925 6.09745162,16.2428265 6.09745162,16.7576535 C6.09745162,17.0861089 5.62048572,17.2459358 4.94247883,17.2459358 C4.29101661,17.2459358 3.8661621,17.0278504 3.84925733,16.7719038 L4.62366331,16.7719038 C4.64056807,16.8230372 4.68890732,16.8604792 4.75806319,16.8838106 C4.82246895,16.9075611 4.9071325,16.9199951 4.98746507,16.9199951 C5.18962373,16.9199951 5.32374419,16.8821341 5.32374419,16.8153532 C5.32374419,16.6007605 3.90360406,16.7478739 3.90360406,16.2072008 C3.90360406,15.9054297 4.35667976,15.7542648 4.9737736,15.7542648 C5.65876593,15.7542648 5.97087543,15.9555852 6.02969284,16.2030095 L5.26115464,16.2030095 Z" id="Path" fill="#FFFFFF"></path>
                    <path d="M7.57291644,16.7150423 L7.57291644,17.2084939 L6.76400239,17.2084939 L6.76400239,15.7907288 L7.92889451,15.7907288 C8.7512206,15.7907288 9.02239542,15.9200991 9.02239542,16.1953255 C9.02239542,16.3589245 8.89581923,16.4956995 8.60843819,16.5420828 C8.8684363,16.5972678 9.02644697,16.6316361 9.02644697,16.9173407 C9.02644697,17.1021754 9.01499085,17.1654635 9.11152964,17.1654635 L9.11152964,17.2084939 L8.29185801,17.2084939 C8.27146053,17.1769197 8.25148216,17.0859692 8.25148216,16.9607901 C8.25148216,16.7749774 8.19615747,16.7150423 7.81922308,16.7150423 L7.57291644,16.7150423 L7.57291644,16.7150423 Z M7.57291644,16.4048887 L7.89061429,16.4048887 C8.14181074,16.4048887 8.27481354,16.3673071 8.27481354,16.2696506 C8.27481354,16.1701779 8.13887686,16.1225372 7.94915228,16.1225372 L7.57291644,16.1225372 L7.57291644,16.4048887 Z" id="Shape" fill="#FFFFFF"></path>
                    <path d="M9.81188994,17.2084939 L9.81188994,15.7907288 L10.9907529,15.7907288 C11.5466543,15.7907288 11.988693,15.8668701 11.988693,16.1478245 C11.988693,16.2939599 11.8235572,16.4002783 11.6659657,16.4558825 C11.9332286,16.4958392 12.076989,16.6282831 12.076989,16.7809849 C12.076989,17.0981239 11.656186,17.2086336 11.0140843,17.2086336 L9.81188994,17.2086336 L9.81188994,17.2084939 Z M10.6203849,16.6165476 L10.6203849,16.8778031 L10.9728702,16.8778031 C11.1727935,16.8778031 11.3227011,16.8536335 11.3227011,16.7477342 C11.3227011,16.6239522 11.1352119,16.6165476 10.87703,16.6165476 L10.6203849,16.6165476 Z M10.6203849,16.1226769 L10.6203849,16.3589245 L10.9568037,16.3589245 C11.1174688,16.3589245 11.2348242,16.3167325 11.2348242,16.2348631 C11.2348242,16.1243534 11.0756959,16.1225372 10.9055306,16.1225372 L10.6203849,16.1225372 L10.6203849,16.1226769 Z" id="Shape" fill="#FFFFFF"></path>
                    <path d="M1.51989222,4.33767936 C1.51989222,4.02501102 1.79707452,3.77074098 2.14397151,3.77074098 C2.48737578,3.77074098 2.76344041,4.02487132 2.76344041,4.33767936 C2.76344041,4.65300216 2.48737578,4.90699285 2.14397151,4.90699285 C1.79707452,4.9071325 1.51989222,4.65300216 1.51989222,4.33767936 M2.65390869,4.33767936 C2.65390869,4.08047543 2.42674216,3.87105191 2.14397151,3.87105191 C1.85994348,3.87105191 1.62970335,4.08047543 1.62970335,4.33767936 C1.62970335,4.5965598 1.85980378,4.80765989 2.14397151,4.80765989 C2.42674216,4.80779953 2.65390869,4.5965598 2.65390869,4.33767936 M2.01138784,4.37693754 L2.01138784,4.66459799 L1.89682661,4.66459799 L1.89682661,3.99441479 L2.13405218,3.99441479 C2.26845207,3.99441479 2.40480787,4.02850375 2.40480787,4.17966869 C2.40480787,4.25664824 2.35563037,4.31812012 2.25825332,4.33698081 L2.25825332,4.33963528 C2.35744658,4.3573783 2.3704395,4.39901153 2.38161621,4.47124099 C2.39279291,4.53410996 2.39991806,4.60382465 2.42478623,4.66459799 L2.27906994,4.66459799 C2.27082712,4.62687661 2.25909157,4.58356688 2.25462089,4.54444841 C2.24735603,4.48758692 2.24735603,4.43310048 2.21382592,4.40236454 C2.1850459,4.37693754 2.14690539,4.379592 2.10708838,4.37693754 L2.01138784,4.37693754 M2.1326551,4.27145738 C2.23897351,4.26852349 2.26495935,4.22563289 2.26495935,4.17617597 C2.26495935,4.12657934 2.2388338,4.09975524 2.14788336,4.09975524 L2.01124813,4.09975524 L2.01124813,4.27145738 L2.1326551,4.27145738 L2.1326551,4.27145738 Z" id="Shape" fill="#000000"></path>
                    <path d="M11.0821225,1.95606315 L11.0821225,1.95187189 C11.2110737,1.91834177 11.2475378,1.83591357 11.2475378,1.62816656 L11.2475378,1.46750142 C11.2475378,1.22133448 11.1732127,1.09531713 10.9297002,1.09531713 C10.6867466,1.09531713 10.6127009,1.22133448 10.6127009,1.46750142 L10.6127009,1.62816656 C10.6127009,1.83591357 10.6479075,1.91834177 10.776719,1.95187189 L10.776719,1.95606315 C10.6479075,1.99560075 10.5991491,2.04407971 10.5991491,2.2927614 L10.5991491,2.43749973 C10.5991491,2.75114603 10.6657902,2.86668522 10.9297002,2.86668522 C11.1940293,2.86668522 11.2599718,2.75114603 11.2599718,2.43749973 L11.2599718,2.2927614 C11.2599718,2.04407971 11.2110737,1.99574045 11.0821225,1.95606315 M10.8217053,1.47881783 C10.8217053,1.37990399 10.8217053,1.28462257 10.9295605,1.28462257 C11.0382539,1.28462257 11.0382539,1.37990399 11.0382539,1.47881783 L11.0382539,1.69690329 C11.0382539,1.77444169 11.0382539,1.85840669 10.9295605,1.85840669 C10.8217053,1.85840669 10.8217053,1.77430198 10.8217053,1.62132082 L10.8217053,1.47881783 Z M11.0519454,2.47452257 C11.0519454,2.58335574 11.0519454,2.69260803 10.9295605,2.69260803 C10.8075947,2.69260803 10.8075947,2.58349545 10.8075947,2.47452257 L10.8075947,2.2625843 C10.8075947,2.15417025 10.8075947,2.04617534 10.9295605,2.04617534 C11.0519454,2.04617534 11.0519454,2.15403054 11.0519454,2.2625843 L11.0519454,2.47452257 Z" id="Shape" fill="#FFFFFF"></path>
                    <path d="M9.93692934,1.39219836 L9.93692934,1.6178281 C10.0197767,1.54895166 10.0626673,1.50648018 10.1094697,1.43844198 L10.1140801,1.43844198 L10.1140801,2.85159667 L10.3218271,2.85159667 L10.3218271,1.10956743 L10.1355953,1.10956743 C10.1068153,1.18696611 9.98652597,1.35098426 9.93692934,1.39219836" id="Path" fill="#FFFFFF"></path>
                    <polygon id="Path" fill="#FFFFFF" points="9.16252336 1.84457551 9.15707472 1.84457551 8.96455597 1.10970714 8.74353662 1.10970714 9.0490798 2.13712578 9.0490798 2.85173638 9.27037857 2.85173638 9.27037857 2.13712578 9.57899535 1.10970714 9.38368242 1.10970714"></polygon>
                    <polygon id="Path" fill="#FFFFFF" points="8.56051807 1.10970714 8.33963843 1.10970714 8.33963843 2.85173638 8.9334009 2.85173638 8.9334009 2.64873947 8.56051807 2.64873947"></polygon>
                    <polygon id="Path" fill="#FFFFFF" points="7.96731443 2.55792874 7.9620055 2.55792874 7.70047059 1.10970714 7.39367003 1.10970714 7.39367003 2.85173638 7.58996091 2.85173638 7.58996091 1.36537427 7.5944316 1.36537427 7.85582679 2.85173638 8.17492173 2.85173638 8.17492173 1.10970714 7.96731443 1.10970714"></polygon>
                    <path d="M6.86012205,1.09517742 C6.5582113,1.09517742 6.48584213,1.31060841 6.48584213,1.55454001 L6.48584213,2.43428643 C6.48584213,2.70504212 6.57679257,2.86682493 6.86012205,2.86682493 C7.1634299,2.86682493 7.23733586,2.65139393 7.23733586,2.40830059 L7.23733586,1.52785563 C7.23733586,1.25668081 7.14624571,1.09517742 6.86012205,1.09517742 M7.01464001,2.44909557 C7.01464001,2.59830458 6.95330783,2.67877686 6.86012205,2.67877686 C6.76917161,2.67877686 6.70769973,2.59844429 6.70769973,2.44909557 L6.70769973,1.53456165 C6.70769973,1.36369777 6.76050967,1.28476228 6.86012205,1.28476228 C6.96196978,1.28476228 7.01464001,1.36369777 7.01464001,1.53456165 L7.01464001,2.44909557 Z" id="Shape" fill="#FFFFFF"></path>
                    <path d="M5.45660728,1.47462657 C5.45660728,1.34078552 5.49838021,1.28476228 5.59030861,1.28476228 C5.67595012,1.28476228 5.71423033,1.34260173 5.71423033,1.4402582 L5.71423033,1.57829051 L5.92211705,1.57829051 L5.92211705,1.41469148 C5.92211705,1.29049034 5.89599151,1.22985672 5.857851,1.19143679 C5.80504107,1.13792832 5.71772305,1.09517742 5.59841172,1.09517742 C5.35657576,1.09517742 5.23460996,1.21798147 5.23460996,1.50396542 C5.23460996,1.7397939 5.35224479,1.87964243 5.49404924,2.03346184 C5.72512762,2.28256266 5.7311351,2.33146074 5.7311351,2.47801529 C5.7311351,2.59159856 5.70291392,2.67877686 5.58499968,2.67877686 C5.496564,2.67877686 5.45660728,2.60640769 5.45660728,2.49003025 L5.45660728,2.34752726 L5.23447026,2.34752726 L5.23447026,2.55443601 C5.23447026,2.77252148 5.37473791,2.86668522 5.57885249,2.86668522 C5.84248303,2.86668522 5.94013949,2.70909368 5.94013949,2.43749973 C5.94013949,2.22723796 5.9006019,2.14313326 5.68293556,1.89570894 C5.47868127,1.66435114 5.45660728,1.59323935 5.45660728,1.47462657" id="Path" fill="#FFFFFF"></path>
                    <polygon id="Path" fill="#FFFFFF" points="4.41032794 1.31228492 4.67619382 1.31228492 4.67619382 2.85173638 4.89749259 2.85173638 4.89749259 1.31228492 5.16405701 1.31228492 5.16405701 1.10970714 4.41032794 1.10970714"></polygon>
                    <polygon id="Path" fill="#FFFFFF" points="4.22339755 1.10970714 4.00153994 1.10970714 4.00153994 2.85173638 4.59544213 2.85173638 4.59544213 2.64873947 4.22339755 2.64873947"></polygon>
                    <path d="M3.62237021,2.49841278 C3.62237021,2.61814324 3.58213407,2.67863715 3.46924935,2.67863715 C3.35384987,2.67863715 3.31389315,2.61814324 3.31389315,2.49841278 L3.31389315,1.10970714 L3.09189583,1.10970714 L3.09189583,2.45929431 C3.09189583,2.66075442 3.16594151,2.86682493 3.46924935,2.86682493 C3.7711601,2.86682493 3.84338956,2.66075442 3.84338956,2.45929431 L3.84338956,1.10970714 L3.62237021,1.10970714 L3.62237021,2.49841278 Z" id="Path" fill="#FFFFFF"></path>
                    <path d="M2.55317864,1.10970714 L2.19678144,1.10970714 L2.19678144,2.85173638 L2.51853085,2.85173638 C2.86822202,2.85173638 2.94129023,2.71188785 2.94129023,2.26607702 L2.94129023,1.74663963 C2.94142944,1.24131284 2.91278913,1.10970714 2.55317864,1.10970714 M2.71999096,2.25587827 C2.71999096,2.55457572 2.68939473,2.64887918 2.52495745,2.64887918 L2.41849934,2.64887918 L2.41849934,1.31242463 L2.50749385,1.31242463 C2.69596105,1.31242463 2.71999096,1.3990441 2.71999096,1.65848337 L2.71999096,2.25587827 Z" id="Shape" fill="#FFFFFF"></path>
                    <path d="M1.5068993,1.10970714 L1.15469337,2.85173638 L1.37613185,2.85173638 L1.44961869,2.40830059 L1.79511859,2.40830059 L1.86790689,2.85173638 L2.09032332,2.85173638 L1.76438265,1.10970714 L1.5068993,1.10970714 Z M1.48245026,2.20614193 L1.62285762,1.36537427 L1.6273283,1.36537427 L1.76438265,2.20614193 L1.48245026,2.20614193 Z" id="Shape" fill="#FFFFFF"></path>
                    <polygon id="Path" fill="#FFFFFF" points="11.8178291 1.85156096 11.8178291 1.48747978 11.6839881 1.48747978 11.6839881 1.85156096 11.3503634 1.85156096 11.3503634 1.99574045 11.6839881 1.99574045 11.6839881 2.35996134 11.8178291 2.35996134 11.8178291 1.99574045 12.1518729 1.99574045 12.1518729 1.85156096"></polygon>
                    <path d="M9.83703753,8.83728124 C9.70571124,8.90112816 9.55859786,8.95547489 9.39374145,8.99626987 C8.24687177,9.27680517 7.434465,8.66306434 7.11802453,7.58786528 C6.88610789,6.7975325 7.02441962,6.10220172 7.56858547,5.67622954 L6.24680035,3.83794092 L3.35720288,4.5443087 L2.77503624,13.906476 L5.55761675,13.2265131 L5.54853568,12.0120244 L8.37973486,11.3185098 L9.04977835,12.3714952 L11.879301,11.6797968 L9.83703753,8.83728124 M5.56460219,10.0868369 L5.53973402,6.78901027 L7.35944137,9.64829092 L5.56460219,10.0868369 Z" id="Shape" fill="#000000"></path>
                    <path d="M7.81265677,7.4186779 C8.02948485,8.15564192 8.46872938,8.71335951 9.25431205,8.52125989 C9.36063046,8.49485492 9.45325741,8.45825121 9.53568561,8.41494148 L7.89913653,6.13880543 C7.65450639,6.45245172 7.6673596,6.92229248 7.81265677,7.4186779" id="Path" fill="#000000"></path>
                    <path d="M8.45601587,5.8055999 C9.24159855,5.61350028 9.68056366,6.17093846 9.89613436,6.90874072 C10.0836236,7.5453938 10.0524685,8.14013424 9.53526649,8.41480177 L9.83745666,8.83714153 C10.6296057,8.45126577 10.8612429,7.65897707 10.5909063,6.73703859 C10.2751644,5.66435429 9.46317674,5.04893695 8.31588793,5.3303105 C8.01230067,5.40421647 7.76515577,5.52338809 7.56872517,5.67622954 L7.89927624,6.13880543 C8.0191464,5.98484631 8.19937078,5.86777032 8.45601587,5.8055999" id="Path" fill="#000000"></path>
                </g>
            </g>
        </g>
    </g>
</svg>