<?xml version="1.0" encoding="UTF-8"?>
<svg width="33px" height="33px" viewBox="0 0 33 33" version="1.1" xmlns="http://www.w3.org/2000/svg" xmlns:xlink="http://www.w3.org/1999/xlink">
    <!-- Generator: Sketch 58 (84663) - https://sketch.com -->
    <title>bad circle</title>
    <desc>Created with Sketch.</desc>
    <g id="pulse-face" stroke="none" stroke-width="1" fill="none" fill-rule="evenodd">
        <g id="PULSE-1200-15" transform="translate(-814.000000, -8176.000000)">
            <g id="bad-circle" transform="translate(815.000000, 8177.000000)">
                <g id="Group-2">
                    <g id="Group">
                        <g id="triste-malo-copy" transform="translate(8.640000, 9.120000)" fill="#FF3366">
                            <path d="M6.85696239,14.8800008 C2.22794084,14.8800008 0.160528249,10.7803813 0.0745938056,10.6059706 C-0.0878897488,10.2752363 0.0238543563,9.86084953 0.324478261,9.68288606 C0.624515583,9.50427662 0.999342266,9.6260411 1.16211911,9.95580645 C1.23632189,10.1034095 2.98316675,13.5170138 6.85696239,13.5170138 C10.5682745,13.5170138 12.7635622,9.94159521 12.7849725,9.90574413 C12.9732657,9.5924509 13.3568911,9.50556855 13.6416773,9.71227749 C13.9264635,9.91995537 14.0059455,10.3404789 13.8182389,10.654741 C13.7152935,10.8281827 11.2478311,14.8800008 6.85696239,14.8800008" id="Fill-8-Copy" transform="translate(6.960000, 12.240001) rotate(-180.000000) translate(-6.960000, -12.240001) "></path>
                            <g id="Group-7" transform="translate(0.480000, 0.000000)" stroke="#FF3366" stroke-width="0.5">
                                <path d="M3.93371039,0.131354649 C4.11199273,0.304806048 4.10959236,0.583455408 3.92847321,0.753984641 L2.689,1.919 L3.92832064,3.08584699 C4.10964341,3.25638205 4.11204359,3.53524967 3.9335574,3.70849826 C3.84344151,3.79616623 3.72452345,3.84000021 3.60560538,3.84000021 C3.4888693,3.84000021 3.37235142,3.79783609 3.28289013,3.7137166 L2.032,2.537 L0.783110046,3.71372091 C0.693423334,3.79804626 0.576896074,3.84000021 0.460368814,3.84000021 C0.341222963,3.84000021 0.222295329,3.79616773 0.132172186,3.70850276 C-0.0461101582,3.53505136 -0.0437097839,3.256402 0.137409366,3.08587277 L1.376,1.92 L0.137561936,0.754087885 C-0.0437608337,0.583552823 -0.0461610148,0.304685205 0.132325178,0.131436609 C0.31081137,-0.0420207188 0.602106072,-0.043899318 0.783210644,0.126427012 L2.033,1.302 L3.28277253,0.126345222 C3.46410989,-0.0439752855 3.75542805,-0.0418880244 3.93371039,0.131354649 Z" id="Combined-Shape"></path>
                                <path d="M12.4997625,3.84000021 C12.3836771,3.84000021 12.2671553,3.79783611 12.1770364,3.71371665 L9.03160204,0.754089184 C8.85027315,0.583554193 8.84809109,0.304686692 9.0263651,0.13143817 C9.20485732,-0.0418103523 9.49616185,-0.044106417 9.67705433,0.126428574 L12.8224887,3.08584731 C13.0038176,3.2563823 13.0059996,3.5352498 12.8279438,3.70849832 C12.7376067,3.79616625 12.6186846,3.84000021 12.4997625,3.84000021" id="Fill-10"></path>
                                <path d="M9.35478824,3.84000021 C9.23520498,3.84000021 9.11627638,3.79616863 9.02637072,3.70850547 C8.84830515,3.53505764 8.85005089,3.25641402 9.03160794,3.0858883 L12.1772149,0.126421702 C12.3583355,-0.0441040197 12.6500925,-0.0418080797 12.8277216,0.131431026 C13.0057872,0.304878853 13.0040415,0.583522474 12.8227026,0.754048196 L9.67753209,3.71372351 C9.58784465,3.79804713 9.47153466,3.84000021 9.35478824,3.84000021" id="Fill-12"></path>
                            </g>
                        </g>
                        <circle id="Oval-Copy-2" stroke="#FF3366" stroke-width="1.44000008" cx="15.3600008" cy="15.3600008" r="15.3600008"></circle>
                    </g>
                </g>
            </g>
        </g>
    </g>
</svg>