<?xml version="1.0" encoding="UTF-8"?>
<svg width="32px" height="34px" viewBox="0 0 32 34" version="1.1" xmlns="http://www.w3.org/2000/svg" xmlns:xlink="http://www.w3.org/1999/xlink">
    <!-- Generator: Sketch 57.1 (83088) - https://sketch.com -->
    <title>EN VIVO</title>
    <desc>Created with Sketch.</desc>
    <defs>
        <polygon id="path-1" points="0.036494382 0.0129008321 6.9438427 0.0129008321 6.9438427 12.9290212 0.036494382 12.9290212"></polygon>
    </defs>
    <g id="pulse" stroke="none" stroke-width="1" fill="none" fill-rule="evenodd">
        <g id="Artboard" transform="translate(-566.000000, -122.000000)">
            <g id="EN-VIVO" transform="translate(566.000000, 122.000000)">
                <path d="M3.32727273,5 C3.65454545,5 4.01818182,4.8757764 4.27272727,4.65838509 C6.05454545,3.13664596 8.45454545,2.26708075 11,2.26708075 C13.5454545,2.26708075 15.9454545,3.10559006 17.7272727,4.62732919 C18.2363636,5.0621118 19.1090909,5.0621118 19.6181818,4.62732919 C20.1272727,4.19254658 20.1272727,3.44720497 19.6181818,3.01242236 C17.3272727,1.08695652 14.2727273,0 11,0 C7.72727273,0 4.67272727,1.08695652 2.38181818,3.04347826 C1.87272727,3.47826087 1.87272727,4.22360248 2.38181818,4.65838509 C2.63636364,4.9068323 2.96363636,5 3.32727273,5" id="Fill-1" fill="#FFFFFF"></path>
                <path d="M15.6137124,7.63333333 C16.1287625,7.16666667 16.1287625,6.36666667 15.6137124,5.9 C12.7809365,3.36666667 8.21906355,3.36666667 5.38628763,5.9 C4.87123746,6.36666667 4.87123746,7.16666667 5.38628763,7.63333333 C5.64381271,7.86666667 6.01170569,8 6.34280936,8 C6.67391304,8 7.04180602,7.86666667 7.2993311,7.63333333 C9.06521739,6.03333333 11.9347826,6.03333333 13.7006689,7.63333333 C14.2157191,8.1 15.0618729,8.1 15.6137124,7.63333333" id="Fill-3" fill="#FFFFFF"></path>
                <path d="M12,11 C13.1045583,11 14,11.8954417 14,13 C14,14.1045583 13.1045583,15 12,15 C10.8954417,15 10,14.1045583 10,13 C10,11.8954417 10.8954417,11 12,11" id="Fill-5" fill="#FFFFFF"></path>
                <g id="Group-9" transform="translate(25.000000, 19.000000)">
                    <mask id="mask-2" fill="white">
                        <use xlink:href="#path-1"></use>
                    </mask>
                    <g id="Clip-8"></g>
                    <path d="M5.46283146,0.117506494 L0.635505618,2.50005195 C0.247910112,2.68914286 0.036494382,3.06732468 0.036494382,3.52114286 L0.036494382,9.4585974 C0.036494382,9.91241558 0.283146067,10.2905974 0.635505618,10.4796883 L5.46283146,12.8244156 C6.16755056,13.1647792 6.94274157,12.6353247 6.94274157,11.8033247 L6.94274157,1.1385974 C6.97797753,0.306597403 6.16755056,-0.222857143 5.46283146,0.117506494" id="Fill-7" fill="#FFFFFF" mask="url(#mask-2)"></path>
                </g>
                <path d="M11.0175439,30.4071146 C8.07017544,30.4071146 5.68421053,27.9881423 5.68421053,25 C5.68421053,22.0118577 8.07017544,19.5928854 11.0175439,19.5928854 C13.9649123,19.5928854 16.3157895,22.0118577 16.3157895,25 C16.3157895,27.9881423 13.9649123,30.4071146 11.0175439,30.4071146 M19.7894737,16 L2.21052632,16 C0.98245614,16 0,16.9960474 0,18.2411067 L0,31.7588933 C0,33.0039526 0.98245614,34 2.21052632,34 L19.7894737,34 C21.0175439,34 22,33.0039526 22,31.7588933 L22,18.2411067 C22,17.0316206 21.0175439,16 19.7894737,16" id="Fill-10" fill="#FFFFFF"></path>
                <path d="M10.8851064,23.0826536 C10.5106383,22.863774 10,23.1100136 10,23.4656931 L10,26.5300085 C10,26.9130479 10.5106383,27.1319276 10.8851064,26.9130479 L13.7446809,25.3808902 C14.0851064,25.1893705 14.0851064,24.7789711 13.7446809,24.6148114 L10.8851064,23.0826536 Z" id="Fill-12" fill="#FFFFFF"></path>
            </g>
        </g>
    </g>
</svg>