<?xml version="1.0" encoding="UTF-8"?>
<svg width="14px" height="19px" viewBox="0 0 14 19" version="1.1" xmlns="http://www.w3.org/2000/svg" xmlns:xlink="http://www.w3.org/1999/xlink">
    <!-- Generator: Sketch 58 (84663) - https://sketch.com -->
    <title>everyone10+</title>
    <desc>Created with Sketch.</desc>
    <g id="apps" stroke="none" stroke-width="1" fill="none" fill-rule="evenodd">
        <g id="Bench-apps-1200-Copy" transform="translate(-746.000000, -1449.000000)" fill-rule="nonzero">
            <g id="Group-17-Copy-5" transform="translate(160.000000, 1014.000000)">
                <g id="everyone10+" transform="translate(586.000000, 435.425790)">
                    <polygon id="Path" fill="#FFFFFF" points="12.8254091 0.19377613 0.189305447 0.19377613 0.189305447 18.1477562 12.9180361 18.1477562 12.9180361 0.19377613"></polygon>
                    <rect id="Rectangle" fill="#000000" x="0.52209185" y="0.531312632" width="12.0651137" height="17.2865911"></rect>
                    <rect id="Rectangle" fill="#FFFFFF" x="1.15916406" y="3.37857833" width="10.7827265" height="10.7229311"></rect>
                    <path d="M12.9630223,0.0645454736 L0.0521113888,0.0645454736 L0.0521113888,18.2755898 L13.054811,18.2755898 L13.054811,0.0645454736 L12.9630223,0.0645454736 Z M12.8694174,18.1005347 L0.237784407,18.1005347 L0.237784407,0.240578583 L12.8694174,0.240578583 L12.8694174,18.1005347 Z" id="Shape" fill="#000000"></path>
                    <path d="M1.65457152,15.1665098 C1.65275531,15.1848116 1.65163764,15.2039517 1.65010084,15.2218345 C1.64060064,15.3964705 1.58024643,15.5317086 1.37263913,15.5317086 C1.06583857,15.5317086 1.04669846,15.3443591 1.04669846,15.0879934 L1.04669846,14.9516376 C1.05410303,14.7056104 1.07450051,14.525386 1.37263913,14.525386 C1.53833379,14.5270625 1.63179899,14.6099099 1.6446522,14.7735089 C1.64758608,14.7965608 1.65024055,14.8232452 1.64842433,14.8465766 L1.46526608,14.8465766 C1.45744238,14.7853841 1.46358957,14.6692861 1.37263913,14.6692861 C1.22552574,14.6692861 1.23726129,14.8380544 1.23726129,14.9132177 L1.23726129,15.1775468 C1.23726129,15.2574602 1.24466585,15.3858526 1.37263913,15.3858526 C1.47392802,15.3858526 1.46317044,15.2281214 1.46652345,15.1665098 L1.65457152,15.1665098 L1.65457152,15.1665098 Z" id="Path" fill="#FFFFFF"></path>
                    <path d="M1.79455976,14.9514979 C1.80238345,14.7054707 1.82236181,14.5252463 2.12050043,14.5252463 C2.41863904,14.5252463 2.43819828,14.7054707 2.44616168,14.9514979 L2.44616168,15.0878537 C2.44616168,15.3440797 2.42660245,15.5315689 2.12050043,15.5315689 C1.81467783,15.5315689 1.79455976,15.3442194 1.79455976,15.0878537 L1.79455976,14.9514979 Z M1.98554171,15.1775468 C1.98554171,15.2574602 1.99196832,15.3858526 2.12036072,15.3858526 C2.2532238,15.3858526 2.25448118,15.2545263 2.25448118,15.1617597 L2.25448118,14.917409 C2.25448118,14.8404294 2.25867245,14.6692861 2.12036072,14.6692861 C1.9742253,14.6692861 1.98554171,14.8380544 1.98554171,14.9132177 L1.98554171,15.1775468 Z" id="Shape" fill="#FFFFFF"></path>
                    <path d="M3.06269669,14.5489968 L3.24990651,14.5489968 L3.24990651,15.5076787 L3.054873,15.5076787 L2.90859787,15.1663701 C2.86025862,15.0520883 2.82030189,14.9364094 2.77615391,14.7851047 L2.77349944,14.7851047 C2.78048488,14.8654373 2.78802916,14.9611378 2.79389693,15.0600517 C2.79920586,15.1553331 2.802978,15.2499159 2.802978,15.3274543 L2.802978,15.5076787 L2.61674615,15.5076787 L2.61674615,14.5489968 L2.80996344,14.5489968 L2.95442236,14.898688 C3.00192336,15.0091977 3.04299775,15.1226412 3.0881237,15.2791151 L3.09035904,15.2791151 C3.08379272,15.1923559 3.07694699,15.0984716 3.07149835,15.0066829 C3.06660854,14.9148942 3.06255698,14.8231055 3.06255698,14.7367655 L3.06255698,14.5489968 L3.06269669,14.5489968 Z" id="Path" fill="#FFFFFF"></path>
                    <polygon id="Path" fill="#FFFFFF" points="3.36265152 14.5489968 3.98407634 14.5489968 3.98407634 14.6896836 3.76752767 14.6896836 3.76752767 15.5076787 3.58017815 15.5076787 3.58017815 14.6896836 3.36265152 14.6896836"></polygon>
                    <polygon id="Path" fill="#FFFFFF" points="4.09011533 15.5076787 4.09011533 14.5489968 4.6155602 14.5489968 4.6155602 14.6896836 4.27704573 14.6896836 4.27704573 14.9315196 4.58901552 14.9315196 4.58901552 15.0722063 4.27704573 15.0722063 4.27704573 15.3675508 4.6155602 15.3675508 4.6155602 15.5076787"></polygon>
                    <path d="M5.20792558,14.5489968 L5.39387802,14.5489968 L5.39387802,15.5076787 L5.19912393,15.5076787 L5.05466501,15.1663701 C5.0054875,15.0520883 4.96539107,14.9364094 4.9213828,14.7851047 L4.91872833,14.7851047 C4.92585348,14.8654373 4.93325805,14.9611378 4.93912582,15.0600517 C4.945273,15.1553331 4.94820689,15.2499159 4.94820689,15.3274543 L4.94820689,15.5076787 L4.76169562,15.5076787 L4.76169562,14.5489968 L4.95435408,14.5489968 L5.09979096,14.898688 C5.14785079,15.0091977 5.18724868,15.1226412 5.23335259,15.2791151 L5.23558793,15.2791151 C5.2288819,15.1923559 5.22189646,15.0984716 5.21714636,15.0066829 C5.21197714,14.9148942 5.20778587,14.8231055 5.20778587,14.7367655 L5.20778587,14.5489968 L5.20792558,14.5489968 Z" id="Path" fill="#FFFFFF"></path>
                    <polygon id="Path" fill="#FFFFFF" points="5.50802012 14.5489968 6.12916552 14.5489968 6.12916552 14.6896836 5.91149918 14.6896836 5.91149918 15.5076787 5.72554675 15.5076787 5.72554675 14.6896836 5.50802012 14.6896836"></polygon>
                    <path d="M6.75813462,15.0942803 L6.75813462,15.5076787 L6.57106451,15.5076787 L6.57106451,14.5489968 L6.92382927,14.5489968 C7.08533267,14.5489968 7.20659992,14.601667 7.20659992,14.7781193 C7.20659992,14.8834597 7.17963612,14.992712 7.05501585,15.0101756 L7.05501585,15.0131095 C7.16538582,15.0274995 7.19821739,15.0942803 7.19821739,15.1877455 C7.19821739,15.2264449 7.19332758,15.4614351 7.2378947,15.4899357 L7.2378947,15.5076787 L7.03238303,15.5076787 C7.01044874,15.4464863 7.01464001,15.3282926 7.0129635,15.2650045 C7.01198554,15.2063268 7.0129635,15.1259942 6.94897686,15.107413 C6.89798314,15.0933024 6.84447467,15.0941406 6.79082648,15.0941406 L6.75813462,15.0941406 L6.75813462,15.0942803 Z M6.75813462,14.9540127 L6.90440975,14.9540127 C6.96574192,14.9506597 7.01324292,14.9132177 7.01324292,14.8150024 C7.01324292,14.7079854 6.96658017,14.6901027 6.89644635,14.6896836 L6.75813462,14.6896836 L6.75813462,14.9540127 Z" id="Shape" fill="#FFFFFF"></path>
                    <path d="M7.30872707,15.5076787 L7.54776885,14.5489968 L7.79826676,14.5489968 L8.02459505,15.5076787 L7.82564969,15.5076787 L7.77619277,15.2650045 L7.55824701,15.2650045 L7.50851067,15.5076787 L7.30872707,15.5076787 Z M7.58688732,15.1244574 L7.7465745,15.1244574 L7.69669845,14.8516061 C7.68719825,14.807039 7.68412466,14.7641484 7.67797747,14.7194416 C7.67630096,14.6963896 7.67448475,14.6748745 7.67099203,14.654477 L7.66917581,14.654477 C7.66526397,14.6748745 7.66428601,14.6965293 7.6626095,14.7194416 C7.65548435,14.7640087 7.65129309,14.8068993 7.64305027,14.8516061 L7.58688732,15.1244574 Z" id="Shape" fill="#FFFFFF"></path>
                    <polygon id="Path" fill="#FFFFFF" points="8.0603605 14.5489968 8.68192503 14.5489968 8.68192503 14.6896836 8.46509695 14.6896836 8.46509695 15.5076787 8.27788713 15.5076787 8.27788713 14.6896836 8.0603605 14.6896836"></polygon>
                    <polygon id="Path" fill="#FFFFFF" points="8.78894198 15.5076787 8.78894198 14.5489968 9.31340888 14.5489968 9.31340888 14.6896836 8.97587238 14.6896836 8.97587238 14.9315196 9.28616566 14.9315196 9.28616566 15.0722063 8.97587238 15.0722063 8.97587238 15.3675508 9.31340888 15.3675508 9.31340888 15.5076787"></polygon>
                    <path d="M9.46541208,15.5076787 L9.46541208,14.5489968 L9.85338346,14.5489968 C9.89892854,14.5489968 9.98987898,14.5672987 10.0468802,14.6561535 C10.0889325,14.7232137 10.1003887,14.8299512 10.1003887,14.9879619 C10.1003887,15.1775468 10.1003887,15.3963308 9.94824575,15.4835091 C9.90703165,15.505164 9.85645706,15.5076787 9.8096546,15.5076787 L9.46541208,15.5076787 Z M9.73239563,15.3675508 C9.89892854,15.3675508 9.90954641,15.2826078 9.90954641,15.0058446 C9.90954641,14.7781193 9.88537678,14.6896836 9.77402885,14.6896836 L9.6512248,14.6896836 L9.6512248,15.3675508 L9.73239563,15.3675508 Z" id="Shape" fill="#FFFFFF"></path>
                    <path d="M10.6029213,15.5076787 L10.6029213,14.5489968 L10.9027364,14.5489968 C10.9834881,14.5489968 11.0625633,14.5527689 11.114535,14.6187115 C11.1570064,14.6709626 11.1645507,14.7258682 11.1645507,14.7908328 C11.1645507,14.8745184 11.1445724,14.9561083 11.0448203,14.9921532 L11.0448203,14.9942488 C11.1484842,15.0090579 11.1892792,15.0933024 11.1892792,15.2177829 C11.1892792,15.2573205 11.1866247,15.296439 11.1755877,15.3349986 C11.135631,15.4569644 11.0632618,15.507539 10.9316561,15.507539 L10.6029213,15.507539 L10.6029213,15.5076787 Z M10.8279922,15.3675508 C10.8671106,15.3675508 10.9066482,15.3709038 10.9407372,15.3572123 C10.9911721,15.3351383 10.9966207,15.2718502 10.9966207,15.2242095 C10.9966207,15.1209647 10.9759438,15.076677 10.8611032,15.076677 L10.788734,15.076677 L10.788734,15.3674111 L10.8279922,15.3674111 L10.8279922,15.3675508 Z M10.8228229,14.9365491 C10.868368,14.9365491 10.9260678,14.9386447 10.9562449,14.9016219 C10.9732893,14.8778714 10.9759438,14.8455986 10.9759438,14.7979579 C10.9759438,14.727405 10.9601567,14.6917792 10.8747946,14.6896836 L10.7888737,14.6896836 L10.7888737,14.9365491 L10.8228229,14.9365491 L10.8228229,14.9365491 Z" id="Shape" fill="#FFFFFF"></path>
                    <path d="M11.5810227,14.7997741 C11.6007216,14.847834 11.6167882,14.8971512 11.6244721,14.9477258 L11.627406,14.9477258 C11.6415166,14.8724227 11.6665245,14.8197525 11.6888779,14.7670823 L11.7770342,14.5491365 L11.9814282,14.5491365 L11.7177976,15.1002878 L11.7177976,15.5076787 L11.5317055,15.5076787 L11.5317055,15.1001481 L11.2725456,14.5489968 L11.4756822,14.5489968 L11.5810227,14.7997741 Z" id="Path" fill="#FFFFFF"></path>
                    <polygon id="Path" fill="#FFFFFF" points="1.07953003 17.2084939 1.07953003 15.7907288 3.09217525 15.7907288 3.09217525 16.1226769 1.88802496 16.1226769 1.88802496 16.3253944 2.90720078 16.3253944 2.90720078 16.6560852 1.88802496 16.6560852 1.88802496 16.8783619 3.13911741 16.8783619 3.13911741 17.2084939"></polygon>
                    <path d="M5.16279963,16.2034286 C5.15008613,16.1553688 5.10496018,16.1243534 5.04614277,16.1070295 C4.98886216,16.0895659 4.91733124,16.0807643 4.83727809,16.0807643 C4.65970818,16.0807643 4.57979474,16.1117796 4.57979474,16.1631925 C4.57979474,16.3744322 5.99909661,16.2435251 5.99909661,16.7577932 C5.99909661,17.0862486 5.52241013,17.2460755 4.84426353,17.2460755 C4.19322044,17.2460755 3.7679468,17.0279901 3.75104203,16.7721832 L4.5253083,16.7721832 C4.54207336,16.8235961 4.59097144,16.8604792 4.65956847,16.8838106 C4.72411395,16.9081199 4.80933633,16.9199951 4.88924977,16.9199951 C5.09140843,16.9199951 5.22594802,16.8821341 5.22594802,16.8159121 C5.22594802,16.6013193 3.80552847,16.748293 3.80552847,16.2073405 C3.80552847,15.9055694 4.25846446,15.7542648 4.8754186,15.7542648 C5.56055064,15.7542648 5.87266013,15.9557249 5.93147755,16.2034286 L5.16279963,16.2034286 L5.16279963,16.2034286 Z" id="Path" fill="#FFFFFF"></path>
                    <path d="M7.47484085,16.715182 L7.47484085,17.2086336 L6.66578709,17.2086336 L6.66578709,15.7908685 L7.83067921,15.7908685 C8.65300531,15.7908685 8.92418012,15.9200991 8.92418012,16.1954652 C8.92418012,16.3590642 8.79746422,16.4958392 8.50994348,16.5426416 C8.76966217,16.5979663 8.92837138,16.6319156 8.92837138,16.9174804 C8.92837138,17.1023152 8.91677555,17.1660224 9.01317464,17.1660224 L9.01317464,17.2086336 L8.19350301,17.2086336 C8.17310552,17.1776182 8.15312716,17.0866678 8.15312716,16.9612092 C8.15312716,16.7749774 8.09794217,16.715182 7.72086808,16.715182 L7.47484085,16.715182 L7.47484085,16.715182 Z M7.47484085,16.4048887 L7.79225928,16.4048887 C8.04345574,16.4048887 8.17645853,16.3678659 8.17645853,16.2702094 C8.17645853,16.1707368 8.04094098,16.1226769 7.8512164,16.1226769 L7.47484085,16.1226769 L7.47484085,16.4048887 Z" id="Shape" fill="#FFFFFF"></path>
                    <path d="M9.71367465,17.2084939 L9.71367465,15.7907288 L10.8925376,15.7907288 C11.448439,15.7907288 11.8904777,15.8667304 11.8904777,16.1481039 C11.8904777,16.2942394 11.7254816,16.4005578 11.5678901,16.4563016 C11.835153,16.4958392 11.9787737,16.6284228 11.9787737,16.781404 C11.9787737,17.0981239 11.5579707,17.2086336 10.9160087,17.2086336 L9.71367465,17.2086336 L9.71367465,17.2084939 Z M10.5218902,16.6169667 L10.5218902,16.8783619 L10.8746549,16.8783619 C11.0744385,16.8783619 11.2243461,16.8541923 11.2243461,16.748293 C11.2243461,16.6242316 11.0368569,16.6171064 10.778675,16.6171064 L10.5218902,16.6171064 L10.5218902,16.6169667 Z M10.5218902,16.1226769 L10.5218902,16.3590642 L10.8580296,16.3590642 C11.0191138,16.3590642 11.1363295,16.3168722 11.1363295,16.2354219 C11.1363295,16.1244931 10.9774806,16.1226769 10.8071756,16.1226769 L10.5218902,16.1226769 Z" id="Shape" fill="#FFFFFF"></path>
                    <polygon id="Path" fill="#FFFFFF" points="0.905452845 1.178863 1.60176159 1.178863 1.60176159 1.38674972 1.1613994 1.38674972 1.1613994 1.94307023 1.57605517 1.94307023 1.57605517 2.15081724 1.1613994 2.15081724 1.1613994 2.75212399 1.60176159 2.75212399 1.60176159 2.95861362 0.905452845 2.95861362"></polygon>
                    <polygon id="Path" fill="#FFFFFF" points="1.63710792 1.178863 1.89291476 1.178863 2.15919977 2.59495157 2.16353074 2.59495157 2.43023488 1.178863 2.68604172 1.178863 2.30980588 2.95861362 2.01334377 2.95861362"></polygon>
                    <polygon id="Path" fill="#FFFFFF" points="2.87576629 1.178863 3.57193533 1.178863 3.57193533 1.38674972 3.13143343 1.38674972 3.13143343 1.94307023 3.54622891 1.94307023 3.54622891 2.15081724 3.13143343 2.15081724 3.13143343 2.75212399 3.57193533 2.75212399 3.57193533 2.95861362 2.87576629 2.95861362"></polygon>
                    <path d="M3.68216559,1.178863 L4.07810038,1.178863 C4.4523803,1.178863 4.49066051,1.27568121 4.49066051,1.66546881 C4.49066051,1.90465031 4.4571304,2.00803483 4.24742746,2.06964642 L4.24742746,2.07481564 C4.42136494,2.09186012 4.48032206,2.17764133 4.48032206,2.34515221 L4.48032206,2.73270447 C4.48032206,2.79655139 4.48032206,2.88526649 4.4952709,2.95931217 L4.25469232,2.95931217 C4.22940502,2.91516418 4.22437551,2.87045736 4.22437551,2.79920586 L4.22437551,2.39670476 C4.22437551,2.22961301 4.19377928,2.18546503 4.0245919,2.18546503 L3.93699447,2.18546503 L3.93699447,2.95931217 L3.68202588,2.95931217 L3.68202588,1.178863 L3.68216559,1.178863 Z M3.93727389,1.97785773 L4.00419441,1.97785773 C4.20663249,1.97785773 4.23499338,1.94125402 4.23499338,1.67524843 C4.23499338,1.41091935 4.21920628,1.38633059 4.06021765,1.38633059 L3.93713418,1.38633059 L3.93713418,1.97785773 L3.93727389,1.97785773 Z" id="Shape" fill="#FFFFFF"></path>
                    <polygon id="Path" fill="#FFFFFF" points="4.52279354 1.178863 4.77860039 1.178863 5.0007374 1.92854051 5.00618605 1.92854051 5.26115464 1.178863 5.48664467 1.178863 5.13080631 2.22947331 5.13080631 2.95861362 4.87569801 2.95861362 4.87569801 2.22947331"></polygon>
                    <path d="M5.55635937,1.63277695 C5.55635937,1.38465409 5.64032437,1.16531124 5.98791991,1.16531124 C6.31875039,1.16531124 6.42395113,1.33016765 6.42395113,1.60553373 L6.42395113,2.50553793 C6.42395113,2.7538005 6.33914787,2.97384188 5.98791991,2.97384188 C5.66156011,2.97384188 5.55635937,2.80856635 5.55635937,2.53278115 L5.55635937,1.63277695 Z M5.81230592,2.54731086 C5.81230592,2.70071115 5.88369713,2.78202168 5.98805962,2.78202168 C6.09591482,2.78202168 6.16814428,2.70071115 6.16814428,2.54731086 L6.16814428,1.61279859 C6.16814428,1.43816256 6.10639298,1.35685203 5.98805962,1.35685203 C5.8737778,1.35685203 5.81230592,1.43816256 5.81230592,1.61279859 L5.81230592,2.54731086 Z" id="Shape" fill="#FFFFFF"></path>
                    <polygon id="Path" fill="#FFFFFF" points="6.60515346 1.178863 6.95819764 1.178863 7.25968927 2.65823967 7.26583646 2.65823967 7.26583646 1.178863 7.50515766 1.178863 7.50515766 2.95861362 7.13730435 2.95861362 6.83539359 1.44081703 6.8307832 1.44081703 6.8307832 2.95861362 6.60515346 2.95861362"></polygon>
                    <polygon id="Path" fill="#FFFFFF" points="7.69474253 1.178863 8.39188953 1.178863 8.39188953 1.38674972 7.95068908 1.38674972 7.95068908 1.94307023 8.36548456 1.94307023 8.36548456 2.15081724 7.95068908 2.15081724 7.95068908 2.75212399 8.39188953 2.75212399 8.39188953 2.95861362 7.69474253 2.95861362"></polygon>
                    <path d="M9.34819638,1.51458329 L9.34274774,1.51458329 C9.28812159,1.58345973 9.24034117,1.62816656 9.14296413,1.69899893 L9.14296413,1.46833967 C9.20206096,1.42628732 9.33925502,1.25793819 9.37362338,1.17900271 L9.58863525,1.17900271 L9.58863525,2.95917246 L9.34805667,2.95917246 L9.34805667,1.51458329 L9.34819638,1.51458329 Z" id="Path" fill="#FFFFFF"></path>
                    <path d="M9.95886362,1.60301897 C9.95886362,1.2833652 10.0366814,1.16489212 10.3404084,1.16489212 C10.6446942,1.16489212 10.7219532,1.2833652 10.7219532,1.60301897 L10.7219532,2.53501649 C10.7219532,2.85494968 10.6445545,2.97398159 10.3404084,2.97398159 C10.0365417,2.97398159 9.95886362,2.85494968 9.95886362,2.53501649 L9.95886362,1.60301897 Z M10.1998613,2.57497321 C10.1998613,2.68548289 10.1998613,2.79641169 10.3405481,2.79641169 C10.481654,2.79641169 10.481654,2.68548289 10.481654,2.57497321 L10.481654,1.56404021 C10.481654,1.45311141 10.481654,1.34218261 10.3405481,1.34218261 C10.1998613,1.34218261 10.1998613,1.45311141 10.1998613,1.56404021 L10.1998613,2.57497321 Z" id="Shape" fill="#FFFFFF"></path>
                    <polygon id="Path" fill="#FFFFFF" points="11.451792 2.43889682 10.9113983 2.43889682 10.9113983 2.23198806 11.451792 2.23198806 11.451792 1.71185214 11.6655465 1.71185214 11.6655465 2.23198806 12.2052417 2.23198806 12.2052417 2.43889682 11.6655465 2.43889682 11.6655465 2.95861362 11.451792 2.95861362"></polygon>
                    <path d="M2.13614782,10.9869808 C2.47382403,10.8891846 2.81205907,10.7451448 2.99605559,10.5751192 L2.99605559,12.850417 L3.64681926,12.850417 L3.64681926,9.99756296 L3.01310006,9.99756296 C2.77377886,10.1998613 2.52998697,10.3145623 2.13614782,10.4356898 L2.13614782,10.9869808 M1.87209815,5.48468875 L8.79327296,3.43460156 L9.48650811,5.60875018 L6.02061177,6.63547028 L6.30436038,7.52625369 L9.50676589,6.57735141 L10.1998613,8.75233827 L6.99899262,9.70054202 L7.2981092,10.6379882 L10.8782873,9.57634088 L11.572221,11.7496512 L4.5380218,13.834945 L1.87209815,5.48468875 M6.6611767,11.4900723 C6.6611767,10.5453612 6.15123951,9.98526859 5.3048835,9.98526859 C4.16164625,9.98526859 3.87971386,10.759954 3.87971386,11.4900723 C3.87971386,12.3800174 4.32915712,12.9944568 5.27093426,12.9944568 C6.21089518,12.9944568 6.6611767,12.3800174 6.6611767,11.4900723 M7.44494316,11.6091042 L6.95358725,11.6091042 L6.95358725,11.879301 L7.44494316,11.879301 L7.44494316,12.351936 L7.72477992,12.351936 L7.72477992,11.879301 L8.21655496,11.879301 L8.21655496,11.6091042 L7.72477992,11.6091042 L7.72477992,11.1352119 L7.44494316,11.1352119 L7.44494316,11.6091042 Z" id="Shape" fill="#000000"></path>
                    <path d="M4.47696905,11.462829 C4.48213828,10.5091767 4.86298451,10.287319 5.29887602,10.2891242 C5.78757746,10.2917897 6.06531859,10.6546135 6.06154645,11.490212 C6.05861257,12.0116053 5.91792579,12.6507731 5.29119204,12.6468791 C4.67926742,12.645045 4.47347633,12.1589981 4.47696905,11.462829" id="Path" fill="#000000"></path>
                    <path d="M1.93552595,3.70954852 L1.74859556,3.70954852 L1.74859556,4.24882455 L1.67091745,4.24882455 L1.67091745,3.70954852 L1.48245026,3.70954852 L1.48245026,3.65310615 L1.93552595,3.65310615 L1.93552595,3.70954852 Z M2.3514391,4.09374776 L2.35409357,4.09374776 L2.52132502,3.65310615 L2.66131326,3.65310615 L2.66131326,4.24896426 L2.58349545,4.24896426 L2.58349545,3.7156957 L2.58056156,3.7156957 L2.37504989,4.24896426 L2.3275489,4.24896426 L2.12217693,3.7156957 L2.11938276,3.7156957 L2.11938276,4.24896426 L2.04156495,4.24896426 L2.04156495,3.65310615 L2.18127376,3.65310615 L2.3514391,4.09374776 Z" id="Shape" fill="#000000"></path>
                </g>
            </g>
        </g>
    </g>
</svg>