<?xml version="1.0" encoding="UTF-8"?>
<svg width="14px" height="19px" viewBox="0 0 14 19" version="1.1" xmlns="http://www.w3.org/2000/svg" xmlns:xlink="http://www.w3.org/1999/xlink">
    <!-- Generator: Sketch 58 (84663) - https://sketch.com -->
    <title>everyone</title>
    <desc>Created with Sketch.</desc>
    <g id="apps" stroke="none" stroke-width="1" fill="none" fill-rule="evenodd">
        <g id="Bench-apps-1200-Copy" transform="translate(-488.000000, -1449.000000)" fill-rule="nonzero">
            <g id="Group-17-Copy-5" transform="translate(160.000000, 1014.000000)">
                <g id="everyone" transform="translate(328.000000, 435.425790)">
                    <polygon id="Path" fill="#FFFFFF" points="12.8689983 0.193357003 0.232894598 0.193357003 0.232894598 18.1477562 12.9616252 18.1477562 12.9616252 0.193357003"></polygon>
                    <rect id="Rectangle" fill="#000000" x="0.565960419" y="0.531312632" width="12.064974" height="17.2858925"></rect>
                    <rect id="Rectangle" fill="#FFFFFF" x="1.2026135" y="3.37857833" width="10.7832854" height="10.7226517"></rect>
                    <path d="M13.0066115,0.0638469295 L0.0959799575,0.0638469295 L0.0959799575,18.2755898 L13.0984002,18.2755898 L13.0984002,0.0638469295 L13.0066115,0.0638469295 Z M12.913286,18.0999758 L0.281233849,18.0999758 L0.281233849,0.23974033 L12.913286,0.23974033 L12.913286,18.0999758 Z" id="Shape" fill="#000000"></path>
                    <path d="M1.7525074,15.1660907 C1.7508309,15.1843925 1.74985294,15.2035326 1.74817643,15.2214153 C1.73881594,15.3964705 1.67846173,15.5311498 1.47029559,15.5311498 C1.16349503,15.5311498 1.14477405,15.3442194 1.14477405,15.0879934 L1.14477405,14.9512185 C1.15245803,14.7056104 1.17285552,14.525386 1.47029559,14.525386 C1.63599025,14.5270625 1.72945545,14.6094907 1.74230866,14.7735089 C1.74566167,14.7965608 1.74817643,14.8228261 1.74649992,14.8465766 L1.56292254,14.8465766 C1.55523855,14.784965 1.56124603,14.6690067 1.47029559,14.6690067 C1.32318221,14.6690067 1.33603542,14.8377749 1.33603542,14.9129383 L1.33603542,15.1772674 C1.33603542,15.2570411 1.34274144,15.3854335 1.47029559,15.3854335 C1.57228303,15.3854335 1.56124603,15.2282611 1.56459904,15.1660907 L1.7525074,15.1660907 L1.7525074,15.1660907 Z" id="Path" fill="#FFFFFF"></path>
                    <path d="M1.89277506,14.9510788 C1.90031933,14.7054707 1.92071682,14.5252463 2.2182966,14.5252463 C2.51671463,14.5252463 2.53613416,14.7054707 2.54381814,14.9510788 L2.54381814,15.0878537 C2.54381814,15.3440797 2.52425891,15.5315689 2.2182966,15.5315689 C1.91233429,15.5315689 1.89277506,15.3442194 1.89277506,15.0878537 L1.89277506,14.9510788 Z M2.08403643,15.1775468 C2.08403643,15.2569014 2.0899042,15.3852938 2.2182966,15.3852938 C2.35088027,15.3852938 2.35255677,15.2543866 2.35255677,15.1617597 L2.35255677,14.9169898 C2.35255677,14.8404294 2.35674804,14.6692861 2.2182966,14.6692861 C2.07216118,14.6692861 2.08403643,14.8380544 2.08403643,14.9127986 L2.08403643,15.1775468 Z" id="Shape" fill="#FFFFFF"></path>
                    <path d="M3.16091199,14.5485777 L3.34784239,14.5485777 L3.34784239,15.5076787 L3.15322801,15.5076787 L3.00709258,15.1659509 C2.95861362,15.0520883 2.9186569,14.9364094 2.87450891,14.7846856 L2.87185445,14.7846856 C2.87870018,14.8650182 2.88638416,14.9611378 2.89225193,15.0596325 C2.89742116,15.154914 2.90161243,15.2499159 2.90161243,15.3268955 L2.90161243,15.5076787 L2.71538057,15.5076787 L2.71538057,14.5485777 L2.90831845,14.5485777 L3.05291707,14.8982689 C3.10041807,15.0087785 3.14121305,15.1226412 3.186339,15.2791151 L3.18899346,15.2791151 C3.18214773,15.1923559 3.17544171,15.0980525 3.17027248,15.0062638 C3.16510325,14.9144751 3.16091199,14.8226864 3.16091199,14.7367655 L3.16091199,14.5485777 Z" id="Path" fill="#FFFFFF"></path>
                    <polygon id="Path" fill="#FFFFFF" points="3.46086682 14.5485777 4.08229164 14.5485777 4.08229164 14.6896836 3.86546356 14.6896836 3.86546356 15.5076787 3.67853316 15.5076787 3.67853316 14.6896836 3.46086682 14.6896836"></polygon>
                    <polygon id="Path" fill="#FFFFFF" points="4.18847034 15.5076787 4.18847034 14.5485777 4.71377549 14.5485777 4.71377549 14.6896836 4.37540074 14.6896836 4.37540074 14.9311004 4.68737053 14.9311004 4.68737053 15.0722063 4.37540074 15.0722063 4.37540074 15.3675508 4.71377549 15.3675508 4.71377549 15.5076787"></polygon>
                    <path d="M5.30614088,14.5485777 L5.49237273,14.5485777 L5.49237273,15.5076787 L5.29775835,15.5076787 L5.15329943,15.1659509 C5.10398222,15.0520883 5.0640255,14.9364094 5.01987751,14.7846856 L5.01722305,14.7846856 C5.02406878,14.8650182 5.03175276,14.9611378 5.03762053,15.0596325 C5.0434883,15.154914 5.04698102,15.2499159 5.04698102,15.3268955 L5.04698102,15.5076787 L4.86005063,15.5076787 L4.86005063,14.5485777 L5.0529885,14.5485777 L5.19842538,14.8982689 C5.24690434,15.0087785 5.2858831,15.1226412 5.3318473,15.2791151 L5.33450177,15.2791151 C5.32765604,15.1923559 5.3208103,15.0980525 5.31578079,15.0062638 C5.31061156,14.9144751 5.3064203,14.8226864 5.3064203,14.7367655 L5.3064203,14.5485777 L5.30614088,14.5485777 Z" id="Path" fill="#FFFFFF"></path>
                    <polygon id="Path" fill="#FFFFFF" points="5.60623542 14.5485777 6.22752053 14.5485777 6.22752053 14.6896836 6.0099939 14.6896836 6.0099939 15.5076787 5.82390176 15.5076787 5.82390176 14.6896836 5.60623542 14.6896836"></polygon>
                    <path d="M6.85648962,15.0938612 L6.85648962,15.5076787 L6.66955923,15.5076787 L6.66955923,14.5481586 L7.02232399,14.5481586 C7.18382738,14.5481586 7.30537405,14.601667 7.30537405,14.7783987 C7.30537405,14.88332 7.27813083,14.9925723 7.15323115,15.0096168 L7.15323115,15.0129698 C7.26374083,15.0269407 7.29685182,15.0937215 7.29685182,15.1871867 C7.29685182,15.225886 7.29168259,15.4607366 7.33666883,15.489796 L7.33666883,15.5076787 L7.13101745,15.5076787 C7.10894346,15.4464863 7.11327443,15.3274543 7.11145822,15.2655633 C7.11061996,15.2060474 7.11145822,15.1261339 7.04775099,15.107413 C6.99675728,15.0928832 6.94310909,15.0937215 6.88960061,15.0937215 L6.85648962,15.0937215 L6.85648962,15.0938612 Z M6.85648962,14.9535935 L7.00276476,14.9535935 C7.06395722,14.9502405 7.11145822,14.9127986 7.11145822,14.8150024 C7.11145822,14.7079854 7.06479547,14.6901027 6.99508077,14.6892645 L6.85648962,14.6892645 L6.85648962,14.9535935 Z" id="Shape" fill="#FFFFFF"></path>
                    <path d="M7.40722178,15.5076787 L7.64598415,14.5489968 L7.89662177,14.5489968 L8.12281034,15.5076787 L7.9240047,15.5076787 L7.87468748,15.2650045 L7.6563226,15.2650045 L7.60700539,15.5076787 L7.40722178,15.5076787 Z M7.68510262,15.1244574 L7.84492951,15.1244574 L7.79477404,14.8516061 C7.78555326,14.8066199 7.78206054,14.7641484 7.77605306,14.7190224 C7.77437655,14.6959705 7.77270005,14.6748745 7.76934704,14.654477 L7.76767053,14.654477 C7.76347927,14.6748745 7.7625013,14.6961102 7.7608248,14.7190224 C7.75397907,14.7640087 7.7497878,14.8064802 7.74126556,14.8516061 L7.68510262,15.1244574 Z" id="Shape" fill="#FFFFFF"></path>
                    <polygon id="Path" fill="#FFFFFF" points="8.1585758 14.5485777 8.78000062 14.5485777 8.78000062 14.6896836 8.56317254 14.6896836 8.56317254 15.5076787 8.37624214 15.5076787 8.37624214 14.6896836 8.1585758 14.6896836"></polygon>
                    <polygon id="Path" fill="#FFFFFF" points="8.88701757 15.5076787 8.88701757 14.5485777 9.41134477 14.5485777 9.41134477 14.6896836 9.07394797 14.6896836 9.07394797 14.9311004 9.38424125 14.9311004 9.38424125 15.0722063 9.07394797 15.0722063 9.07394797 15.3675508 9.41134477 15.3675508 9.41134477 15.5076787"></polygon>
                    <path d="M9.56348767,15.5076787 L9.56348767,14.5485777 L9.95201789,14.5485777 C9.99700413,14.5485777 10.0879546,14.5668795 10.1449558,14.6561535 C10.1874272,14.7232137 10.1984642,14.8303704 10.1984642,14.9875428 C10.1984642,15.1771277 10.1984642,15.3964705 10.0463213,15.4839282 C10.0055264,15.505164 9.95453265,15.5076787 9.90773019,15.5076787 L9.56348767,15.5076787 Z M9.83047122,15.3671316 C9.99700413,15.3671316 10.0080411,15.2826078 10.0080411,15.0054255 C10.0080411,14.7777001 9.98331266,14.6892645 9.87210444,14.6892645 L9.74971952,14.6892645 L9.74971952,15.3671316 L9.83047122,15.3671316 Z" id="Shape" fill="#FFFFFF"></path>
                    <path d="M10.7007174,15.5076787 L10.7007174,14.5481586 L11.000812,14.5481586 C11.0815637,14.5481586 11.1606389,14.5523498 11.2124708,14.6187115 C11.2549423,14.6713817 11.2626263,14.7258682 11.2626263,14.7904136 C11.2626263,14.8736801 11.2430671,14.956248 11.1428958,14.9918738 L11.1428958,14.9943885 C11.2465598,15.0089182 11.2873548,15.0930229 11.2873548,15.2179226 C11.2873548,15.2570411 11.28484,15.2961596 11.273803,15.3348589 C11.2338463,15.4568247 11.1616168,15.5078184 11.0298714,15.5078184 L10.7007174,15.5078184 L10.7007174,15.5076787 Z M10.9260678,15.3667125 C10.9651862,15.3667125 11.005143,15.3704847 11.0392319,15.357352 C11.0893874,15.3348589 11.0952551,15.2715708 11.0952551,15.2239301 C11.0952551,15.1211044 11.0741591,15.0759785 10.9593185,15.0759785 L10.887089,15.0759785 L10.887089,15.3667125 L10.9260678,15.3667125 L10.9260678,15.3667125 Z M10.9208985,14.9361299 C10.9668627,14.9361299 11.0245625,14.9386447 11.0544602,14.9016219 C11.0715046,14.8770331 11.0740194,14.8451795 11.0740194,14.7979579 C11.0740194,14.727405 11.0586514,14.6917792 10.9727305,14.6901027 L10.8869493,14.6901027 L10.8869493,14.9361299 L10.9208985,14.9361299 L10.9208985,14.9361299 Z" id="Shape" fill="#FFFFFF"></path>
                    <path d="M11.6790983,14.7997741 C11.6986575,14.8474148 11.7148637,14.8967321 11.722408,14.9473066 L11.725761,14.9473066 C11.7394525,14.8724227 11.7648795,14.8193334 11.7869535,14.7666631 L11.8752495,14.5487174 L12.0792243,14.5487174 L11.8157335,15.0998687 L11.8157335,15.5076787 L11.6296414,15.5076787 L11.6296414,15.099729 L11.3704815,14.5485777 L11.5736181,14.5485777 L11.6790983,14.7997741 Z" id="Path" fill="#FFFFFF"></path>
                    <polygon id="Path" fill="#FFFFFF" points="1.17802475 17.2084939 1.17802475 15.7907288 3.19066997 15.7907288 3.19066997 16.1226769 1.98624025 16.1226769 1.98624025 16.3253944 3.00541608 16.3253944 3.00541608 16.6552469 1.98624025 16.6552469 1.98624025 16.8779428 3.23733271 16.8779428 3.23733271 17.2084939"></polygon>
                    <path d="M5.26115464,16.2030095 C5.24844114,16.1553688 5.20331519,16.1239343 5.1447772,16.1068898 C5.08693774,16.0890071 5.01554654,16.0806246 4.9356331,16.0806246 C4.75806319,16.0806246 4.67801004,16.1112208 4.67801004,16.1626336 C4.67801004,16.3738734 6.09745162,16.2429662 6.09745162,16.7572344 C6.09745162,17.0861089 5.62062543,17.2459358 4.94233912,17.2459358 C4.29129603,17.2459358 3.86630181,17.0282695 3.84925733,16.7724626 L4.6235236,16.7724626 C4.64056807,16.8234564 4.68890732,16.8608983 4.75778377,16.8836709 C4.82232925,16.9075611 4.90741191,16.9194363 4.98732536,16.9194363 C5.18962373,16.9194363 5.3238839,16.8819944 5.3238839,16.8152135 C5.3238839,16.6006208 3.90360406,16.7477342 3.90360406,16.2070611 C3.90360406,15.90529 4.35667976,15.7539854 4.97363389,15.7539854 C5.65876593,15.7539854 5.97073572,15.9554455 6.02941343,16.2027301 L5.26115464,16.2027301 L5.26115464,16.2030095 Z" id="Path" fill="#FFFFFF"></path>
                    <path d="M7.57305615,16.715182 L7.57305615,17.2086336 L6.76386268,17.2086336 L6.76386268,15.7908685 L7.92917392,15.7908685 C8.75108089,15.7908685 9.02225571,15.9200991 9.02225571,16.1954652 C9.02225571,16.3594834 8.89567952,16.4954201 8.60829848,16.5422225 C8.86829659,16.5975472 9.02644697,16.6314964 9.02644697,16.9178995 C9.02644697,17.1023152 9.01540998,17.1656032 9.11138993,17.1656032 L9.11138993,17.2086336 L8.29213743,17.2086336 C8.27173994,17.1771991 8.25134246,17.0862486 8.25134246,16.960371 C8.25134246,16.7751171 8.19601776,16.715182 7.81964221,16.715182 L7.57305615,16.715182 L7.57305615,16.715182 Z M7.57305615,16.4044696 L7.89089371,16.4044696 C8.14153133,16.4044696 8.27509295,16.3674468 8.27509295,16.2693712 C8.27509295,16.1703176 8.13901657,16.1222578 7.9494317,16.1222578 L7.57291644,16.1222578 L7.57291644,16.4044696 L7.57305615,16.4044696 Z" id="Shape" fill="#FFFFFF"></path>
                    <path d="M9.81175024,17.2084939 L9.81175024,15.7907288 L10.9906132,15.7907288 C11.5465146,15.7907288 11.9885533,15.8667304 11.9885533,16.1476848 C11.9885533,16.2938202 11.8235572,16.4001386 11.6663848,16.4561619 C11.9332286,16.4952803 12.0768493,16.6282831 12.0768493,16.7808452 C12.0768493,17.0979842 11.656186,17.2084939 11.0145034,17.2084939 L9.81175024,17.2084939 L9.81175024,17.2084939 Z M10.6201055,16.6169667 L10.6201055,16.8779428 L10.9727305,16.8779428 C11.1725141,16.8779428 11.3229805,16.8541923 11.3229805,16.7478739 C11.3229805,16.6238125 11.1350722,16.6169667 10.8767505,16.6169667 L10.6201055,16.6169667 L10.6201055,16.6169667 Z M10.6201055,16.1226769 L10.6201055,16.3590642 L10.956664,16.3590642 C11.1173291,16.3590642 11.2346845,16.3168722 11.2346845,16.2348631 C11.2346845,16.1243534 11.0756959,16.1226769 10.90581,16.1226769 L10.6201055,16.1226769 L10.6201055,16.1226769 Z" id="Shape" fill="#FFFFFF"></path>
                    <path d="M1.51961281,4.33726023 C1.51961281,4.02529044 1.79665539,3.7711601 2.14341267,3.7711601 C2.48681695,3.7711601 2.76302128,4.02529044 2.76302128,4.33726023 C2.76302128,4.65258303 2.48667724,4.90713255 2.14341267,4.90713255 C1.79665539,4.90727221 1.51961281,4.65258303 1.51961281,4.33726023 M2.65348957,4.33726023 C2.65348957,4.08061513 2.42646274,3.87147103 2.14355238,3.87147103 C1.85966407,3.87147103 1.62928423,4.08061513 1.62928423,4.33726023 C1.62928423,4.59642009 1.85966407,4.80724076 2.14355238,4.80724076 C2.42660245,4.8073804 2.65348957,4.5965598 2.65348957,4.33726023 M2.01096872,4.37693754 L2.01096872,4.66459799 L1.89710603,4.66459799 L1.89710603,3.99483392 L2.1343316,3.99483392 C2.26859177,3.99483392 2.40466816,4.02794491 2.40466816,4.18008781 C2.40466816,4.25608941 2.35535095,4.317701 2.25853274,4.33642198 L2.25853274,4.33935586 C2.35716716,4.35681947 2.37071892,4.39929095 2.38175592,4.4715204 C2.39293262,4.53452908 2.39963865,4.60410407 2.42520536,4.66445828 L2.27893023,4.66445828 C2.27040799,4.62701632 2.2595107,4.58286833 2.25434148,4.54416899 C2.24749574,4.48716779 2.24749574,4.43282106 2.2135465,4.40264396 C2.18560474,4.37679783 2.14732452,4.37973171 2.1073678,4.37679783 L2.01096872,4.37679783 M2.13251539,4.27145738 C2.2388338,4.26852349 2.26509905,4.22605201 2.26509905,4.1767348 C2.26509905,4.12657934 2.2388338,4.09947582 2.14788336,4.09947582 L2.01110842,4.09947582 L2.01110842,4.27145738 L2.13251539,4.27145738 L2.13251539,4.27145738 Z" id="Shape" fill="#000000"></path>
                    <polygon id="Path" fill="#FFFFFF" points="11.5159184 2.52272211 11.5159184 2.1470451 12.064974 2.1470451 12.064974 1.79930986 11.5159184 1.79930986 11.5159184 1.47770016 12.0828568 1.47770016 12.0828568 1.12703103 11.0763944 1.12703103 11.0763944 2.8694794 12.0862098 2.8694794 12.0862098 2.52272211"></polygon>
                    <polygon id="Path" fill="#FFFFFF" points="10.3828799 2.10191916 10.3761739 2.10191916 10.0361226 1.12703103 9.58472341 1.12703103 9.58472341 2.86989852 10.0011954 2.86989852 9.96137838 1.89962079 9.9664079 1.8950104 10.3072974 2.86989852 10.7568804 2.86989852 10.7568804 1.12703103 10.3404084 1.12703103"></polygon>
                    <path d="M8.73152166,1.0964348 C8.34732241,1.0964348 8.1331488,1.28168869 8.1331488,1.61489422 L8.1331488,2.32545326 C8.1331488,2.71817475 8.2869682,2.92214962 8.73152166,2.92214962 C9.17691337,2.92214962 9.32304879,2.71817475 9.32304879,2.32545326 L9.32304879,1.61503393 C9.32290908,1.28168869 9.11474295,1.0964348 8.73152166,1.0964348 M8.88282631,2.35954221 C8.88282631,2.46027227 8.87262757,2.60766507 8.73152166,2.60766507 C8.5895775,2.60766507 8.57099623,2.46013256 8.57099623,2.35954221 L8.57099623,1.64479191 C8.57099623,1.53679699 8.5895775,1.40966197 8.7290069,1.40966197 C8.87262757,1.40966197 8.88296602,1.53679699 8.88296602,1.64479191 L8.88296602,2.35954221 L8.88282631,2.35954221 Z" id="Shape" fill="#FFFFFF"></path>
                    <polygon id="Path" fill="#FFFFFF" points="7.28148385 1.69774155 7.27547637 1.69774155 7.05529527 1.12703103 6.61171978 1.12703103 7.05361877 2.13768461 7.05361877 2.8694794 7.49216474 2.8694794 7.49216474 2.13768461 7.94440218 1.12703103 7.50585621 1.12703103"></polygon>
                    <path d="M6.45189289,2.23715729 C6.44518687,2.11644887 6.35758944,2.03737368 6.23604277,2.01320406 L6.23604277,2.0059392 C6.42045841,1.93021702 6.46809911,1.79553772 6.46809911,1.6098647 C6.46809911,1.26478392 6.28717619,1.12703103 5.9292422,1.12703103 L5.28658164,1.12703103 L5.28658164,2.87017794 L5.72610558,2.87017794 L5.72610558,2.1818326 L5.87238072,2.1818326 C5.97436815,2.19077396 6.00747914,2.25923128 6.02186915,2.36708649 C6.03290615,2.47424315 6.0227074,2.61786382 6.03122964,2.7712641 C6.03290615,2.80479422 6.04310489,2.83804491 6.05581839,2.87017794 L6.53529905,2.87017794 L6.53529905,2.8472657 C6.51406331,2.8314786 6.50134981,2.81205907 6.49282757,2.78900712 C6.4679594,2.67654152 6.46460639,2.37644698 6.45189289,2.23715729 M5.87573373,1.86944368 L5.72610558,1.86944368 L5.72610558,1.44235383 C5.94125716,1.43900082 6.03290615,1.44570684 6.03290615,1.65219647 C6.03290615,1.76144877 6.00314817,1.86944368 5.87573373,1.86944368" id="Shape" fill="#FFFFFF"></path>
                    <polygon id="Path" fill="#FFFFFF" points="4.4365932 2.1470451 4.98662681 2.1470451 4.98662681 1.79930986 4.4365932 1.79930986 4.4365932 1.47770016 5.0053478 1.47770016 5.0053478 1.12745016 3.99818693 1.12745016 3.99818693 2.86989852 5.03328956 2.86989852 5.03328956 2.52272211 4.4365932 2.52272211"></polygon>
                    <polygon id="Path" fill="#FFFFFF" points="3.11578604 2.35004201 3.11075652 2.35004201 2.88638416 1.12703103 2.44699993 1.12703103 2.85313347 2.87017794 3.37005609 2.87017794 3.78052059 1.12703103 3.34113636 1.12703103"></polygon>
                    <polygon id="Path" fill="#FFFFFF" points="1.67175571 2.1470451 2.22598059 2.1470451 2.22598059 1.79930986 1.67175571 1.79930986 1.67175571 1.47770016 2.24386331 1.47770016 2.24386331 1.12745016 1.23069497 1.12745016 1.23069497 2.86989852 2.27348158 2.86989852 2.27348158 2.52272211 1.67175571 2.52272211"></polygon>
                    <polygon id="Path" fill="#000000" points="2.42911721 5.449063 9.09518371 3.76054223 9.70640979 5.91820521 5.77612134 6.9147482 6.02787663 7.79742851 9.95718711 6.80298115 10.56995 8.96106325 6.63812474 9.95634886 6.90077732 10.8869493 10.8324629 9.89124455 11.4436889 12.0493267 4.77832097 13.7377077"></polygon>
                </g>
            </g>
        </g>
    </g>
</svg>