<?xml version="1.0" encoding="UTF-8"?>
<svg width="30px" height="30px" viewBox="0 0 30 30" version="1.1" xmlns="http://www.w3.org/2000/svg" xmlns:xlink="http://www.w3.org/1999/xlink">
    <!-- Generator: Sketch 57.1 (83088) - https://sketch.com -->
    <title>feliz-bueno</title>
    <desc>Created with Sketch.</desc>
    <g id="pulse" stroke="none" stroke-width="1" fill="none" fill-rule="evenodd">
        <g id="Sentimiento" transform="translate(-246.000000, -216.000000)" fill="#00CC99">
            <g id="feliz-bueno" transform="translate(245.000000, 215.000000)">
                <path d="M16.2853375,31 C6.64154316,31 2.33443383,22.4591265 2.15540375,22.095771 C1.81689637,21.4067412 2.04969657,20.5434354 2.67599634,20.1726782 C3.30107406,19.8005752 4.08196294,20.0542512 4.42108135,20.7412623 C4.57567046,21.0487687 8.21493038,28.1604438 16.2853375,28.1604438 C24.0172373,28.1604438 28.5907532,20.7116556 28.6353579,20.6369658 C29.0276354,19.9842716 29.826855,19.8032667 30.4201595,20.2339103 C31.013464,20.6665726 31.1790515,21.5426631 30.787996,22.1973759 C30.5735266,22.5587128 25.4329803,31 16.2853375,31" id="Fill-8"></path>
                <g id="Group-52-Copy-2">
                    <g id="Group-63" transform="translate(0.252427, 0.844660)">
                        <g id="Group-53">
                            <path d="M7.74757282,4.65516096 C7.74757282,5.4835859 6.96469455,6.15533981 5.99736416,6.15533981 L2.49694685,6.15533981 C1.5312857,6.15533981 0.747572816,5.4835859 0.747572816,4.65516096 L0.747572816,1.65551865 C0.747572816,0.827093711 1.5312857,0.155339806 2.49694685,0.155339806 L5.99736416,0.155339806 C6.96385993,0.155339806 7.74757282,0.827093711 7.74757282,1.65551865 L7.74757282,4.65516096 Z" id="Fill-3"></path>
                            <path d="M30.7475728,4.65516096 C30.7475728,5.4835859 29.9648812,6.15533981 28.996947,6.15533981 L25.4973642,6.15533981 C24.5336021,6.15533981 23.7475728,5.4835859 23.7475728,4.65516096 L23.7475728,1.65551865 C23.7475728,0.827093711 24.5310989,0.155339806 25.4973642,0.155339806 L28.996947,0.155339806 C29.9640468,0.155339806 30.7475728,0.827093711 30.7475728,1.65551865 L30.7475728,4.65516096 Z" id="Fill-5"></path>
                        </g>
                    </g>
                </g>
            </g>
        </g>
    </g>
</svg>