<?xml version="1.0" encoding="UTF-8"?>
<svg width="32px" height="27px" viewBox="0 0 32 27" version="1.1" xmlns="http://www.w3.org/2000/svg" xmlns:xlink="http://www.w3.org/1999/xlink">
    <!-- Generator: Sketch 57.1 (83088) - https://sketch.com -->
    <title>fotos</title>
    <desc>Created with Sketch.</desc>
    <g id="pulse" stroke="none" stroke-width="1" fill="none" fill-rule="evenodd">
        <g id="Artboard" transform="translate(-129.000000, -124.000000)" fill="#FFFFFF" fill-rule="nonzero">
            <g id="fotos" transform="translate(129.000000, 124.000000)">
                <g id="Group">
                    <path d="M30.4,0.476470588 L1.6,0.476470588 C0.8,0.476470588 0.16,1.11176471 0.16,1.90588235 L0.16,25.3720588 C0.16,26.1661765 0.8,26.8014706 1.6,26.8014706 L30.4,26.8014706 C31.2,26.8014706 31.84,26.1661765 31.84,25.3720588 L31.84,1.90588235 C31.84,1.11176471 31.16,0.476470588 30.4,0.476470588 Z M19.92,5.55882353 C21.2,5.55882353 22.24,6.59117647 22.24,7.86176471 C22.24,9.13235294 21.2,10.1647059 19.92,10.1647059 C18.64,10.1647059 17.6,9.13235294 17.6,7.86176471 C17.6,6.63088235 18.64,5.55882353 19.92,5.55882353 Z M28.96,23.1882353 C28.96,23.625 28.6,23.9426471 28.16,23.9426471 L3.84,23.9426471 C3.4,23.9426471 3.08,23.5852941 3.08,23.1882353 L3.08,20.8058824 C3.08,20.6073529 3.16,20.4485294 3.28,20.2897059 L10.96,11.5147059 C11.64,10.7602941 12.84,10.7602941 13.52,11.5147059 L18.48,17.1529412 C18.8,17.5102941 19.32,17.5102941 19.64,17.1529412 L21.6,15.0485294 C22.2,14.3735294 23.24,14.3735294 23.84,15.0485294 L28.8,20.4485294 C28.92,20.6073529 29,20.7661765 29,20.9647059 L29,23.1882353 L28.96,23.1882353 Z" id="Shape"></path>
                </g>
            </g>
        </g>
    </g>
</svg>