<?xml version="1.0" encoding="UTF-8"?>
<svg width="25px" height="32px" viewBox="0 0 25 32" version="1.1" xmlns="http://www.w3.org/2000/svg" xmlns:xlink="http://www.w3.org/1999/xlink">
    <!-- Generator: Sketch 57.1 (83088) - https://sketch.com -->
    <title>GIF</title>
    <desc>Created with Sketch.</desc>
    <g id="pulse" stroke="none" stroke-width="1" fill="none" fill-rule="evenodd">
        <g id="Artboard" transform="translate(-346.000000, -124.000000)" fill="#FFFFFF">
            <g id="GIF" transform="translate(346.000000, 124.000000)">
                <path d="M0,0 L0,32 L21.1267606,32 L21.1267606,29.5550562 L25,29.5550562 L25,16.9348315 L21.1267606,16.9348315 L21.1267606,6.75955056 L14.6126761,0 L0,0 Z M13.9084507,0.791011236 L20.4225352,7.47865169 L13.9084507,7.47865169 L13.9084507,0.791011236 Z M4.04929577,28.4764045 L23.9437406,28.4764045 L23.9437406,18.0134029 L4.04929577,18.0134029 L4.04929577,28.4764045 Z" id="Fill-1"></path>
                <g id="Group-8" transform="translate(7.000000, 21.000000)">
                    <path d="M0.720804469,5.18262857 C0.931039106,5.45142857 1.17631285,5.60502857 1.4566257,5.75862857 C1.73693855,5.87382857 2.0522905,5.95062857 2.36764246,5.95062857 C2.64795531,5.95062857 2.92826816,5.91222857 3.1735419,5.83542857 C3.45385475,5.75862857 3.66408939,5.60502857 3.83928492,5.45142857 L3.83928492,2.91702857 L2.08732961,2.91702857 L2.08732961,3.72342857 L3.03338547,3.72342857 L3.03338547,4.83702857 C2.99834637,4.87542857 2.92826816,4.91382857 2.82315084,4.95222857 C2.71803352,4.99062857 2.6129162,4.99062857 2.47275978,4.99062857 C2.26252514,4.99062857 2.08732961,4.95222857 1.91213408,4.87542857 C1.73693855,4.79862857 1.59678212,4.64502857 1.4916648,4.49142857 C1.38654749,4.33782857 1.28143017,4.10742857 1.21135196,3.87702857 C1.14127374,3.64662857 1.10623464,3.37782857 1.10623464,3.07062857 C1.10623464,2.72502857 1.14127374,2.41782857 1.21135196,2.18742857 C1.28143017,1.95702857 1.38654749,1.72662857 1.4916648,1.57302857 C1.63182123,1.41942857 1.77197765,1.30422857 1.94717318,1.22742857 C2.12236872,1.15062857 2.29756425,1.11222857 2.50779888,1.11222857 C2.6129162,1.11222857 2.71803352,1.11222857 2.82315084,1.15062857 C2.85818994,1.15062857 2.89322905,1.18902857 2.92826816,1.18902857 L2.92826816,1.99542857 L3.7341676,1.99542857 L3.7341676,0.344228571 C3.55897207,0.267428571 3.38377654,0.190628571 3.20858101,0.152228571 C2.99834637,0.113828571 2.75307263,0.0754285714 2.47275978,0.0754285714 C2.19244693,0.0754285714 1.91213408,0.113828571 1.59678212,0.229028571 C1.31646927,0.344228571 1.03615642,0.497828571 0.825921788,0.728228571 C0.580648045,0.958628571 0.405452514,1.26582857 0.265296089,1.61142857 C0.125139665,1.99542857 0.0550614525,2.41782857 0.0550614525,2.95542857 C0.0550614525,3.45462857 0.125139665,3.87702857 0.230256983,4.26102857 C0.335374302,4.60662857 0.510569832,4.91382857 0.720804469,5.18262857" id="Fill-2"></path>
                    <polygon id="Fill-4" points="8.8849162 4.83702857 7.58846927 4.83702857 7.58846927 1.15062857 8.8849162 1.15062857 8.8849162 0.152228571 5.27588827 0.152228571 5.27588827 1.15062857 6.5723352 1.15062857 6.5723352 4.83702857 5.27588827 4.83702857 5.27588827 5.79702857 8.8849162 5.79702857"></polygon>
                    <polygon id="Fill-6" points="11.6530056 3.53142857 13.755352 3.53142857 13.755352 2.53302857 11.6530056 2.53302857 11.6530056 1.15062857 13.9305475 1.15062857 13.9305475 0.152228571 10.6368715 0.152228571 10.6368715 5.79702857 11.6530056 5.79702857"></polygon>
                </g>
            </g>
        </g>
    </g>
</svg>