<?xml version="1.0" encoding="UTF-8"?>
<svg width="33px" height="33px" viewBox="0 0 33 33" version="1.1" xmlns="http://www.w3.org/2000/svg" xmlns:xlink="http://www.w3.org/1999/xlink">
    <!-- Generator: Sketch 58 (84663) - https://sketch.com -->
    <title>happy circle</title>
    <desc>Created with Sketch.</desc>
    <g id="pulse-face" stroke="none" stroke-width="1" fill="none" fill-rule="evenodd">
        <g id="PULSE-1200-15" transform="translate(-452.000000, -8176.000000)">
            <g id="happy-circle" transform="translate(453.000000, 8177.000000)">
                <g id="feliz-bueno-copy" stroke-width="1" fill-rule="evenodd" transform="translate(8.160000, 9.120000)" fill="#75CC15">
                    <path d="M7.81696244,14.8800008 C3.18794089,14.8800008 1.1205283,10.7803813 1.03459386,10.6059706 C0.872110304,10.2752363 0.983854409,9.86084953 1.28447831,9.68288606 C1.58451563,9.50427662 1.95934232,9.6260411 2.12211916,9.95580645 C2.19632194,10.1034095 3.9431668,13.5170138 7.81696244,13.5170138 C11.5282745,13.5170138 13.7235623,9.94159521 13.7449726,9.90574413 C13.9332658,9.5924509 14.3168912,9.50556855 14.6016774,9.71227749 C14.8864635,9.91995537 14.9659455,10.3404789 14.7782389,10.654741 C14.6752936,10.8281827 12.2078312,14.8800008 7.81696244,14.8800008" id="Fill-8"></path>
                    <g id="Group-52-Copy-2">
                        <g id="Group-63" transform="translate(0.121165, 0.405437)">
                            <g id="Group-53">
                                <path d="M3.71883515,2.23447738 C3.71883515,2.63212138 3.34305357,2.95456327 2.87873495,2.95456327 L1.19853455,2.95456327 C0.735017178,2.95456327 0.358834971,2.63212138 0.358834971,2.23447738 L0.358834971,0.794648997 C0.358834971,0.397005003 0.735017178,0.0745631109 1.19853455,0.0745631109 L2.87873495,0.0745631109 C3.34265295,0.0745631109 3.71883515,0.397005003 3.71883515,0.794648997 L3.71883515,2.23447738 Z" id="Fill-3"></path>
                                <path d="M14.7588358,2.23447738 C14.7588358,2.63212138 14.3831438,2.95456327 13.9185353,2.95456327 L12.2387355,2.95456327 C11.7761297,2.95456327 11.3988356,2.63212138 11.3988356,2.23447738 L11.3988356,0.794648997 C11.3988356,0.397005003 11.7749281,0.0745631109 12.2387355,0.0745631109 L13.9185353,0.0745631109 C14.3827432,0.0745631109 14.7588358,0.397005003 14.7588358,0.794648997 L14.7588358,2.23447738 Z" id="Fill-5"></path>
                            </g>
                        </g>
                    </g>
                </g>
                <circle id="Oval" stroke="#7ED321" stroke-width="1.44000008" cx="15.3600008" cy="15.3600008" r="15.3600008"></circle>
            </g>
        </g>
    </g>
</svg>