<?xml version="1.0" encoding="UTF-8"?>
<svg width="32px" height="27px" viewBox="0 0 32 27" version="1.1" xmlns="http://www.w3.org/2000/svg" xmlns:xlink="http://www.w3.org/1999/xlink">
    <!-- Generator: Sketch 57.1 (83088) - https://sketch.com -->
    <title>historias</title>
    <desc>Created with Sketch.</desc>
    <g id="pulse" stroke="none" stroke-width="1" fill="none" fill-rule="evenodd">
        <g id="Artboard" transform="translate(-783.000000, -125.000000)" fill="#FFFFFF">
            <path d="M812,125 C813.656854,125 815,126.343146 815,128 L815,149 C815,150.656854 813.656854,152 812,152 L786,152 C784.343146,152 783,150.656854 783,149 L783,128 C783,126.343146 784.343146,125 786,125 L812,125 Z M801.336429,129.385695 C796.10808,127.986195 790.73518,131.090095 789.33573,136.318445 C787.93623,141.546744 791.04008,146.919644 796.26843,148.319144 C801.496779,149.718644 806.869679,146.614744 808.269129,141.386394 C808.490029,140.561294 808.602079,139.710844 808.602429,138.856694 C808.602429,138.497144 808.310979,138.205694 807.951429,138.205694 C807.591879,138.205694 807.300429,138.497144 807.300429,138.856694 C807.293279,143.542294 803.489079,147.334894 798.803529,147.327744 C794.11793,147.320644 790.32533,143.516444 790.33243,138.830844 C790.33958,134.145245 794.14378,130.352645 798.829379,130.359795 C799.562379,130.360895 800.292129,130.456995 801.000429,130.645695 C801.348379,130.738495 801.705629,130.531645 801.798429,130.183695 C801.891229,129.835745 801.684379,129.478495 801.336429,129.385695 Z M798.802429,131.667695 C794.83203,131.667695 791.61343,134.886345 791.61343,138.856694 C791.61343,142.827094 794.83203,146.045694 798.802429,146.045694 C802.772829,146.045694 805.991429,142.827094 805.991429,138.856694 C805.987579,134.887895 802.771229,131.671545 798.802429,131.667695 Z M798.802429,132.976695 C802.049879,132.976695 804.682429,135.609245 804.682429,138.856694 C804.678579,142.102544 802.048279,144.732844 798.802429,144.736694 C795.55498,144.736694 792.92243,142.104144 792.92243,138.856694 C792.92243,135.609245 795.55498,132.976695 798.802429,132.976695 Z M798.798929,136.242195 C798.437479,136.242195 798.144429,136.535245 798.144429,136.896695 L798.144429,136.896695 L798.144429,138.205694 L796.84243,138.205694 L796.745717,138.212791 C796.43012,138.259542 796.18793,138.531604 796.18793,138.860194 C796.18793,139.221644 796.48098,139.514694 796.84243,139.514694 L796.84243,139.514694 L798.151429,139.514694 L798.151429,140.816694 L798.158526,140.913407 C798.205277,141.229004 798.477339,141.471194 798.805929,141.471194 C799.167379,141.471194 799.460429,141.178144 799.460429,140.816694 L799.460429,140.816694 L799.460429,139.507694 L800.762429,139.507694 L800.859142,139.500597 C801.174739,139.453847 801.416929,139.181785 801.416929,138.853194 C801.416929,138.491744 801.123879,138.198694 800.762429,138.198694 L800.762429,138.198694 L799.453429,138.198694 L799.453429,136.896695 L799.446332,136.799982 C799.399582,136.484385 799.12752,136.242195 798.798929,136.242195 Z M808.049429,135.643695 C807.929579,135.303495 807.556629,135.124845 807.216429,135.244695 C806.876229,135.364545 806.697579,135.737495 806.817429,136.077695 L806.817429,136.077695 L806.817429,136.056695 L806.902196,136.311028 C806.956118,136.482139 807.004862,136.656361 807.048429,136.833695 C807.119829,137.127045 807.383529,137.332745 807.685429,137.330695 C807.736579,137.336995 807.788279,137.336995 807.839429,137.330695 C808.188579,137.244895 808.402079,136.892295 808.316279,136.543145 C808.316029,136.541995 808.315729,136.540845 808.315429,136.539695 C808.238429,136.238695 808.147429,135.937695 808.049429,135.643695 Z M806.439429,132.689695 C806.213279,132.409395 805.802729,132.365545 805.522429,132.591695 C805.242129,132.817845 805.198279,133.228395 805.424429,133.508695 C805.643029,133.790045 805.844079,134.084595 806.026429,134.390695 C806.219729,134.698045 806.625579,134.790495 806.932929,134.597195 C807.240279,134.403895 807.332729,133.998045 807.139429,133.690695 C806.927079,133.342845 806.693279,133.008545 806.439429,132.689695 Z M803.079429,130.036695 C802.754679,129.878195 802.362929,130.012945 802.204429,130.337695 C802.045929,130.662445 802.180679,131.054195 802.512429,131.212695 L802.512429,131.212695 L802.866541,131.39521 C803.332677,131.649439 803.774269,131.946855 804.185429,132.283695 C804.463779,132.511795 804.874329,132.471045 805.102429,132.192695 C805.330529,131.914345 805.289779,131.503795 805.011429,131.275695 C804.418179,130.788445 803.769729,130.372595 803.079429,130.036695 Z" id="historias"></path>
        </g>
    </g>
</svg>