<?xml version="1.0" encoding="UTF-8"?>
<svg width="50px" height="28px" viewBox="0 0 50 28" version="1.1" xmlns="http://www.w3.org/2000/svg" xmlns:xlink="http://www.w3.org/1999/xlink">
    <!-- Generator: Sketch 50.2 (55047) - http://www.bohemiancoding.com/sketch -->
    <title>logo_squint</title>
    <desc>Created with Sketch.</desc>
    <defs></defs>
    <g id="Pulse" stroke="none" stroke-width="1" fill="none" fill-rule="evenodd">
        <g id="pulse-mobile-cards" transform="translate(-27.000000, -15.000000)">
            <g id="logo_squint" transform="translate(27.000000, 11.000000)">
                <g id="logo-squint-blanco-copy">
                    <path d="M6.01919984,19.3906358 C5.58359767,18.816633 5.00940343,18.5296359 4.29659989,18.5296359 C4.04579864,18.5296359 3.80160109,18.5926352 3.56399991,18.7186359 C3.32639872,18.8446365 3.20759992,19.0616343 3.20759992,19.3696359 C3.20759992,19.6216371 3.32969869,19.8071352 3.57389991,19.9261358 C3.81810112,20.0451364 4.12829801,20.1501354 4.50449988,20.2411358 C4.88070175,20.3321363 5.28329772,20.4301353 5.71229985,20.5351358 C6.14130198,20.6401363 6.54389795,20.8046347 6.92009982,21.0286358 C7.29630169,21.2526369 7.60649858,21.5571339 7.85069979,21.9421358 C8.09490101,22.3271377 8.21699978,22.8416325 8.21699978,23.4856357 C8.21699978,24.143639 8.08170114,24.6861336 7.81109979,25.1131357 C7.54049845,25.5401378 7.19400192,25.8831344 6.77159982,26.1421357 C6.34919772,26.401137 5.87400248,26.5831351 5.34599986,26.6881357 C4.81799723,26.7931362 4.29660246,26.8456357 3.7817999,26.8456357 C3.10859655,26.8456357 2.42880337,26.7441367 1.74239995,26.5411357 C1.05599654,26.3381347 0.475202363,25.9776383 0,25.4596357 L1.80179995,23.3386357 C2.07900133,23.7026376 2.38589825,23.9791348 2.72249993,24.1681357 C3.0591016,24.3571367 3.45179766,24.4516357 3.9005999,24.4516357 C4.2438016,24.4516357 4.55399849,24.3991362 4.83119987,24.2941357 C5.10840125,24.1891352 5.24699986,23.9966371 5.24699986,23.7166357 C5.24699986,23.4506344 5.12490109,23.2511364 4.88069987,23.1181358 C4.63649866,22.9851351 4.32630177,22.8731362 3.9500999,22.7821358 C3.57389802,22.6911353 3.17130206,22.5931363 2.74229993,22.4881358 C2.31329779,22.3831352 1.91070183,22.2256368 1.53449996,22.0156358 C1.15829809,21.8056347 0.848101199,21.5081377 0.603899984,21.1231358 C0.359698769,20.7381339 0.237599994,20.223639 0.237599994,19.5796358 C0.237599994,18.9776329 0.353098836,18.459638 0.584099985,18.0256359 C0.815101133,17.5916337 1.11869809,17.2346373 1.49489996,16.9546359 C1.87110183,16.6746345 2.3033975,16.4681366 2.79179993,16.3351359 C3.28020236,16.2021353 3.77519739,16.1356359 4.27679989,16.1356359 C4.91040304,16.1356359 5.55059662,16.233635 6.19739984,16.4296359 C6.84420305,16.6256369 7.39199756,16.9756334 7.84079979,17.4796359 L6.01919984,19.3906358 Z M18.3995995,31.3816355 L15.4295996,31.3816355 L15.4295996,25.5016357 L15.3899996,25.5016357 C15.0467979,25.9916381 14.6079023,26.3381347 14.0732996,26.5411357 C13.5386969,26.7441367 12.9612027,26.8456357 12.3407997,26.8456357 C11.6543962,26.8456357 11.0406024,26.6951372 10.4993997,26.3941357 C9.95819701,26.0931342 9.49950161,25.6906382 9.12329974,25.1866357 C8.74709787,24.6826332 8.45670078,24.105139 8.25209976,23.4541357 C8.04749874,22.8031325 7.94519977,22.1206393 7.94519977,21.4066358 C7.94519977,20.636632 8.05739864,19.9296391 8.28179976,19.2856359 C8.50620088,18.6416326 8.82629767,18.0851382 9.24209973,17.6161359 C9.6579018,17.1471336 10.1561968,16.7831372 10.7369997,16.5241359 C11.3178026,16.2651346 11.9645961,16.1356359 12.6773996,16.1356359 C13.0074013,16.1356359 13.3274981,16.1846354 13.6376996,16.2826359 C13.9479012,16.3806364 14.2316983,16.5066352 14.4890996,16.6606359 C14.7465009,16.8146367 14.9708986,16.986135 15.1622996,17.1751359 C15.3537005,17.3641368 15.508799,17.549635 15.6275996,17.7316359 L15.6671996,17.7316359 L15.6671996,16.3876359 L18.3995995,16.3876359 L18.3995995,31.3816355 Z M15.6671996,21.4906358 C15.6671996,20.720632 15.4593016,20.0976382 15.0434996,19.6216358 C14.6276975,19.1456335 14.0436034,18.9076359 13.2911996,18.9076359 C12.5387959,18.9076359 11.9547017,19.1456335 11.5388997,19.6216358 C11.1230976,20.0976382 10.9151997,20.720632 10.9151997,21.4906358 C10.9151997,22.2606396 11.1230976,22.8836334 11.5388997,23.3596357 C11.9547017,23.8356381 12.5387959,24.0736357 13.2911996,24.0736357 C14.0436034,24.0736357 14.6276975,23.8356381 15.0434996,23.3596357 C15.4593016,22.8836334 15.6671996,22.2606396 15.6671996,21.4906358 Z M28.6019992,26.5936357 L25.7507993,26.5936357 L25.7507993,25.2076357 L25.7111993,25.2076357 C25.6055988,25.4036367 25.4703001,25.5996347 25.3052993,25.7956357 C25.1402985,25.9916367 24.9390005,26.1666349 24.7013993,26.3206357 C24.4637981,26.4746364 24.1932008,26.6006352 23.8895993,26.6986357 C23.5859978,26.7966361 23.2560011,26.8456357 22.8995994,26.8456357 C22.1471956,26.8456357 21.5367017,26.7231369 21.0680994,26.4781357 C20.5994971,26.2331344 20.2365007,25.8936378 19.9790994,25.4596357 C19.7216981,25.0256335 19.5500999,24.5146387 19.4642994,23.9266357 C19.378499,23.3386328 19.3355994,22.7016392 19.3355994,22.0156358 L19.3355994,16.3876359 L22.3055994,16.3876359 L22.3055994,21.3856358 C22.3055994,21.6796373 22.3154993,21.9841342 22.3352994,22.2991358 C22.3550995,22.6141373 22.4144989,22.9046344 22.5134994,23.1706357 C22.6124999,23.4366371 22.7642983,23.6536349 22.9688993,23.8216357 C23.1735004,23.9896366 23.4671974,24.0736357 23.8499993,24.0736357 C24.2328012,24.0736357 24.5429981,24.0001365 24.7805993,23.8531357 C25.0182005,23.706135 25.1996987,23.510137 25.3250993,23.2651357 C25.4504999,23.0201345 25.5329991,22.7436373 25.5725993,22.4356358 C25.6121995,22.1276342 25.6319993,21.8056375 25.6319993,21.4696358 L25.6319993,16.3876359 L28.6019992,16.3876359 L28.6019992,26.5936357 Z M29.3003992,16.3876359 L32.2703991,16.3876359 L32.2703991,26.5936357 L29.3003992,26.5936357 L29.3003992,16.3876359 Z M32.968799,16.3876359 L35.819999,16.3876359 L35.819999,17.7736359 L35.859599,17.7736359 C35.9519994,17.5776349 36.0839981,17.3816369 36.255599,17.1856359 C36.4271998,16.9896349 36.6317978,16.8146367 36.8693989,16.6606359 C37.1070001,16.5066352 37.3775974,16.3806364 37.6811989,16.2826359 C37.9848004,16.1846354 38.3147971,16.1356359 38.6711989,16.1356359 C39.4236026,16.1356359 40.0307965,16.2581347 40.4927988,16.5031359 C40.9548011,16.7481371 41.3144975,17.0876337 41.5718988,17.5216359 C41.8293001,17.9556381 42.0041983,18.4666329 42.0965988,19.0546359 C42.1889993,19.6426388 42.2351988,20.2796324 42.2351988,20.9656358 L42.2351988,26.5936357 L39.2651989,26.5936357 L39.2651989,21.5956358 C39.2651989,21.3016343 39.255299,20.9971374 39.2354989,20.6821358 C39.2156988,20.3671342 39.1562994,20.0766372 39.0572989,19.8106358 C38.9582984,19.5446345 38.8064999,19.3276367 38.6018989,19.1596359 C38.3972979,18.991635 38.1036008,18.9076359 37.7207989,18.9076359 C37.337997,18.9076359 37.0278001,18.9811351 36.7901989,19.1281359 C36.5525978,19.2751366 36.3710996,19.4711346 36.245699,19.7161358 C36.1202983,19.9611371 36.0377992,20.2376343 35.998199,20.5456358 C35.9585988,20.8536374 35.938799,21.1756341 35.938799,21.5116358 L35.938799,26.5936357 L32.968799,26.5936357 L32.968799,16.3876359 Z M49.4477986,18.9076359 L46.8341987,18.9076359 L46.8341987,22.3096358 C46.8341987,22.5896372 46.8473985,22.8451346 46.8737987,23.0761358 C46.9001988,23.3071369 46.9595982,23.5066349 47.0519986,23.6746357 C47.1443991,23.8426366 47.2862977,23.9721353 47.4776986,24.0631357 C47.6690996,24.1541362 47.923197,24.1996357 48.2399986,24.1996357 C48.3983994,24.1996357 48.6062973,24.1821359 48.8636986,24.1471357 C49.1210999,24.1121355 49.3157979,24.0316364 49.4477986,23.9056357 L49.4477986,26.5306357 C49.1177969,26.6566363 48.7746004,26.7406354 48.4181986,26.7826357 C48.0617968,26.8246359 47.7120003,26.8456357 47.3687986,26.8456357 C46.8671961,26.8456357 46.4052008,26.7896362 45.9827987,26.6776357 C45.5603966,26.5656351 45.1908003,26.3871369 44.8739987,26.1421357 C44.5571971,25.8971345 44.3096996,25.5786376 44.1314987,25.1866357 C43.9532978,24.7946337 43.8641987,24.3186385 43.8641987,23.7586357 L43.8641987,18.9076359 L41.9633988,18.9076359 L41.9633988,16.3876359 L43.8641987,16.3876359 L43.8641987,13.363636 L46.8341987,13.363636 L46.8341987,16.3876359 L49.4477986,16.3876359 L49.4477986,18.9076359 Z" id="squint" fill="#FFFFFF"></path>
                    <text id=":)" transform="translate(25.637584, 10.828386) rotate(-106.000000) translate(-25.637584, -10.828386) " font-family="AvenirNext-Bold, Avenir Next" font-size="19.9583998" font-weight="bold" fill="#F8CB1C">
                        <tspan x="18.8875845" y="17.3283857">:)</tspan>
                    </text>
                </g>
                <rect id="Rectangle" x="0" y="1" width="49" height="40"></rect>
            </g>
        </g>
    </g>
</svg>