<?xml version="1.0" encoding="UTF-8"?>
<svg width="30px" height="23px" viewBox="0 0 30 23" version="1.1" xmlns="http://www.w3.org/2000/svg" xmlns:xlink="http://www.w3.org/1999/xlink">
    <!-- Generator: Sketch 57.1 (83088) - https://sketch.com -->
    <title>neutral-face</title>
    <desc>Created with Sketch.</desc>
    <g id="pulse" stroke="none" stroke-width="1" fill="none" fill-rule="evenodd">
        <g id="Sentimiento" transform="translate(-465.000000, -216.000000)" fill="#C3C3C3">
            <g id="neutral-face" transform="translate(464.000000, 215.000000)">
                <g id="Group-63" transform="translate(0.252427, 0.844660)">
                    <g id="Group-53">
                        <path d="M7.74757282,4.65516096 C7.74757282,5.4835859 6.96469455,6.15533981 5.99736416,6.15533981 L2.49694685,6.15533981 C1.5312857,6.15533981 0.747572816,5.4835859 0.747572816,4.65516096 L0.747572816,1.65551865 C0.747572816,0.827093711 1.5312857,0.155339806 2.49694685,0.155339806 L5.99736416,0.155339806 C6.96385993,0.155339806 7.74757282,0.827093711 7.74757282,1.65551865 L7.74757282,4.65516096 Z" id="Fill-3"></path>
                        <path d="M30.7475728,4.65516096 C30.7475728,5.4835859 29.9648812,6.15533981 28.996947,6.15533981 L25.4973642,6.15533981 C24.5336021,6.15533981 23.7475728,5.4835859 23.7475728,4.65516096 L23.7475728,1.65551865 C23.7475728,0.827093711 24.5310989,0.155339806 25.4973642,0.155339806 L28.996947,0.155339806 C29.9640468,0.155339806 30.7475728,0.827093711 30.7475728,1.65551865 L30.7475728,4.65516096 Z" id="Fill-5"></path>
                        <path d="M23.1872059,23.1553398 L8.30793973,23.1553398 C7.44520111,23.1553398 6.74757282,22.4845412 6.74757282,21.6542671 C6.74757282,20.8268535 7.44520111,20.1553398 8.30793973,20.1553398 L23.1864622,20.1553398 C24.0477133,20.1553398 24.7475728,20.8261384 24.7475728,21.6542671 C24.7475728,22.4852564 24.0499445,23.1553398 23.1872059,23.1553398" id="Fill-7"></path>
                    </g>
                </g>
            </g>
        </g>
    </g>
</svg>