<?xml version="1.0" encoding="UTF-8"?>
<svg width="33px" height="33px" viewBox="0 0 33 33" version="1.1" xmlns="http://www.w3.org/2000/svg" xmlns:xlink="http://www.w3.org/1999/xlink">
    <!-- Generator: Sketch 58 (84663) - https://sketch.com -->
    <title>neutral circle</title>
    <desc>Created with Sketch.</desc>
    <g id="pulse-face" stroke="none" stroke-width="1" fill="none" fill-rule="evenodd">
        <g id="PULSE-1200-15" transform="translate(-655.000000, -8176.000000)">
            <g id="neutral-circle" transform="translate(656.000000, 8177.000000)">
                <g id="Group-3">
                    <g id="neutral-face-copy" transform="translate(8.160000, 10.080001)" fill="#C3C3C3">
                        <g id="Group-63" transform="translate(0.121165, 0.405437)">
                            <g id="Group-53">
                                <path d="M3.71883515,2.23447738 C3.71883515,2.63212138 3.34305357,2.95456327 2.87873495,2.95456327 L1.19853455,2.95456327 C0.735017178,2.95456327 0.358834971,2.63212138 0.358834971,2.23447738 L0.358834971,0.794648997 C0.358834971,0.397005003 0.735017178,0.0745631109 1.19853455,0.0745631109 L2.87873495,0.0745631109 C3.34265295,0.0745631109 3.71883515,0.397005003 3.71883515,0.794648997 L3.71883515,2.23447738 Z" id="Fill-3"></path>
                                <path d="M14.7588358,2.23447738 C14.7588358,2.63212138 14.3831438,2.95456327 13.9185353,2.95456327 L12.2387355,2.95456327 C11.7761297,2.95456327 11.3988356,2.63212138 11.3988356,2.23447738 L11.3988356,0.794648997 C11.3988356,0.397005003 11.7749281,0.0745631109 12.2387355,0.0745631109 L13.9185353,0.0745631109 C14.3827432,0.0745631109 14.7588358,0.397005003 14.7588358,0.794648997 L14.7588358,2.23447738 Z" id="Fill-5"></path>
                                <path d="M11.1298594,11.1145637 L3.98781129,11.1145637 C3.57369673,11.1145637 3.23883513,10.7925804 3.23883513,10.3940488 C3.23883513,9.99689023 3.57369673,9.67456364 3.98781129,9.67456364 L11.1295024,9.67456364 C11.542903,9.67456364 11.8788356,9.99654697 11.8788356,10.3940488 C11.8788356,10.7929236 11.543974,11.1145637 11.1298594,11.1145637" id="Fill-7"></path>
                            </g>
                        </g>
                    </g>
                    <circle id="Oval-Copy" stroke="#C3C3C3" stroke-width="1.44000008" cx="15.3600008" cy="15.3600008" r="15.3600008"></circle>
                </g>
            </g>
        </g>
    </g>
</svg>