<?xml version="1.0" encoding="UTF-8"?>
<svg width="14px" height="19px" viewBox="0 0 14 19" version="1.1" xmlns="http://www.w3.org/2000/svg" xmlns:xlink="http://www.w3.org/1999/xlink">
    <!-- Generator: Sketch 58 (84663) - https://sketch.com -->
    <title>rating pending</title>
    <desc>Created with Sketch.</desc>
    <g id="apps" stroke="none" stroke-width="1" fill="none" fill-rule="evenodd">
        <g id="Bench-apps-1200-Copy" transform="translate(-972.000000, -650.000000)" fill-rule="nonzero">
            <g id="Group-17" transform="translate(160.000000, 215.000000)">
                <g id="rating-pending" transform="translate(812.000000, 435.425790)">
                    <polygon id="Path" fill="#FFFFFF" points="12.7804229 0.256225971 0.188187777 0.256225971 0.188187777 18.1467783 12.8731895 18.1467783 12.8731895 0.256225971"></polygon>
                    <path d="M12.9164993,0.127135024 L0.0521113888,0.127135024 L0.0521113888,18.2755898 L13.0081483,18.2755898 L13.0081483,0.127135024 L12.9164993,0.127135024 Z M12.8238723,18.1009538 L0.237365281,18.1009538 L0.237365281,0.303028425 L12.8238723,0.303028425 L12.8238723,18.1009538 Z" id="Shape" fill="#000000"></path>
                    <rect id="Rectangle" fill="#FFFFFF" x="0.381125653" y="0.481576293" width="12.2889273" height="17.4630433"></rect>
                    <rect id="Rectangle" fill="#000000" x="0.422479463" y="0.523768356" width="12.1799544" height="17.3787989"></rect>
                    <rect id="Rectangle" fill="#FFFFFF" x="1.06611798" y="3.36586483" width="10.9333326" height="11.0355995"></rect>
                    <path d="M1.64758608,15.340587 L1.64367423,15.3956322 C1.63417404,15.5669153 1.5734007,15.6981018 1.36299922,15.6981018 C1.05312506,15.6981018 1.03370554,15.5157818 1.03370554,15.2644457 L1.03370554,15.1303252 C1.04166894,14.8907246 1.06192672,14.7131547 1.36299922,14.7131547 C1.53106893,14.7152503 1.62495325,14.7955829 1.63822559,14.9561083 C1.64088006,14.9795794 1.64367423,15.0043078 1.64241686,15.0276392 L1.45716296,15.0276392 C1.44878043,14.9677041 1.45576588,14.8542606 1.36299922,14.8542606 C1.21504758,14.8542606 1.22706254,15.0184184 1.22706254,15.0923244 L1.22706254,15.3531608 C1.22706254,15.4301403 1.23376857,15.5571356 1.36299922,15.5571356 C1.46666316,15.5571356 1.45380995,15.4017794 1.45842034,15.3407267 L1.64758608,15.3407267 L1.64758608,15.340587 Z" id="Path" fill="#FFFFFF"></path>
                    <path d="M1.78925082,15.1301855 C1.79721423,14.8905849 1.81761171,14.713015 2.11826509,14.713015 C2.41933759,14.713015 2.43945566,14.8905849 2.44727935,15.1301855 L2.44727935,15.264306 C2.44727935,15.5157818 2.42702157,15.6979621 2.11826509,15.6979621 C1.80964831,15.6979621 1.78925082,15.5156421 1.78925082,15.264306 L1.78925082,15.1301855 Z M1.98288724,15.3530211 C1.98288724,15.4300006 1.98931385,15.5569959 2.11826509,15.5569959 C2.25280468,15.5569959 2.25420177,15.4273461 2.25420177,15.3369545 L2.25420177,15.0972142 C2.25420177,15.0212126 2.25853274,14.8541209 2.11826509,14.8541209 C1.97059287,14.8541209 1.98288724,15.0182787 1.98288724,15.0921847 L1.98288724,15.3530211 Z" id="Shape" fill="#FFFFFF"></path>
                    <path d="M3.07038068,14.735089 L3.25856845,14.735089 L3.25856845,15.6760278 L3.06199815,15.6760278 L2.91558331,15.340587 C2.86612639,15.2285405 2.82575054,15.1155161 2.78174226,14.9675644 L2.77852896,14.9675644 C2.78537469,15.0449631 2.7934778,15.139546 2.79892644,15.2356656 C2.80409567,15.3296897 2.80786781,15.4239931 2.80786781,15.4992962 L2.80786781,15.6761675 L2.61981974,15.6761675 L2.61981974,14.7352287 L2.81541209,14.7352287 L2.96098867,15.0786329 C3.00974705,15.1874661 3.05026261,15.2979758 3.09636652,15.4512364 L3.09860186,15.4512364 C3.09203554,15.3664331 3.08518981,15.2749238 3.07946175,15.1853705 C3.07415281,15.0948392 3.07038068,15.0043078 3.07038068,14.9193649 L3.07038068,14.735089 L3.07038068,14.735089 Z" id="Path" fill="#FFFFFF"></path>
                    <polygon id="Path" fill="#FFFFFF" points="3.37312968 14.735089 4.00014286 14.735089 4.00014286 14.8728418 3.78121914 14.8728418 3.78121914 15.6761675 3.59331078 15.6761675 3.59331078 14.8728418 3.37312968 14.8728418"></polygon>
                    <polygon id="Path" fill="#FFFFFF" points="4.10827748 15.6761675 4.10827748 14.735089 4.6377739 14.735089 4.6377739 14.8728418 4.29730351 14.8728418 4.29730351 15.1109057 4.61122922 15.1109057 4.61122922 15.2480997 4.29730351 15.2480997 4.29730351 15.5378558 4.6377739 15.5378558 4.6377739 15.6761675"></polygon>
                    <path d="M5.23614676,14.735089 L5.42405512,14.735089 L5.42405512,15.6760278 L5.22832307,15.6760278 L5.08120968,15.340587 C5.03189247,15.2285405 4.9910975,15.1155161 4.94708922,14.9675644 L4.94373621,14.9675644 C4.95169961,15.0449631 4.95994243,15.139546 4.96511166,15.2356656 C4.97042059,15.3296897 4.97405302,15.4239931 4.97405302,15.4992962 L4.97405302,15.6761675 L4.78558583,15.6761675 L4.78558583,14.7352287 L4.98020021,14.7352287 L5.12647534,15.0786329 C5.17565284,15.1874661 5.21574927,15.2979758 5.26185318,15.4512364 L5.26408853,15.4512364 C5.2573825,15.3664331 5.25053677,15.2749238 5.24536754,15.1853705 C5.23963948,15.0948392 5.23628647,15.0043078 5.23628647,14.9193649 L5.23628647,14.735089 L5.23614676,14.735089 Z" id="Path" fill="#FFFFFF"></path>
                    <polygon id="Path" fill="#FFFFFF" points="5.53875606 14.735089 6.16674719 14.735089 6.16674719 14.8728418 5.94768377 14.8728418 5.94768377 15.6761675 5.75893716 15.6761675 5.75893716 14.8728418 5.53875606 14.8728418"></polygon>
                    <path d="M6.80186348,15.271012 L6.80186348,15.6760278 L6.61283745,15.6760278 L6.61283745,14.735089 L6.97007289,14.735089 C7.13157629,14.735089 7.25577742,14.7873401 7.25577742,14.9602996 C7.25577742,15.0639635 7.22797537,15.1723776 7.10125947,15.1881646 L7.10125947,15.1902603 C7.21218827,15.20479 7.24571839,15.271012 7.24571839,15.3611242 C7.24571839,15.3998235 7.24040945,15.6306225 7.28609424,15.6591231 L7.28609424,15.6761675 L7.08002373,15.6761675 C7.05683207,15.6160928 7.06088362,15.5009727 7.05934683,15.4381037 C7.05850857,15.3802643 7.05934683,15.3009097 6.99452194,15.2834461 C6.94380763,15.2693355 6.8893212,15.2711517 6.8339965,15.2711517 L6.80186348,15.2711517 L6.80186348,15.271012 Z M6.80186348,15.1332591 L6.94981511,15.1332591 C7.01086787,15.1294869 7.05934683,15.0921847 7.05934683,14.9981607 C7.05934683,14.8922614 7.01240466,14.8745184 6.94101346,14.8728418 L6.80186348,14.8728418 L6.80186348,15.1332591 L6.80186348,15.1332591 Z" id="Shape" fill="#FFFFFF"></path>
                    <path d="M7.3583237,15.6761675 L7.59890228,14.7352287 L7.85303262,14.7352287 L8.08117712,15.6761675 L7.87957729,15.6761675 L7.82970125,15.4381037 L7.60965986,15.4381037 L7.55992352,15.6761675 L7.3583237,15.6761675 Z M7.63899871,15.2990935 L7.8005021,15.2990935 L7.74867013,15.032529 C7.73986848,14.9888002 7.73609634,14.9459096 7.7307874,14.902041 L7.72366225,14.8387529 L7.72072837,14.8387529 L7.71472089,14.902041 C7.7085737,14.9457699 7.70424273,14.9888002 7.6958602,15.032529 L7.63899871,15.2990935 Z" id="Shape" fill="#FFFFFF"></path>
                    <polygon id="Path" fill="#FFFFFF" points="8.11666316 14.735089 8.74367633 14.735089 8.74367633 14.8728418 8.52489232 14.8728418 8.52489232 15.6761675 8.33684425 15.6761675 8.33684425 14.8728418 8.11666316 14.8728418"></polygon>
                    <polygon id="Path" fill="#FFFFFF" points="8.85181095 15.6761675 8.85181095 14.735089 9.38158679 14.735089 9.38158679 14.8728418 9.04069727 14.8728418 9.04069727 15.1109057 9.35392444 15.1109057 9.35392444 15.2480997 9.04069727 15.2480997 9.04069727 15.5378558 9.38158679 15.5378558 9.38158679 15.6761675"></polygon>
                    <path d="M9.53540619,15.6761675 L9.53540619,14.7352287 L9.9268703,14.7352287 C9.97325363,14.7352287 10.0649026,14.7539496 10.1219038,14.8423853 C10.1653533,14.9074896 10.1769491,15.0115727 10.1769491,15.1665098 C10.1769491,15.3531608 10.1769491,15.5669153 10.0234091,15.65102 C9.98121703,15.6732337 9.93078215,15.6763073 9.88314144,15.6763073 L9.53540619,15.6763073 L9.53540619,15.6761675 Z M9.80574276,15.5378558 C9.97325363,15.5378558 9.98415092,15.4550085 9.98415092,15.1829954 C9.98415092,14.9602996 9.95998129,14.8727021 9.84653773,14.8727021 L9.72331455,14.8727021 L9.72331455,15.5378558 L9.80574276,15.5378558 Z" id="Shape" fill="#FFFFFF"></path>
                    <path d="M10.6832538,15.6761675 L10.6832538,14.7352287 L10.9872602,14.7352287 C11.0666148,14.7352287 11.1477857,14.7403979 11.2012941,14.8045242 C11.2434862,14.8563562 11.2507511,14.9090264 11.2507511,14.9737116 C11.2507511,15.0548824 11.2310521,15.1363327 11.1290647,15.1708408 L11.1290647,15.1733555 C11.2353831,15.1876058 11.2761781,15.2694752 11.2761781,15.3918601 C11.2761781,15.4300006 11.2736633,15.4692588 11.2622072,15.5069802 C11.2226696,15.625593 11.1486239,15.6761675 11.015202,15.6761675 L10.6832538,15.6761675 Z M10.9123763,15.5378558 C10.9513551,15.5378558 10.9908927,15.5412088 11.0244228,15.5280762 C11.0763944,15.5069802 11.0818431,15.4452289 11.0818431,15.397169 C11.0818431,15.296439 11.0601882,15.2531292 10.944649,15.2531292 L10.8715813,15.2531292 L10.8715813,15.5378558 L10.9123763,15.5378558 Z M10.9063688,15.1155161 C10.9516345,15.1155161 11.0112901,15.1181705 11.040629,15.0832433 C11.058372,15.0590737 11.0601882,15.025823 11.0601882,14.9813956 C11.0601882,14.9108426 11.0445408,14.8754963 10.959039,14.8729816 L10.8714416,14.8729816 L10.8714416,15.1156558 L10.9063688,15.1156558 L10.9063688,15.1155161 Z" id="Shape" fill="#FFFFFF"></path>
                    <path d="M11.6714143,14.9820941 C11.6918118,15.0287569 11.708018,15.0763976 11.7159814,15.1265531 L11.7176579,15.1265531 C11.7317685,15.0530662 11.7574749,15.0019328 11.7801078,14.9489832 L11.8702199,14.7352287 L12.076011,14.7352287 L11.8095863,15.2761812 L11.8095863,15.6761675 L11.6220971,15.6761675 L11.6220971,15.2761812 L11.3590254,14.7352287 L11.5652356,14.7352287 L11.6714143,14.9820941 Z" id="Path" fill="#FFFFFF"></path>
                    <polygon id="Path" fill="#FFFFFF" points="1.06751507 17.3423349 1.06751507 15.9544675 3.09916069 15.9544675 3.09916069 16.2781728 1.88411311 16.2781728 1.88411311 16.4766991 2.91250971 16.4766991 2.91250971 16.8004044 1.88411311 16.8004044 1.88411311 17.018909 3.14777936 17.018909 3.14777936 17.3423349"></polygon>
                    <path d="M5.19102081,16.3568289 C5.17746906,16.3089088 5.1322034,16.2802685 5.07366541,16.2629446 C5.01414945,16.2459001 4.94122145,16.2379367 4.86214626,16.2379367 C4.68276014,16.2379367 4.60270698,16.2667167 4.60270698,16.3167325 C4.60270698,16.5244795 6.03570032,16.3953885 6.03570032,16.9012742 C6.03570032,17.2224647 5.55496228,17.3785195 4.86969053,17.3785195 C4.21096346,17.3785195 3.78191768,17.1651841 3.76501292,16.9144068 L4.54668375,16.9144068 C4.56442677,16.9638637 4.61318515,17.001166 4.68289985,17.0249165 C4.74730561,17.0478287 4.83518246,17.0592848 4.91383852,17.0592848 C5.11893106,17.0592848 5.25333095,17.0226811 5.25333095,16.9565989 C5.25333095,16.7474548 3.82131557,16.8910754 3.82131557,16.3611599 C3.82131557,16.0662346 4.27718544,15.9174447 4.90056618,15.9174447 C5.59240425,15.9174447 5.90842559,16.1149929 5.96626504,16.3568289 L5.19102081,16.3568289 Z" id="Path" fill="#FFFFFF"></path>
                    <path d="M7.52499631,16.8579644 L7.52499631,17.3424746 L6.70742032,17.3424746 L6.70742032,15.9544675 L7.88432739,15.9544675 C8.71559486,15.9544675 8.98830647,16.0802054 8.98830647,16.349564 C8.98830647,16.5095306 8.86089203,16.6440702 8.57015798,16.6893359 C8.83295026,16.7428444 8.99221831,16.7776319 8.99221831,17.0569098 C8.99221831,17.2383915 8.98201957,17.2998634 9.07841865,17.2998634 L9.07841865,17.3424746 L8.25176158,17.3424746 C8.23136409,17.3118784 8.21068719,17.2226044 8.21068719,17.0989621 C8.21068719,16.9187378 8.1538257,16.8579644 7.77381772,16.8579644 L7.52499631,16.8579644 L7.52499631,16.8579644 Z M7.52499631,16.5540978 L7.84702514,16.5540978 C8.09947897,16.5540978 8.23471711,16.5193103 8.23471711,16.4230509 C8.23471711,16.3249753 8.09654509,16.2781728 7.90584255,16.2781728 L7.52499631,16.2781728 L7.52499631,16.5540978 Z" id="Shape" fill="#FFFFFF"></path>
                    <path d="M9.78618352,17.3423349 L9.78618352,15.9543278 L10.9766424,15.9543278 C11.537713,15.9543278 11.9842223,16.0271161 11.9842223,16.3031807 C11.9842223,16.4459631 11.8185277,16.5501859 11.6595391,16.6053709 C11.9290374,16.6439305 12.0743345,16.7735803 12.0743345,16.9240467 C12.0743345,17.2339209 11.6482226,17.3421952 11.0016502,17.3421952 L9.78618352,17.3421952 L9.78618352,17.3423349 Z M10.603061,16.7622639 L10.603061,17.018909 L10.9595979,17.018909 C11.1603594,17.018909 11.3126421,16.9951585 11.3126421,16.8910754 C11.3126421,16.7699479 11.1219395,16.7622639 10.8622208,16.7622639 L10.603061,16.7622639 L10.603061,16.7622639 Z M10.603061,16.2781728 L10.603061,16.5093909 L10.9417151,16.5093909 C11.104895,16.5093909 11.2226696,16.4690151 11.2226696,16.3886825 C11.2226696,16.2802685 11.0628427,16.2781728 10.8898832,16.2781728 L10.603061,16.2781728 Z" id="Shape" fill="#FFFFFF"></path>
                    <path d="M1.27037228,3.99273829 C1.27037228,3.71862959 1.50410513,3.49677199 1.7952583,3.49677199 C2.08529381,3.49677199 2.31832811,3.71862959 2.31832811,3.99273829 C2.31832811,4.26978087 2.08529381,4.49289585 1.7952583,4.49289585 C1.50410513,4.49289585 1.27037228,4.26978087 1.27037228,3.99273829 M2.22612029,3.99273829 C2.22612029,3.7679468 2.03402067,3.58353116 1.7952583,3.58353116 C1.5559371,3.58353116 1.36160213,3.76780709 1.36160213,3.99273829 C1.36160213,4.22046366 1.5559371,4.40529843 1.7952583,4.40529843 C2.03402067,4.40529843 2.22612029,4.22032395 2.22612029,3.99273829 M1.68418979,4.02584928 L1.68418979,4.27914136 L1.58807013,4.27914136 L1.58807013,3.69418055 L1.78687577,3.69418055 C1.90045904,3.69418055 2.01753503,3.72226202 2.01753503,3.85526481 C2.01753503,3.92274417 1.97408559,3.97583352 1.89235593,3.9913412 L1.89235593,3.99427509 C1.97687976,4.00992247 1.98624025,4.04568793 1.99615958,4.10939515 C2.00454211,4.1655581 2.01124813,4.22633143 2.03234416,4.27914136 L1.90981953,4.27914136 C1.9029738,4.24630979 1.8934736,4.20942666 1.88914263,4.17449946 C1.88173806,4.12350574 1.88173806,4.07810038 1.85407571,4.04987919 C1.83046492,4.02570957 1.79819219,4.02836404 1.76466207,4.02570957 L1.68418979,4.02570957 L1.68418979,4.02584928 Z M1.78547868,3.93392088 C1.87587029,3.93224437 1.89738545,3.89592008 1.89738545,3.85163238 C1.89738545,3.80818294 1.87601,3.78485157 1.79958927,3.78485157 L1.68418979,3.78485157 L1.68418979,3.93378117 L1.78547868,3.93378117 L1.78547868,3.93392088 Z" id="Shape" fill="#000000"></path>
                    <path d="M1.06416206,2.91628185 L1.06416206,1.05270594 L1.43089771,1.05270594 C1.62243849,1.05270594 1.79693481,1.14547259 1.79693481,1.43005945 L1.79693481,1.59463644 C1.79693481,1.73406584 1.74356604,1.88606903 1.55663564,1.89934137 L1.55663564,1.9045106 C1.7525074,1.91666526 1.79693481,2.00635832 1.79693481,2.21759806 L1.79693481,2.58726759 C1.79693481,2.76749196 1.82571482,2.84349356 1.84317843,2.91614214 L1.52757621,2.91614214 C1.5052228,2.86431017 1.48566356,2.80395596 1.48566356,2.67472531 L1.48566356,2.25238555 C1.48566356,2.13670665 1.48566356,2.04505767 1.37515389,2.04505767 L1.37515389,2.91614214 L1.06416206,2.91614214 L1.06416206,2.91628185 Z M1.3752936,1.83032521 L1.41315469,1.83032521 C1.46358957,1.83032521 1.48580327,1.80238345 1.48580327,1.71296981 L1.48580327,1.43802286 C1.48580327,1.34930776 1.46372928,1.32038803 1.41315469,1.32038803 L1.3752936,1.32038803 L1.3752936,1.83032521 Z" id="Shape" fill="#FFFFFF"></path>
                    <path d="M2.1295815,1.05270594 L2.54172251,1.05270594 L2.72921174,2.91628185 L2.40508729,2.91628185 L2.36932183,2.40871972 L2.22220845,2.40871972 L2.17289123,2.91628185 L1.89626778,2.91628185 L2.1295815,1.05270594 Z M2.35018172,2.14271413 L2.30729112,1.37724952 L2.29848946,1.37724952 L2.24875312,2.14271413 L2.35018172,2.14271413 Z" id="Shape" fill="#FFFFFF"></path>
                    <polygon id="Path" fill="#FFFFFF" points="3.28720876 2.91628185 2.97551839 2.91628185 2.97551839 1.32052774 2.76581546 1.32052774 2.76581546 1.05270594 3.49607344 1.05270594 3.49607344 1.32052774 3.28720876 1.32052774"></polygon>
                    <rect id="Rectangle" fill="#FFFFFF" x="3.58786214" y="1.05270594" width="1" height="1.86357591"></rect>
                    <polygon id="Path" fill="#FFFFFF" points="4.10827748 2.91628185 4.10827748 1.05270594 4.53983802 1.05270594 4.69882665 2.26300342 4.70301792 2.26300342 4.70301792 1.05270594 4.94625097 1.05270594 4.94625097 2.91628185 4.57560347 2.91628185 4.35542238 1.45129519 4.35081199 1.45646442 4.35081199 2.91628185"></polygon>
                    <path d="M5.64242,2.78313935 L5.63711107,2.78313935 C5.5964558,2.89267106 5.49013739,2.95316498 5.39541481,2.95316498 C5.18780751,2.95316498 5.08246706,2.81471354 5.08246706,2.61297401 L5.08246706,1.35741087 C5.08246706,1.10831005 5.25556629,1.01652135 5.44822475,1.01652135 C5.64004495,1.01652135 5.81398243,1.10831005 5.81398243,1.35741087 L5.81398243,1.70989621 L5.50327002,1.70989621 L5.50327002,1.41720624 C5.50327002,1.36397718 5.49628458,1.29342423 5.44808504,1.29342423 C5.39904724,1.29342423 5.39262064,1.36397718 5.39262064,1.41720624 L5.39262064,2.5526198 C5.39262064,2.60501061 5.39918695,2.67472531 5.44808504,2.67472531 C5.49628458,2.67472531 5.50327002,2.60501061 5.50327002,2.5526198 L5.50327002,2.23352486 L5.42559192,2.23352486 L5.42559192,1.96710015 L5.81384272,1.96710015 L5.81384272,2.91614214 L5.66379545,2.91614214 L5.64242,2.78313935 Z" id="Path" fill="#FFFFFF"></path>
                    <path d="M6.39391373,2.91628185 L6.39391373,1.05270594 L6.75925229,1.05270594 C6.9512122,1.05270594 7.12570852,1.14547259 7.12570852,1.43005945 L7.12570852,1.81244249 C7.12570852,2.09758818 6.9512122,2.18951658 6.75925229,2.18951658 L6.7040673,2.18951658 L6.7040673,2.91614214 L6.39391373,2.91614214 L6.39391373,2.91628185 Z M6.7040673,1.92211391 L6.74220781,1.92211391 C6.79222357,1.92211391 6.81443727,1.89361331 6.81443727,1.80405996 L6.81443727,1.43802286 C6.81443727,1.34930776 6.79236328,1.32038803 6.74220781,1.32038803 L6.7040673,1.32038803 L6.7040673,1.92211391 Z" id="Shape" fill="#FFFFFF"></path>
                    <polygon id="Path" fill="#FFFFFF" points="7.26248345 2.91628185 7.26248345 1.05270594 7.84395154 1.05270594 7.84395154 1.32052774 7.57263702 1.32052774 7.57263702 1.74691905 7.8337528 1.74691905 7.8337528 2.01362318 7.57263702 2.01362318 7.57263702 2.65055568 7.84395154 2.65055568 7.84395154 2.91628185"></polygon>
                    <polygon id="Path" fill="#FFFFFF" points="7.95781423 2.91628185 7.95781423 1.05270594 8.39007331 1.05270594 8.54906195 2.26300342 8.55423117 2.26300342 8.55423117 1.05270594 8.79662597 1.05270594 8.79662597 2.91628185 8.42500052 2.91628185 8.20481942 1.45129519 8.20104728 1.45646442 8.20104728 2.91628185"></polygon>
                    <path d="M8.93256265,1.05270594 L9.29832033,1.05270594 C9.49097879,1.05270594 9.66463685,1.14547259 9.66463685,1.39345574 L9.66463685,2.57706884 C9.66463685,2.8251917 9.49097879,2.91628185 9.29832033,2.91628185 L8.93256265,2.91628185 L8.93256265,1.05270594 Z M9.24299564,2.65013655 L9.29832033,2.65013655 C9.34735813,2.65013655 9.35364502,2.57902477 9.35364502,2.52691338 L9.35364502,1.44403034 C9.35364502,1.39177924 9.34735813,1.32038803 9.29832033,1.32038803 L9.24299564,1.32038803 L9.24299564,2.65013655 Z" id="Shape" fill="#FFFFFF"></path>
                    <rect id="Rectangle" fill="#FFFFFF" x="9.81845626" y="1.05270594" width="1" height="1.86357591"></rect>
                    <polygon id="Path" fill="#FFFFFF" points="10.2944442 2.91628185 10.2944442 1.05270594 10.7269827 1.05270594 10.8855522 2.26300342 10.8901626 2.26300342 10.8901626 1.05270594 11.1324177 1.05270594 11.1324177 2.91628185 10.7614908 2.91628185 10.5413097 1.45129519 10.5365596 1.45646442 10.5365596 2.91628185"></polygon>
                    <path d="M11.829425,2.78313935 L11.8238366,2.78313935 C11.7827622,2.89267106 11.6768629,2.95316498 11.5813021,2.95316498 C11.3746728,2.95316498 11.2693323,2.81471354 11.2693323,2.61297401 L11.2693323,1.35741087 C11.2693323,1.10831005 11.4422918,1.01652135 11.6349503,1.01652135 C11.8269102,1.01652135 12.0011271,1.10831005 12.0011271,1.35741087 L12.0011271,1.70989621 L11.6908338,1.70989621 L11.6908338,1.41720624 C11.6908338,1.36397718 11.6839881,1.29342423 11.6349503,1.29342423 C11.5859125,1.29342423 11.5796256,1.36397718 11.5796256,1.41720624 L11.5796256,2.5526198 C11.5796256,2.60501061 11.5860522,2.67472531 11.6349503,2.67472531 C11.6841278,2.67472531 11.6908338,2.60501061 11.6908338,2.5526198 L11.6908338,2.23352486 L11.6125969,2.23352486 L11.6125969,1.96710015 L12.0009874,1.96710015 L12.0009874,2.91614214 L11.851499,2.91614214 L11.829425,2.78313935 Z" id="Path" fill="#FFFFFF"></path>
                    <path d="M7.21568099,10.4398811 C7.02679467,9.77109497 6.65391184,9.38046912 6.11882707,9.24355448 C6.45063551,8.87388495 6.63966154,8.29786549 6.38539149,7.39408915 C6.02871488,6.13237882 5.12382087,5.52296896 4.02319481,5.80294543 L1.52087018,6.44001764 L1.47015588,6.45328998 L3.54105968,13.8007164 L5.21644782,13.3748839 C5.21644782,13.3748839 4.53718355,10.9674216 4.41829135,10.5431259 C4.44665224,10.5360007 4.49932246,10.5231475 4.49932246,10.5231475 C4.75568814,10.457205 4.94191999,10.4594403 5.06751822,10.5285962 C5.28867728,10.6509811 5.39122355,11.0186947 5.50871866,11.4443875 L5.60218386,11.7833211 C5.71297295,12.1921091 5.82641651,12.6144488 6.1146358,12.9755961 L6.22766024,13.116702 L8.1411122,12.630655 L7.8844671,12.3149131 C7.75537615,12.1567627 7.43418558,11.2175004 7.21568099,10.4398811 M3.51255908,7.33163931 C3.72310027,7.277572 3.9390901,7.22336498 3.9390901,7.22336498 C4.14208701,7.17237126 4.4808809,7.08575179 4.72872434,7.96563792 C4.77622534,8.13664152 4.99123721,8.99543162 4.47543225,9.1267579 C4.47543225,9.1267579 4.26042038,9.18124434 4.04932036,9.23517195 C3.92456039,8.79145674 3.63829702,7.77535452 3.51255908,7.33163931" id="Shape" fill="#000000"></path>
                    <path d="M8.81604549,4.58203008 L6.56156431,5.15651274 L6.29164688,5.22538918 L8.36283009,12.5737936 L10.0734249,12.137902 C10.0734249,12.137902 9.40701379,9.77710245 9.28756275,9.35504211 C9.57648059,9.28155527 10.0232694,9.16853084 10.0232694,9.16853084 C11.3586063,8.82694278 11.8685434,7.83654698 11.4572407,6.37686925 C10.9195014,4.47585138 9.72582931,4.35081199 8.81604549,4.58203008 M8.36813903,6.09577511 C8.61612218,6.03248702 8.88729699,5.96319145 8.88729699,5.96319145 C9.18347968,5.8880281 9.52045735,5.8880281 9.78772032,6.83483476 C9.91429651,7.28539569 9.78185255,7.77563393 9.51584696,7.84465009 C9.51584696,7.84465009 9.18515619,7.92707829 8.90504001,7.99860921 C8.78293451,7.56537216 8.4913622,6.52943128 8.36813903,6.09577511" id="Shape" fill="#000000"></path>
                    <polygon id="Path" fill="#000000" points="12.0725183 0.523768356 12.3558478 0.523768356 12.3558478 1.0504706 12.0725183 1.0504706 12.0725183 17.3760047 12.3558478 17.3760047 12.3558478 17.9024276 12.6270226 17.9024276 12.6270226 17.5242358 12.6270226 17.3760047 12.6270226 1.0504706 12.6270226 0.523768356"></polygon>
                </g>
            </g>
        </g>
    </g>
</svg>