<?xml version="1.0" encoding="UTF-8"?>
<svg width="29px" height="31px" viewBox="0 0 29 31" version="1.1" xmlns="http://www.w3.org/2000/svg" xmlns:xlink="http://www.w3.org/1999/xlink">
    <!-- Generator: Sketch 57.1 (83088) - https://sketch.com -->
    <title>triste-malo</title>
    <desc>Created with Sketch.</desc>
    <g id="pulse" stroke="none" stroke-width="1" fill="none" fill-rule="evenodd">
        <g id="Sentimiento" transform="translate(-689.000000, -215.000000)" fill="#FF3366">
            <g id="triste-malo" transform="translate(689.000000, 215.000000)">
                <path d="M14.2853375,31 C4.64154316,31 0.334433833,22.4591265 0.155403753,22.095771 C-0.183103633,21.4067412 0.0496965729,20.5434354 0.67599634,20.1726782 C1.30107406,19.8005752 2.08196294,20.0542512 2.42108135,20.7412623 C2.57567046,21.0487687 6.21493038,28.1604438 14.2853375,28.1604438 C22.0172373,28.1604438 26.5907532,20.7116556 26.6353579,20.6369658 C27.0276354,19.9842716 27.826855,19.8032667 28.4201595,20.2339103 C29.013464,20.6665726 29.1790515,21.5426631 28.787996,22.1973759 C28.5735266,22.5587128 23.4329803,31 14.2853375,31" id="Fill-8-Copy" transform="translate(14.500000, 25.500000) rotate(-180.000000) translate(-14.500000, -25.500000) "></path>
                <g id="Group-7" transform="translate(1.000000, 0.000000)">
                    <path d="M7.51167747,8 C7.26847732,8 7.02573175,7.9121581 6.83935406,7.73690915 L0.286587351,1.57101634 C-0.0911683986,1.21573498 -0.0961687756,0.634760808 0.275677438,0.273826255 C0.647523652,-0.0875431594 1.25438758,-0.0914569076 1.63168875,0.263389593 L8.18400088,6.42884754 C8.56175663,6.7841289 8.56675701,7.36510307 8.1949108,7.72603763 C8.00716937,7.90867921 7.75942342,8 7.51167747,8" id="Fill-6"></path>
                    <path d="M0.959101643,8 C0.710881135,8 0.463115243,7.90868233 0.275358705,7.72604699 C-0.0960628242,7.36468993 -0.0910620448,6.78417046 0.286269497,6.42890125 L6.83910906,0.263219198 C7.21689522,-0.0916151731 7.823808,-0.0872667127 8.19522953,0.273655503 C8.56665106,0.635012565 8.56165028,1.21553203 8.18431874,1.57080125 L1.63147917,7.73691814 C1.44463187,7.91259595 1.20186676,8 0.959101643,8" id="Fill-8"></path>
                    <path d="M26.0411705,8 C25.7993259,8 25.5565722,7.91215813 25.3688244,7.73690926 L18.8158365,1.57101905 C18.4380681,1.21573784 18.4335221,0.634763907 18.8049263,0.273829506 C19.176785,-0.0871048959 19.7836694,-0.0918883638 20.1605287,0.263392848 L26.7135166,6.4288482 C27.0912851,6.78412941 27.095831,7.36510334 26.7248815,7.72603774 C26.5366791,7.90867925 26.2889248,8 26.0411705,8" id="Fill-10"></path>
                    <path d="M19.4891411,8 C19.2400093,8 18.9922414,7.90868421 18.804938,7.72605263 C18.433968,7.36470301 18.437605,6.7841955 18.8158489,6.4289336 L25.3691963,0.263378532 C25.7465309,-0.0918833693 26.3543579,-0.0871001613 26.7244186,0.273814622 C27.0953885,0.635164242 27.0917515,1.21567175 26.7139623,1.57093365 L20.1615241,7.73692356 C19.9746753,7.91259775 19.7323628,8 19.4891411,8" id="Fill-12"></path>
                </g>
            </g>
        </g>
    </g>
</svg>