<?xml version="1.0" encoding="UTF-8"?>
<svg width="31px" height="27px" viewBox="0 0 31 27" version="1.1" xmlns="http://www.w3.org/2000/svg" xmlns:xlink="http://www.w3.org/1999/xlink">
    <!-- Generator: Sketch 57.1 (83088) - https://sketch.com -->
    <title>video</title>
    <desc>Created with Sketch.</desc>
    <g id="pulse" stroke="none" stroke-width="1" fill="none" fill-rule="evenodd">
        <g id="Artboard" transform="translate(-1005.000000, -125.000000)" fill="#FFFFFF">
            <path d="M1029,131 L1032,131 L1032,129 L1029,129 L1029,131 Z M1029,135 L1032,135 L1032,133 L1029,133 L1029,135 Z M1029,139 L1032,139 L1032,137 L1029,137 L1029,139 Z M1029,144 L1032,144 L1032,142 L1029,142 L1029,144 Z M1029,148 L1032,148 L1032,146 L1029,146 L1029,148 Z M1025.4475,139.894532 L1017.4475,143.894501 C1017.306,143.965 1017.153,144 1017,144 C1016.817,144 1016.635,143.95 1016.4745,143.850501 C1016.1795,143.668503 1016,143.346505 1016,143 L1016,135.000071 C1016,134.653574 1016.1795,134.331576 1016.4745,134.149578 C1016.769,133.967079 1017.137,133.950579 1017.4475,134.105578 L1025.4475,138.105546 C1025.786,138.275045 1026,138.621542 1026,139.000039 C1026,139.378536 1025.786,139.725034 1025.4475,139.894532 L1025.4475,139.894532 Z M1009,131 L1012,131 L1012,129 L1009,129 L1009,131 Z M1009,135 L1012,135 L1012,133 L1009,133 L1009,135 Z M1009,139 L1012,139 L1012,137 L1009,137 L1009,139 Z M1009,144 L1012,144 L1012,142 L1009,142 L1009,144 Z M1009,148 L1012,148 L1012,146 L1009,146 L1009,148 Z M1032.9,125 L1008.1,125 C1006.39035,125 1005,126.39725 1005,128.115385 L1005,148.884615 C1005,150.60275 1006.39035,152 1008.1,152 L1032.9,152 C1034.60965,152 1036,150.60275 1036,148.884615 L1036,128.115385 C1036,126.39725 1034.60965,125 1032.9,125 L1032.9,125 Z" id="video" transform="translate(1020.500000, 138.500000) scale(1, -1) translate(-1020.500000, -138.500000) "></path>
        </g>
    </g>
</svg>