<?xml version="1.0" encoding="UTF-8"?>
<svg width="29px" height="16px" viewBox="0 0 29 16" version="1.1" xmlns="http://www.w3.org/2000/svg" xmlns:xlink="http://www.w3.org/1999/xlink">
    <!-- Generator: Sketch 51.3 (57544) - http://www.bohemiancoding.com/sketch -->
    <title>vistazos</title>
    <desc>Created with Sketch.</desc>
    <defs></defs>
    <g id="Symbols" stroke="none" stroke-width="1" fill="none" fill-rule="evenodd">
        <g id="headernuevo/pulse" transform="translate(-1068.000000, -27.000000)">
            <g id="vistazos" transform="translate(1068.000000, 27.000000)">
                <g id="Group-3">
                    <polygon id="Clip-2" points="0.000144586895 0.193992262 28.2702564 0.193992262 28.2702564 15.6212798 0.000144586895 15.6212798"></polygon>
                    <path d="M21.5166023,14.1796039 C18.5894406,14.1796039 16.2078535,11.8044484 16.2078535,8.88495134 C16.2078535,5.96545432 18.5894406,3.59053914 21.5166023,3.59053914 C24.443523,3.59053914 26.8251102,5.96545432 26.8251102,8.88495134 C26.8253511,11.8044484 24.443764,14.1796039 21.5166023,14.1796039 M14.1359233,3.48551607 C13.6245677,3.48551607 13.2086394,3.07047068 13.2086394,2.56049598 C13.2086394,2.05076161 13.6245677,1.63595655 14.1359233,1.63595655 C14.646797,1.63595655 15.0632073,2.05076161 15.0632073,2.56049598 C15.0632073,3.07047068 14.646797,3.48551607 14.1359233,3.48551607 M6.75548528,14.1796039 C3.8283236,14.1796039 1.44673647,11.8044484 1.44673647,8.88495134 C1.44673647,5.96545432 3.8283236,3.59053914 6.75548528,3.59053914 C9.68288794,3.59053914 12.0639931,5.96545432 12.0639931,8.88495134 C12.0639931,11.8044484 9.68288794,14.1796039 6.75548528,14.1796039 M21.5166023,2.14833452 C20.3567745,2.14833452 19.2634566,2.44201458 18.3084601,2.95799747 C17.7385468,2.84792753 17.1356194,2.7563628 16.5020878,2.6888308 C16.5044976,2.64629286 16.5088352,2.60399524 16.5088352,2.56049598 C16.5088352,1.25575863 15.4441937,0.193992262 14.1356823,0.193992262 C12.8271709,0.193992262 11.7625294,1.25575863 11.7625294,2.56049598 C11.7625294,2.6027936 11.766867,2.64364926 11.7690358,2.68522589 C11.1289979,2.75155625 10.520769,2.84167902 9.94748196,2.95030699 C8.99610019,2.43913065 7.90904772,2.14833452 6.75476235,2.14833452 C3.03020394,2.14833452 0.000144586895,5.17045134 0.000144586895,8.88471101 C0.000144586895,12.599211 3.03020394,15.6213278 6.75476235,15.6213278 C10.4790798,15.6213278 13.5091391,12.599211 13.5091391,8.88471101 C13.5091391,8.75517455 13.5045605,8.6265994 13.4975722,8.49874524 L14.7730696,8.49874524 C14.7653583,8.6265994 14.7612616,8.75517455 14.7612616,8.88471101 C14.7612616,12.599211 17.79108,15.6213278 21.5158794,15.6213278 C25.2401968,15.6213278 28.2702562,12.599211 28.2702562,8.88471101 C28.2712201,5.17045134 25.2409198,2.14833452 21.5166023,2.14833452" id="Fill-1" fill="#FFFFFF"></path>
                </g>
                <path d="M6.51209404,7 C5.62391681,7 5,7.58404536 5,8.50131758 C5,9.36444941 5.62391681,10 6.51209404,10 C7.35121694,10 8,9.38960313 8,8.50131758 C8,7.58404536 7.35121694,7 6.51209404,7" id="Fill-4" fill="#FFFFFF"></path>
                <path d="M24.3814476,7.34478172 C24.2365994,7.34478172 24.0959619,7.41167266 23.9626932,7.54686278 C23.5750979,7.95266781 23.1386585,8.21577218 22.6546381,8.33781881 C22.6175839,7.94539196 22.4815782,7.62431544 22.2449366,7.37458927 C22.0080846,7.12486309 21.7150196,7 21.3630048,7 C20.975199,7 20.6511853,7.13871069 20.3907533,7.41589736 C20.1305318,7.6919105 20,8.0402128 20,8.45916132 C20,8.91847911 20.1511643,9.29048662 20.4545455,9.57424503 C20.7577161,9.85800344 21.2002611,10 21.7815487,10 C22.9327551,10 23.9273233,9.55359099 24.7631479,8.66194649 C24.9202072,8.48638711 25,8.29768424 25,8.09442967 C25,7.8916445 24.9391553,7.71608512 24.8178871,7.56751682 C24.6966188,7.41824441 24.5517706,7.34478172 24.3814476,7.34478172" id="Fill-6" fill="#FFFFFF"></path>
            </g>
        </g>
    </g>
</svg>