<?xml version="1.0" encoding="utf-8"?>
<!-- Generator: Adobe Illustrator 17.0.0, SVG Export Plug-In . SVG Version: 6.00 Build 0)  -->
<!DOCTYPE svg PUBLIC "-//W3C//DTD SVG 1.1//EN" "http://www.w3.org/Graphics/SVG/1.1/DTD/svg11.dtd">
<svg version="1.1" id="Capa_1" xmlns="http://www.w3.org/2000/svg" xmlns:xlink="http://www.w3.org/1999/xlink" x="0px" y="0px"
	 width="106px" height="114.667px" viewBox="0 0 106 114.667" enable-background="new 0 0 106 114.667" xml:space="preserve">
<g>
	<g>
		<defs>
			<path id="SVGID_1_" d="M18.192,56.124c0,19.224,15.583,34.807,34.807,34.807s34.808-15.583,34.808-34.807
				c0-19.223-15.584-34.807-34.808-34.807S18.192,36.901,18.192,56.124"/>
		</defs>
		<clipPath id="SVGID_3_">
			<use xlink:href="#SVGID_1_"  overflow="visible"/>
		</clipPath>
		
			<linearGradient id="SVGID_4_" gradientUnits="userSpaceOnUse" x1="-566.9415" y1="-13.5563" x2="-565.9415" y2="-13.5563" gradientTransform="matrix(0 -69.6145 69.6145 0 996.7156 -39376.4219)">
			<stop  offset="0" style="stop-color:#E09A3F"/>
			<stop  offset="0.08" style="stop-color:#E09A3F"/>
			<stop  offset="0.9" style="stop-color:#F8E979"/>
			<stop  offset="1" style="stop-color:#F8E979"/>
		</linearGradient>
		<rect x="18.193" y="21.317" clip-path="url(#SVGID_3_)" fill="url(#SVGID_4_)" width="69.615" height="69.614"/>
	</g>
</g>
<defs>
	<filter id="Adobe_OpacityMaskFilter" filterUnits="userSpaceOnUse" x="18.193" y="21.318" width="69.615" height="69.614">
		<feColorMatrix  type="matrix" values="1 0 0 0 0  0 1 0 0 0  0 0 1 0 0  0 0 0 1 0"/>
	</filter>
</defs>
<mask maskUnits="userSpaceOnUse" x="18.193" y="21.318" width="69.615" height="69.614" id="SVGID_2_">
	<g filter="url(#Adobe_OpacityMaskFilter)">
		<g enable-background="new    ">
			<g>
				<g>
					<defs>
						<rect id="SVGID_5_" x="17.292" y="20.352" width="71.548" height="71.548"/>
					</defs>
					<clipPath id="SVGID_6_">
						<use xlink:href="#SVGID_5_"  overflow="visible"/>
					</clipPath>
					<g>
						<g clip-path="url(#SVGID_6_)" enable-background="new    ">
							
								<image overflow="visible" width="189" height="186" xlink:href="554287E71194F725.jpg"  transform="matrix(0.3785 0 0 0.3846 17.293 20.3517)">
							</image>
						</g>
					</g>
				</g>
			</g>
		</g>
	</g>
</mask>
<g opacity="0.15" mask="url(#SVGID_2_)">
	<g>
		<g>
			<path fill="#BD4911" d="M87.807,56.125c0,19.224-15.584,34.807-34.807,34.807c-19.224,0-34.808-15.583-34.808-34.807
				S33.777,21.318,53,21.318C72.223,21.318,87.807,36.901,87.807,56.125"/>
		</g>
	</g>
</g>
<g>
	<g>
		<defs>
			<path id="SVGID_7_" d="M41.397,79.47c0,0.595,0.408,1.02,1.088,1.02c1.523,0,3.635-2.72,10.514-2.72s8.992,2.72,10.515,2.72
				c0.68,0,1.087-0.425,1.087-1.02c0-1.733-3.648-7.682-11.602-7.682C45.048,71.788,41.397,77.737,41.397,79.47"/>
		</defs>
		<clipPath id="SVGID_8_">
			<use xlink:href="#SVGID_7_"  overflow="visible"/>
		</clipPath>
		
			<linearGradient id="SVGID_9_" gradientUnits="userSpaceOnUse" x1="-517.9673" y1="-4.046" x2="-516.9673" y2="-4.046" gradientTransform="matrix(0 8.7019 -8.7019 0 17.7914 4579.0874)">
			<stop  offset="0" style="stop-color:#42281B"/>
			<stop  offset="0.2146" style="stop-color:#42281B"/>
			<stop  offset="1" style="stop-color:#753A18"/>
		</linearGradient>
		<rect x="41.398" y="71.788" clip-path="url(#SVGID_8_)" fill="url(#SVGID_9_)" width="23.204" height="8.702"/>
	</g>
</g>
<g>
	<g>
		<defs>
			<path id="SVGID_10_" d="M33.856,59.605c0,1.473,0.385,2.827,1.033,3.907c0.297,0.495,0.772,0.841,1.31,0.98
				c0.612,0.159,1.531,0.334,2.588,0.334c1.055,0,1.973-0.175,2.586-0.334c0.539-0.139,1.014-0.485,1.311-0.98
				c0.648-1.08,1.034-2.434,1.034-3.907c0-3.524-2.209-6.381-4.931-6.381C36.062,53.224,33.856,56.081,33.856,59.605"/>
		</defs>
		<clipPath id="SVGID_11_">
			<use xlink:href="#SVGID_10_"  overflow="visible"/>
		</clipPath>
		
			<radialGradient id="SVGID_12_" cx="-603.7993" cy="-23.1639" r="1" gradientTransform="matrix(0 -8.9555 6.8966 0 198.6313 -5346.3369)" gradientUnits="userSpaceOnUse">
			<stop  offset="0" style="stop-color:#404669"/>
			<stop  offset="0.6884" style="stop-color:#262841"/>
			<stop  offset="1" style="stop-color:#262841"/>
		</radialGradient>
		<rect x="33.857" y="53.224" clip-path="url(#SVGID_11_)" fill="url(#SVGID_12_)" width="9.862" height="11.602"/>
	</g>
</g>
<g>
	<g>
		<defs>
			<path id="SVGID_13_" d="M62.282,59.605c0,1.473,0.386,2.827,1.034,3.907c0.296,0.495,0.772,0.841,1.31,0.98
				c0.613,0.159,1.532,0.334,2.587,0.334c1.057,0,1.976-0.175,2.588-0.334c0.538-0.139,1.013-0.485,1.31-0.98
				c0.647-1.08,1.033-2.434,1.033-3.907c0-3.524-2.206-6.381-4.931-6.381C64.49,53.224,62.282,56.081,62.282,59.605"/>
		</defs>
		<clipPath id="SVGID_14_">
			<use xlink:href="#SVGID_13_"  overflow="visible"/>
		</clipPath>
		
			<radialGradient id="SVGID_15_" cx="-603.7993" cy="-1.8357" r="1" gradientTransform="matrix(0 -8.9555 -6.8966 0 54.4655 -5346.3369)" gradientUnits="userSpaceOnUse">
			<stop  offset="0" style="stop-color:#404669"/>
			<stop  offset="0.6884" style="stop-color:#262841"/>
			<stop  offset="1" style="stop-color:#262841"/>
		</radialGradient>
		<rect x="62.281" y="53.224" clip-path="url(#SVGID_14_)" fill="url(#SVGID_15_)" width="9.862" height="11.602"/>
	</g>
</g>
<path fill="#505169" d="M38.276,56.065c0.558,0.545,0.591,1.619,0.074,2.396c-0.517,0.778-1.388,0.966-1.947,0.421
	c-0.558-0.545-0.591-1.618-0.074-2.396S37.717,55.52,38.276,56.065"/>
<path fill="#505169" d="M66.508,56.065c0.558,0.545,0.591,1.619,0.074,2.396c-0.517,0.778-1.389,0.966-1.947,0.421
	c-0.558-0.545-0.591-1.618-0.074-2.396S65.949,55.52,66.508,56.065"/>
<g>
	<g>
		<defs>
			<path id="SVGID_16_" d="M36.278,43.736c-5.257,2.428-7.952,6.167-8.619,7.231c-0.667,1.065,0.583,2.414,1.895,1.193
				c2.098-1.952,6.929-5.073,11.745-6.044c1.276-0.256,1.619-0.568,0.856-2.003c-0.43-0.811-1.186-1.332-2.391-1.332
				C38.868,42.781,37.724,43.069,36.278,43.736"/>
		</defs>
		<clipPath id="SVGID_17_">
			<use xlink:href="#SVGID_16_"  overflow="visible"/>
		</clipPath>
		
			<linearGradient id="SVGID_18_" gradientUnits="userSpaceOnUse" x1="-599.9108" y1="-19.9643" x2="-598.9108" y2="-19.9643" gradientTransform="matrix(0 -9.8621 9.8621 0 231.8454 -5863.7388)">
			<stop  offset="0" style="stop-color:#B56718"/>
			<stop  offset="0.2285" style="stop-color:#B56718"/>
			<stop  offset="0.8001" style="stop-color:#CB801E"/>
			<stop  offset="1" style="stop-color:#CB801E"/>
		</linearGradient>
		<rect x="26.993" y="42.781" clip-path="url(#SVGID_17_)" fill="url(#SVGID_18_)" width="15.926" height="10.6"/>
	</g>
</g>
<g>
	<g>
		<defs>
			<path id="SVGID_19_" d="M63.844,44.113c-0.762,1.435-0.419,1.747,0.857,2.003c4.815,0.971,9.647,4.092,11.744,6.044
				c1.312,1.221,2.562-0.128,1.895-1.193c-0.667-1.064-3.362-4.803-8.619-7.231c-1.446-0.667-2.591-0.955-3.486-0.955
				C65.029,42.781,64.275,43.302,63.844,44.113"/>
		</defs>
		<clipPath id="SVGID_20_">
			<use xlink:href="#SVGID_19_"  overflow="visible"/>
		</clipPath>
		
			<linearGradient id="SVGID_21_" gradientUnits="userSpaceOnUse" x1="-599.9108" y1="-19.952" x2="-598.9108" y2="-19.952" gradientTransform="matrix(0 -9.8621 9.8621 0 267.8127 -5863.7388)">
			<stop  offset="0" style="stop-color:#B56718"/>
			<stop  offset="0.2285" style="stop-color:#B56718"/>
			<stop  offset="0.8001" style="stop-color:#CB801E"/>
			<stop  offset="1" style="stop-color:#CB801E"/>
		</linearGradient>
		<rect x="63.082" y="42.781" clip-path="url(#SVGID_20_)" fill="url(#SVGID_21_)" width="15.925" height="10.6"/>
	</g>
</g>
<path fill="#4070DF" d="M75.624,90.352c-3.844,0-6.961-3.223-6.961-7.199s1.653-6.661,2.983-9.255
	c2.779-5.422,3.326-6.171,3.978-6.171c0.652,0,1.199,0.749,3.978,6.171c1.33,2.594,2.983,5.279,2.983,9.255
	S79.469,90.352,75.624,90.352"/>
<g>
	<g>
		<g opacity="0.85">
			<defs>
				<rect id="SVGID_22_" x="68.663" y="67.727" opacity="0.85" width="13.923" height="22.625"/>
			</defs>
			<clipPath id="SVGID_23_">
				<use xlink:href="#SVGID_22_"  overflow="visible"/>
			</clipPath>
			<g clip-path="url(#SVGID_23_)">
				<g>
					<defs>
						<path id="SVGID_24_" d="M71.646,73.897c-1.33,2.595-2.983,5.28-2.983,9.256c0,3.975,3.117,7.199,6.961,7.199
							c3.844,0,6.961-3.224,6.961-7.199c0-3.976-1.653-6.661-2.982-9.256c-2.78-5.42-3.327-6.17-3.979-6.17
							C74.973,67.727,74.426,68.477,71.646,73.897"/>
					</defs>
					<clipPath id="SVGID_25_">
						<use xlink:href="#SVGID_24_"  overflow="visible"/>
					</clipPath>
					<g clip-path="url(#SVGID_25_)">
						<g>
							<g>
								<defs>
									<rect id="SVGID_26_" x="68.664" y="67.727" width="13.922" height="22.625"/>
								</defs>
								<clipPath id="SVGID_27_">
									<use xlink:href="#SVGID_26_"  overflow="visible"/>
								</clipPath>
								<g clip-path="url(#SVGID_27_)">
									
										<image overflow="visible" enable-background="new    " width="63" height="100" xlink:href="554287E71194F727.jpg"  transform="matrix(0.2248 0 0 0.228 68.6631 67.7269)">
									</image>
								</g>
							</g>
						</g>
					</g>
				</g>
			</g>
		</g>
		<g>
			<g>
				<g opacity="0.15">
					<defs>
						<rect id="SVGID_28_" x="72.868" y="71.08" opacity="0.15" width="5.514" height="8.957"/>
					</defs>
					<clipPath id="SVGID_29_">
						<use xlink:href="#SVGID_28_"  overflow="visible"/>
					</clipPath>
					<g clip-path="url(#SVGID_29_)">
						<g>
							<defs>
								<rect id="SVGID_30_" x="72.868" y="71.081" width="5.513" height="8.956"/>
							</defs>
							<clipPath id="SVGID_31_">
								<use xlink:href="#SVGID_30_"  overflow="visible"/>
							</clipPath>
							<path clip-path="url(#SVGID_31_)" fill="#D1E1F8" d="M75.624,80.037c-1.522,0-2.756-1.276-2.756-2.85
								s0.655-2.637,1.181-3.664c1.1-2.146,1.317-2.442,1.575-2.442c0.258,0,0.475,0.296,1.575,2.442
								c0.526,1.027,1.18,2.09,1.18,3.664S77.146,80.037,75.624,80.037"/>
						</g>
					</g>
				</g>
			</g>
		</g>
	</g>
</g>
</svg>
